<svg width="201" height="307" fill="none" xmlns="http://www.w3.org/2000/svg"><path d="M264.155 123.601C263.671 121.769 263.125 119.919 262.507 118.097C262.385 117.473 262.25 116.837 262.118 116.213C261.839 114.479 261.541 112.746 261.224 111.015C260.611 107.608 259.883 104.209 258.986 100.834C256.982 91.9947 253.968 83.2426 248.465 75.89C248.391 75.771 248.315 75.6408 248.242 75.5218C246.675 72.3789 244.824 69.3593 242.585 66.5275C240.539 64.236 238.494 61.9557 236.448 59.6643C233.487 56.4906 230.36 53.5899 227.064 50.9398C223.948 48.3214 220.777 45.8996 217.47 43.658C216.745 43.1691 216.009 42.7151 215.28 42.2493C215.02 42.0764 214.765 41.8804 214.496 41.7083C206.372 36.3311 197.402 32.1388 188.598 29.8815C169.296 24.9287 150.674 26.9113 133.273 32.4251C124.239 35.2808 115.579 39.3086 107.375 43.936C101.468 47.2578 95.8105 50.8892 90.7873 55.5938C78.8375 66.7883 68.6688 80.4416 59.237 94.3677C53.4456 102.924 47.8706 111.769 42.9699 121.095C41.2891 124.302 39.644 127.54 38.1133 130.86C36.1404 135.12 34.7763 139.457 33.5161 144.15C33.4364 144.462 33.9641 144.433 34.0457 144.314C35.5312 142.571 36.5712 140.466 37.1586 138.009C38.4691 134.887 39.894 131.847 41.4117 128.879C45.0406 121.709 49.0411 114.828 53.2488 108.147C61.1892 95.5226 69.8203 83.4574 79.2486 72.3171C84.515 66.0996 90.1309 59.6065 96.556 54.7849C97.8195 53.8289 99.1281 52.9489 100.449 52.0793C98.702 53.3207 97.0124 54.6485 95.4084 56.1057C82.732 67.5363 72.1674 81.8422 62.2827 96.3347C56.4651 104.859 50.9067 113.736 46.006 123.063C44.9807 125.009 43.9817 126.987 43.004 128.974C41.7241 131.46 40.4584 133.967 39.2713 136.525C37.3034 140.761 35.937 145.043 34.7031 149.722C34.6499 149.93 35.1232 151.389 35.4035 151.062C34.9287 152.581 34.4776 154.121 34.0598 155.727C33.9729 156.05 34.6876 157.412 34.9518 156.871C35.4083 155.908 35.8386 154.913 36.2713 153.929C36.4325 154.325 36.6346 154.638 36.7547 154.38C38.2662 151.106 39.6108 147.732 41.0127 144.4C40.613 145.539 40.2347 146.689 39.8707 147.86C38.0824 151.89 36.5374 156.015 35.3185 160.489C35.2267 160.836 35.8883 161.579 36.0879 161.099C37.3095 158.154 38.4977 155.188 39.6932 152.21C39.3775 153.197 39.0714 154.182 38.7771 155.178C38.6902 155.502 39.0364 157.14 39.3035 156.429C41.4139 150.846 43.5646 145.362 46.1636 140.116C46.8025 138.822 47.4724 137.537 48.1447 136.263C46.922 138.79 45.7755 141.357 44.71 143.985C43.2683 147.083 41.9267 150.241 40.7566 153.523C38.9228 157.613 37.3012 161.789 36.0201 166.291C35.9116 166.65 36.4116 167.133 36.5464 166.761C37.4034 164.386 38.3103 162.064 39.2412 159.763C39.3457 159.936 39.4577 160.007 39.542 159.763C40.091 158.182 40.683 156.62 41.2869 155.068C41.3726 155.152 41.473 155.122 41.5765 154.831C41.9209 153.843 42.2914 152.886 42.65 151.919C43.7818 149.467 44.9589 147.046 46.229 144.651C48.3803 140.594 50.6722 136.65 53.0116 132.748C49.0532 139.92 45.495 147.424 42.7948 155.453C40.5626 160.23 38.5805 165.18 36.9894 170.373C36.8471 170.848 37.4797 170.902 37.6146 170.485C38.9111 166.424 40.4436 162.515 42.1119 158.697C42.236 158.733 42.401 158.642 42.4998 158.328C42.7023 157.679 42.9262 157.039 43.1382 156.389C44.0682 154.36 45.0363 152.373 46.0378 150.407C43.9353 154.925 42.0472 159.585 40.5475 164.522C40.521 164.626 40.628 164.765 40.7519 164.847C40.4315 165.811 40.1302 166.773 39.8409 167.746C39.7613 168.013 40.3343 168.015 40.3801 167.864C40.9635 165.986 41.604 164.148 42.2851 162.319C42.4496 162.409 42.7388 162.308 42.8256 162.029C43.5704 159.629 44.3939 157.28 45.2842 154.97C50.5023 143.242 57.3054 132.492 64.1047 122.23C72.662 109.31 81.8722 96.8156 92.2576 85.7957C93.3427 84.6381 94.461 83.5006 95.5937 82.3847C97.6334 80.555 99.7635 78.8316 102.02 77.246C103.128 76.4717 104.261 75.7294 105.407 74.9975C103.098 76.791 100.881 78.702 98.7741 80.7633C86.1068 93.1557 75.3635 108.132 65.3954 123.378C63.6805 126.01 61.9822 128.674 60.3196 131.37C56.0574 137.931 51.9951 144.703 48.3093 151.741C44.5251 158.957 41.0723 166.317 38.7346 174.499C38.6019 174.974 38.9714 175.987 39.2004 175.234C39.8102 173.297 40.4867 171.4 41.2061 169.523C40.9289 170.416 40.6636 171.319 40.4102 172.233C40.3378 172.487 40.577 173.16 40.7821 173.258C40.305 174.72 39.8518 176.204 39.4532 177.763C39.3977 177.96 39.2642 178.706 39.4427 178.907C39.545 179.024 39.8021 179.276 39.8794 178.999C40.8216 176.063 41.8854 173.197 43.0421 170.404C43.2041 170.527 43.3998 170.535 43.4793 170.314C44.1464 168.373 44.8683 166.461 45.6213 164.559C46.6376 162.387 47.7017 160.257 48.8014 158.159C48.2056 159.381 47.6099 160.604 47.0475 161.847C46.0718 163.981 45.1629 166.156 44.3349 168.392C43.4624 170.372 42.8663 172.512 42.5659 174.81C42.561 174.833 42.5681 174.867 42.5752 174.9C41.9228 176.727 41.8176 177.562 40.9882 181.123C40.918 181.434 41.3 183.059 41.5385 182.35C41.9288 181.166 42.3643 180.012 42.788 178.847C42.7771 179.301 43.2836 180.826 43.5509 180.069C47.9233 167.691 53.9661 156.467 60.4994 145.726C67.6684 133.952 75.4545 122.664 83.8878 112.097C78.4494 119.155 73.2728 126.486 68.3725 134.069C68.3053 134.165 68.2405 134.272 68.1734 134.367C63.029 142.127 58.0725 150.133 53.6855 158.538C51.9998 161.767 50.3737 165.049 48.8596 168.402C47.8695 170.56 46.97 172.78 46.1515 175.061C45.2525 177.099 44.7254 179.335 44.5368 181.75C44.1125 183.141 44.0355 184.155 43.3972 187.656C43.3316 188.035 43.8638 188.119 43.9553 187.863C44.897 185.109 45.9603 182.424 47.0711 179.781C47.1639 179.899 47.2592 179.982 47.3522 180.009C46.599 182.002 46.1843 184.174 46.1487 186.532C46.0904 186.898 46.5692 187.281 46.7112 186.897C51.6146 173.403 58.3242 161.154 65.6123 149.485C74.5222 135.202 84.2994 121.533 95.2066 109.262C99.4492 104.492 103.859 99.6862 108.875 95.9107C112.591 93.1052 116.595 90.7422 120.618 88.4685C127.4 84.6503 134.452 81.3214 141.773 78.6289C147.115 76.8104 152.587 75.3332 158.199 74.287C173.302 71.449 189.449 71.7594 205.391 77.4865C214.245 80.6685 222.97 85.5361 230.912 91.7083C235.317 95.1467 239.496 98.9418 243.447 103.082C246.795 106.385 249.821 110.007 252.546 113.946C252.838 114.411 253.111 114.877 253.385 115.343C253.531 115.989 253.655 116.625 253.792 117.272C254.326 120.855 254.793 124.443 255.171 128.027C255.222 128.68 255.261 129.322 255.302 129.976C255.288 134.778 255.025 139.554 254.46 144.318C252.998 156.692 249.733 168.341 244.886 178.932C238.313 193.299 229.075 204.878 219.011 215.952C218.698 216.305 219.105 217.316 219.224 217.737C219.209 217.67 219.741 219.679 219.961 219.436C228.121 210.747 235.93 201.586 241.864 190.63C248.169 178.99 252.781 166.276 254.967 152.184C255.166 150.923 255.337 149.665 255.486 148.396C255.398 150.045 255.271 151.696 255.121 153.327C253.503 164.32 250.466 174.706 246.143 184.238C245.6 185.434 245.03 186.598 244.452 187.763C244.2 188.223 243.962 188.706 243.71 189.166C237.642 200.042 230.01 209.167 221.952 218.018C221.77 218.213 221.858 218.908 221.976 219.556C221.435 220.163 220.903 220.769 220.359 221.365C220.028 221.73 220.483 222.873 220.597 223.318C220.58 223.24 221.159 225.427 221.372 225.195C221.427 225.135 221.489 225.062 221.544 225.001C221.544 225.137 221.567 225.294 221.596 225.473C220.932 226.191 220.28 226.92 219.605 227.627C219.205 228.077 220.74 230.52 220.889 230.35C222.213 228.903 223.526 227.445 224.834 225.965C224.896 226.073 224.972 226.113 225.073 225.992C230.53 220.032 235.858 213.832 240.603 207.076C240.488 207.266 240.375 207.467 240.262 207.668C235.474 214.586 230.102 220.902 224.535 227.074C224.362 227.269 224.377 228.026 224.463 228.71C223.294 230.021 222.111 231.311 220.904 232.58C220.588 232.921 221.676 234.492 221.928 234.212C222.857 233.191 223.787 232.17 224.714 231.137C224.638 231.834 224.846 233.188 225.107 232.908C231.601 225.794 237.824 218.406 243.159 210.122C242.057 212.119 240.905 214.063 239.698 215.977C235.981 220.798 232.006 225.367 227.936 229.852C227.675 230.133 227.162 232.527 227.768 231.858C228.247 231.324 228.729 230.8 229.208 230.266C226.764 233.213 224.239 236.054 221.616 238.799C221.245 239.201 222.125 239.599 222.362 239.343C228.513 232.583 234.548 225.594 239.7 217.777C243.528 212.789 247.084 207.527 250.167 201.859C248.435 206.157 246.484 210.29 244.29 214.238C244.233 214.333 244.165 214.428 244.108 214.523C242.729 216.541 241.314 218.527 239.807 220.442C236.144 225.247 232.242 229.788 228.12 234.074C228.002 234.207 227.456 234.837 227.613 235.12C227.675 235.228 227.744 235.28 227.803 235.286C227.329 235.798 226.869 236.331 226.383 236.832C226.107 237.135 226.282 237.915 226.612 237.55C230.63 233.137 234.592 228.648 238.283 223.886C237.098 225.583 235.878 227.249 234.601 228.874C230.926 233.669 227.033 238.209 222.902 242.496C222.586 242.836 222.58 243.913 223.093 243.353C223.943 242.417 224.791 241.47 225.632 240.534C225.746 240.571 225.906 240.548 225.993 240.451C235.977 229.461 245.615 217.659 251.93 203.176C252.615 201.596 253.276 199.994 253.897 198.385C254.685 196.649 255.428 194.884 256.174 193.038C254.648 198.679 252.717 204.102 250.377 209.238C248.923 212.371 247.364 215.421 245.699 218.378C240.636 225.927 234.857 232.705 228.842 239.33C228.519 239.683 229.867 239.954 230.102 239.688C230.827 238.897 231.541 238.096 232.265 237.294C230.228 239.689 228.144 242.043 226.026 244.377C225.971 244.438 225.964 244.586 225.97 244.755C225.496 245.267 225.022 245.778 224.548 246.289C224.248 246.618 224.397 248.746 224.689 248.43C227.013 245.877 229.32 243.291 231.565 240.642C235.798 235.917 239.895 231.102 243.64 225.814C243.796 225.587 243.949 225.349 244.105 225.122C238.568 234.01 231.991 241.787 225.131 249.371C224.776 249.76 225.16 252.494 225.442 252.178C226.523 250.998 227.598 249.796 228.674 248.594C228.866 248.908 229.038 249.121 229.083 249.061C230.858 247.127 232.609 245.171 234.334 243.184C232.346 245.531 230.321 247.847 228.254 250.143C228.189 250.204 228.182 250.307 228.165 250.41C227.607 251.029 227.058 251.648 226.5 252.268C226.121 252.682 226.857 255.932 227.156 255.604C227.81 254.887 228.471 254.157 229.125 253.44C229.159 253.46 229.19 253.469 229.214 253.445C230.035 252.556 230.845 251.657 231.652 250.747C231.673 250.802 231.695 250.857 231.716 250.912C231.021 251.666 230.32 252.433 229.613 253.177C229.29 253.53 229.797 254.692 229.923 255.101C229.916 255.068 230.093 255.677 230.301 256.205C229.729 256.848 229.159 257.503 228.586 258.146C228.234 258.546 229.101 261.821 229.433 261.468C230.135 260.701 230.835 259.924 231.527 259.158C231.85 259.904 232.208 260.545 232.218 260.544C240.293 251.726 248.132 242.574 254.074 231.606C260.378 219.965 264.99 207.252 267.176 193.159C267.492 191.12 267.744 189.051 267.965 186.974C268.041 186.504 268.138 186.044 268.201 185.563C270.271 171.977 270.016 157.91 267.984 143.513C267.062 136.902 265.9 130.161 264.155 123.601ZM136.455 59.248C141.937 57.0793 147.563 55.2734 153.347 53.8971C154.613 53.6431 155.889 53.3883 157.167 53.19C169.995 51.1124 183.551 51.4711 196.959 55.3513C199.246 56.1639 201.519 57.0908 203.763 58.1104C196.418 55.5506 188.94 54.0086 181.549 53.4792C176.949 53.1582 172.415 53.1946 167.937 53.5437C156.994 53.7919 146.493 55.9089 136.455 59.248ZM99.0439 78.3198C95.5498 81.0745 92.3361 84.2838 89.2439 87.5631C84.8584 92.2082 80.6655 97.1218 76.625 102.205C79.4918 98.4107 82.43 94.6787 85.4706 91.0636C88.9665 86.8933 92.5887 82.8153 96.432 79.049C100.661 74.9026 105.146 71.4617 110.126 68.4362C115.448 65.1925 120.955 62.2292 126.648 59.6369C127.934 59.1096 129.22 58.5823 130.525 58.0988C137.976 55.2833 145.579 53.2829 153.558 52.0015C159.094 50.8705 164.79 50.4068 170.625 50.6007C163.759 50.9941 157.044 52.1009 150.504 53.7606C143.833 55.2604 137.337 57.3584 131.079 59.8915C123.427 62.9939 116.085 66.7863 109.017 71.045C105.451 73.1824 102.163 75.6272 99.0439 78.3198ZM57.832 123.133C56.4696 125.229 55.1215 127.346 53.7972 129.484C55.7411 126.145 57.7564 122.867 59.8265 119.62C68.3253 106.285 77.5316 93.497 87.7849 81.9435C89.7517 79.7229 91.7757 77.5433 93.864 75.4381C84.6068 85.2293 76.2201 96.155 68.5028 107.63C64.8252 112.686 61.2595 117.858 57.832 123.133ZM96.7077 89.2193C90.066 95.4501 84.1021 102.547 78.4075 109.861C73.5038 116.142 68.8334 122.654 64.3488 129.356C71.5307 118.057 79.2751 107.123 87.7523 97.0854C90.9216 93.5285 94.2054 90.0536 97.7197 86.9349C102.271 82.8888 107.38 79.7404 112.615 76.775C113.17 76.4613 113.739 76.1693 114.294 75.8557C109.69 78.5017 105.186 81.3893 101.202 84.9963C99.8899 86.1824 98.6041 87.4004 97.3445 88.6504C97.1315 88.8363 96.9184 89.0223 96.7077 89.2193ZM175.248 50.2065C164.816 49.4763 154.584 50.52 144.786 52.8785C147.156 52.2015 149.538 51.5801 151.961 51.0576C169.806 47.1408 189.393 47.6107 208.241 56.0627C210.823 57.2154 213.403 58.5381 215.956 59.9647C206.102 54.9445 195.739 51.8311 185.566 50.8549C182.962 50.6097 180.381 50.4761 177.81 50.4323C176.957 50.3494 176.105 50.2664 175.248 50.2065ZM186.65 45.8813C182.78 45.0183 178.923 44.4487 175.078 44.1161C181.395 44.3415 187.782 45.2185 194.171 46.9332C196.28 47.4988 198.384 48.178 200.492 48.9247C196.029 47.5516 191.564 46.5863 187.087 45.9729C186.939 45.9615 186.793 45.9158 186.65 45.8813ZM57.1624 116.979C56.6564 117.753 56.1526 118.538 55.6585 119.323C56.479 117.97 57.2901 116.618 58.1249 115.287C66.02 102.632 74.6322 90.5225 84.0248 79.351C86.198 76.7752 88.4045 74.2194 90.6896 71.7597C92.5431 69.9213 94.4656 68.1797 96.4878 66.589C90.2777 72.1984 84.7378 78.8216 79.4367 85.4721C72.8391 93.7491 66.6031 102.452 60.7864 111.485C60.6329 111.723 60.4722 111.973 60.3187 112.211C59.2658 113.797 58.201 115.372 57.1624 116.979ZM260.079 185.474C260.572 183.172 261.011 180.84 261.372 178.458C261.545 177.346 261.684 176.215 261.826 175.094C262.107 173.805 262.366 172.506 262.613 171.196C262.492 174.387 262.248 177.554 261.888 180.672C261.864 180.878 261.839 181.084 261.812 181.278C261.745 181.6 261.677 181.922 261.609 182.245C260.86 185.313 259.987 188.3 259.006 191.239C259.411 189.34 259.772 187.422 260.079 185.474ZM239.797 76.2043C238.02 74.0397 236.163 71.9603 234.254 69.9529C238.076 73.4353 241.735 77.2017 244.925 81.3206C245.99 82.6896 246.934 84.0791 247.833 85.4833C247.519 85.1447 247.152 84.7421 246.705 84.2323C245.31 82.6843 243.875 81.1733 242.415 79.6868C241.593 78.5033 240.725 77.3345 239.797 76.2043ZM245.015 86.3414C243.686 84.2788 242.107 82.2239 240.451 80.2653C241.865 81.8119 243.269 83.3591 244.683 84.9057C245.184 85.8077 245.666 86.7112 246.112 87.6287C245.807 87.2894 245.493 86.9507 245.179 86.6121C245.132 86.5251 245.072 86.4276 245.015 86.3414ZM138.454 47.6718C133.23 49.4475 128.124 51.5086 123.141 53.8322C119.072 55.6112 115.083 57.5427 111.183 59.6601C108.693 61.0142 106.242 62.4108 103.859 63.9041C104.948 63.0859 106.056 62.3116 107.187 61.5581C107.616 61.288 108.025 61.0194 108.465 60.7597C122.216 52.3959 137.194 45.9778 153.243 42.9326C155.754 42.46 158.293 42.076 160.861 41.7803C162.466 41.6592 164.078 41.5716 165.692 41.5404C157.916 42.3083 150.351 43.9434 143.017 46.2519C141.48 46.6962 139.958 47.1621 138.454 47.6718ZM259.234 134.945C259.235 134.537 259.236 134.129 259.238 133.721C259.734 136.073 260.176 138.44 260.568 140.8C260.577 141.898 260.564 142.986 260.544 144.086C260.216 141.291 259.816 138.479 259.354 135.649C259.314 135.414 259.274 135.179 259.234 134.945ZM254.758 101.312C254.99 101.951 255.215 102.602 255.428 103.243C255.464 103.365 255.501 103.498 255.537 103.62C255.109 102.973 254.674 102.337 254.22 101.704C253.996 100.735 253.762 99.7678 253.519 98.801C253.956 99.6286 254.367 100.47 254.758 101.312ZM258.035 115.445C258.031 115.378 258.014 115.3 258.01 115.232C258.029 115.321 258.036 115.4 258.054 115.489C258.05 115.467 258.038 115.457 258.035 115.445ZM256.173 111.272C256.164 111.227 256.155 111.182 256.145 111.138C256.159 111.205 256.181 111.26 256.195 111.327C256.202 111.315 256.188 111.293 256.173 111.272ZM256.07 105.776C256.084 105.843 256.089 105.911 256.103 105.978C256.205 107.012 256.307 108.046 256.419 109.079C256.073 108.222 255.719 107.377 255.34 106.545C255.288 106.39 255.236 106.236 255.181 106.07C255.004 105.234 254.828 104.398 254.639 103.552C255.127 104.296 255.602 105.03 256.07 105.776ZM257.191 117.604C257.236 117.77 257.269 117.926 257.314 118.093L257.476 119.689C257.378 118.994 257.289 118.299 257.191 117.604ZM252.189 93.885C252.156 93.7743 252.126 93.6747 252.092 93.5639C252.23 93.8933 252.384 94.21 252.515 94.5512C252.408 94.3215 252.303 94.1029 252.189 93.885ZM259.017 125.879C259.041 125.991 259.055 126.103 259.078 126.215C259.057 126.16 259.043 126.093 259.021 126.038C259.029 125.981 259.019 125.936 259.017 125.879ZM258.176 110.736C258.143 110.534 258.103 110.345 258.07 110.143C258.318 110.951 258.55 111.772 258.77 112.582C258.906 113.455 259.032 114.328 259.158 115.202C258.864 113.718 258.53 112.226 258.176 110.736ZM252.859 101.693C252.384 100.868 251.892 100.056 251.374 99.2573C251.84 99.8109 252.299 100.376 252.742 100.954C252.784 101.2 252.826 101.446 252.859 101.693ZM253.205 104.022C253.132 103.858 253.068 103.693 252.994 103.528C252.942 103.419 252.88 103.311 252.828 103.201C252.949 103.407 253.061 103.614 253.173 103.821C253.187 103.888 253.201 103.955 253.205 104.022ZM250.948 101.973C250.767 101.715 250.589 101.468 250.408 101.21C250.174 100.605 249.932 100.011 249.678 99.4078C250.056 100.002 250.415 100.598 250.766 101.205C250.83 101.461 250.894 101.717 250.948 101.973ZM259.189 129.954C259.187 129.717 259.183 129.468 259.172 129.231C259.519 130.507 259.874 131.771 260.192 133.049C260.269 133.598 260.344 134.136 260.419 134.674C260.455 135.487 260.493 136.31 260.519 137.124C260.101 134.732 259.674 132.341 259.189 129.954ZM261.679 139.765C261.889 140.802 262.077 141.83 262.267 142.869C262.353 144.379 262.42 145.892 262.457 147.395C262.403 146.776 262.369 146.156 262.316 145.537C262.136 143.626 261.922 141.694 261.679 139.765ZM261.422 135.561C261.414 134.837 261.4 134.124 261.383 133.401C261.56 134.837 261.716 136.263 261.862 137.69C261.866 137.758 261.871 137.826 261.878 137.904C261.739 137.201 261.612 136.509 261.473 135.806C261.467 135.727 261.441 135.65 261.422 135.561ZM262.836 141.931C262.859 142.088 262.882 142.245 262.903 142.39C262.905 142.628 262.897 142.866 262.889 143.105C262.874 142.71 262.861 142.326 262.836 141.931ZM260.692 122.277C260.588 121.232 260.483 120.186 260.36 119.143C260.715 120.826 261.042 122.511 261.35 124.197C261.139 123.568 260.917 122.928 260.692 122.277ZM256.732 101.65C257.111 103.354 257.467 105.082 257.796 106.824C257.571 106.218 257.353 105.6 257.109 104.996C256.713 103.078 256.28 101.163 255.793 99.2748C256.092 99.9543 256.379 100.623 256.661 101.316C256.675 101.428 256.699 101.539 256.732 101.65ZM251.865 90.4671C251.414 89.482 250.956 88.5088 250.446 87.5622C250.41 87.4403 250.387 87.3289 250.351 87.207C250.454 87.3238 250.558 87.4518 250.661 87.5686C251.19 88.6497 251.686 89.756 252.143 90.8651C252.058 90.7357 251.96 90.5959 251.865 90.4671ZM251.598 94.4845C250.787 93.2661 249.917 92.0862 248.887 90.8391C248.549 90.4343 248.194 90.0421 247.859 89.6484C247.484 88.7934 247.102 87.9504 246.691 87.1094C247.501 87.9996 248.319 88.8889 249.129 89.7791C249.963 91.0636 250.728 92.3874 251.45 93.737C251.494 93.9941 251.546 94.2393 251.598 94.4845ZM251.319 95.0037C251.509 95.3064 251.69 95.6099 251.871 95.9133C252.085 97.0182 252.28 98.1245 252.465 99.2315C251.599 97.3832 250.62 95.6 249.534 93.8589C249.236 93.0434 248.928 92.2287 248.603 91.4266C249.529 92.5911 250.439 93.7792 251.319 95.0037ZM251.603 98.3227C251.292 97.9499 250.978 97.566 250.656 97.1939C250.474 96.6075 250.282 96.0218 250.081 95.4369C250.618 96.3702 251.133 97.3391 251.603 98.3227ZM246.006 94.2949C246.166 94.5886 246.322 94.8712 246.472 95.1656C246.156 94.6799 245.83 94.195 245.497 93.7218C245.664 93.9131 245.84 94.1036 246.006 94.2949ZM235.564 84.1896C237.973 86.6349 240.305 89.1765 242.537 91.839C242.606 91.9357 242.685 92.0317 242.754 92.1284C242.13 91.4734 241.499 90.8303 240.859 90.1879C240.157 89.4369 239.454 88.6859 238.745 87.9468C236.519 85.6348 234.212 83.4423 231.84 81.3566C233.101 82.2693 234.337 83.2064 235.564 84.1896ZM263.42 146.167C263.434 146.325 263.45 146.493 263.473 146.65C263.459 146.538 263.434 146.415 263.42 146.303C263.42 146.258 263.42 146.213 263.42 146.167ZM258.61 106.909C258.914 108.121 259.202 109.345 259.478 110.558C259.34 110.274 259.193 109.991 259.055 109.707C258.917 108.777 258.769 107.849 258.61 106.909ZM210.095 50.782C214.757 52.9101 219.391 55.5046 223.851 58.5198C224.566 59.0547 225.288 59.5777 225.991 60.1475C226.977 60.911 227.939 61.699 228.904 62.4981C229.285 62.8317 229.683 63.1527 230.066 63.4975C233.16 66.2874 236.229 69.2378 239.075 72.4201C237.832 71.223 236.565 70.0503 235.289 68.9237C231.363 65.1774 227.182 61.7901 222.898 58.7389C219.827 56.5587 216.705 54.5975 213.52 52.8449C212.369 52.1278 211.234 51.4434 210.095 50.782ZM250.096 89.6268C250.305 90.1546 250.506 90.6943 250.707 91.2339C249.467 89.176 248.09 87.253 246.62 85.3937C247.805 86.7763 248.966 88.1834 250.096 89.6268ZM246.997 89.5209C247.161 89.8822 247.322 90.2324 247.467 90.5952C247.22 90.1156 246.954 89.6374 246.688 89.1593C246.79 89.2761 246.892 89.3929 246.997 89.5209ZM262.205 158.885C262.108 160.307 261.987 161.709 261.84 163.125C261.926 162.065 261.992 160.996 262.054 159.915C262.108 159.571 262.161 159.228 262.205 158.885ZM262.915 156.272C262.918 156.192 262.93 156.112 262.93 156.022C263.018 154.418 263.064 152.796 263.09 151.175C263.152 150.456 263.206 149.75 263.254 149.056C263.296 149.347 263.348 149.638 263.392 149.94C263.434 150.413 263.475 150.885 263.517 151.357C263.404 153.393 263.228 155.41 263.012 157.42C262.977 157.026 262.945 156.643 262.915 156.272ZM264.243 160.078C264.25 161.12 264.235 162.151 264.213 163.195C264.074 165.617 263.876 168.032 263.606 170.431C263.521 171.173 263.416 171.917 263.318 172.649C263.384 170.708 263.399 168.759 263.385 166.813C263.722 164.59 264.005 162.35 264.243 160.078ZM260.956 117.784C260.595 116.169 260.208 114.568 259.762 112.96C259.935 113.411 260.105 113.851 260.269 114.303C260.485 115.374 260.714 116.455 260.911 117.527C260.928 117.605 260.947 117.694 260.956 117.784ZM253.44 89.8387C253.431 89.7942 253.422 89.7496 253.4 89.6946C253.424 89.7607 253.448 89.8269 253.469 89.8819C253.457 89.8715 253.452 89.8492 253.44 89.8387ZM251.982 87.3897C251.78 87.0766 251.578 86.7634 251.378 86.4614C250.965 85.5641 250.543 84.6674 250.085 83.7848C250.589 84.5167 251.069 85.2732 251.522 86.0429C251.674 86.4844 251.828 86.9371 251.982 87.3897ZM231.503 70.8965C232.287 71.5734 233.063 72.2622 233.816 72.9754C234.399 73.6221 234.991 74.2682 235.572 74.9037C235.41 74.7348 235.236 74.5554 235.077 74.3976C233.889 73.185 232.682 72.0192 231.458 70.8659C231.479 70.8756 231.491 70.8861 231.503 70.8965ZM193.638 62.5545C191.659 62.2395 189.693 61.9802 187.73 61.7885C181.411 60.7253 175.187 60.3456 169.079 60.5574C174.634 60.1609 180.283 60.2556 185.971 60.9022C188.52 61.344 191.078 61.8757 193.638 62.5545ZM100.38 89.0555C102.003 87.7327 103.688 86.5186 105.413 85.358C103.484 86.7944 101.617 88.3394 99.8356 90.0138C95.8013 93.7944 91.9952 97.875 88.3248 102.138C92.1321 97.6042 96.0828 93.0598 100.38 89.0555ZM259.019 141.551C259.039 141.232 259.049 140.915 259.069 140.596C259.53 143.924 259.871 147.239 260.095 150.551C260.086 150.643 260.078 150.745 260.068 150.836C259.98 151.658 259.87 152.471 259.76 153.283C259.706 149.901 259.529 146.495 259.189 143.09C259.128 142.573 259.067 142.057 259.019 141.551ZM261.343 152.416C261.439 150.71 261.492 148.985 261.516 147.262C261.579 147.744 261.633 148.227 261.686 148.71C261.704 149.162 261.722 149.613 261.74 150.065C261.801 152.789 261.771 155.498 261.658 158.179C261.661 158.19 261.654 158.202 261.656 158.213C261.58 156.293 261.481 154.353 261.343 152.416ZM262.723 164.915C262.727 165.073 262.731 165.231 262.728 165.401C262.711 165.505 262.694 165.608 262.687 165.71C262.697 165.438 262.7 165.177 262.723 164.915ZM193.853 36.4263C192.059 35.9729 190.272 35.5982 188.484 35.2688C182.894 33.8448 177.328 33.0418 171.823 32.7551C180.698 32.9574 189.721 34.4621 198.689 37.6807C200.17 38.2144 201.644 38.8053 203.106 39.431C200.034 38.2133 196.938 37.2014 193.853 36.4263ZM61.2383 103.978C61.1423 104.121 61.0441 104.253 60.9386 104.396C61.1017 104.158 61.2647 103.919 61.435 103.668C61.3702 103.775 61.3054 103.882 61.2383 103.978ZM61.7851 103.166C62.5261 102.08 63.2647 100.982 64.0176 99.9065C63.267 100.994 62.5165 102.081 61.7851 103.166ZM216.263 57.0541C218.129 58.0796 219.986 59.1964 221.835 60.3704C221.928 60.4426 222.019 60.5038 222.112 60.576C227.581 64.8739 232.677 69.653 237.43 74.9221C235.339 73.019 233.214 71.1864 231.011 69.4842C229.527 68.3393 228.016 67.253 226.486 66.2134C225.876 65.7612 225.274 65.2971 224.656 64.8568C220.807 61.7049 216.807 58.8475 212.629 56.3432C209.706 54.5933 206.76 53.0492 203.782 51.6773C208.047 52.9408 212.208 54.7216 216.263 57.0541ZM177.803 51.0442C180.722 51.3562 183.643 51.8152 186.588 52.431C186.065 52.3458 185.54 52.2496 185.02 52.1756C179.664 51.402 174.362 51.1566 169.14 51.3355C171.994 51.1089 174.895 51.0145 177.803 51.0442ZM201.142 56.1341C195.683 53.9529 190.251 52.4037 184.788 51.4004C187.204 51.6258 189.631 51.9522 192.056 52.4034C198.552 53.3853 204.912 55.4646 211.127 58.6532C215.556 60.3233 219.826 62.5716 223.934 65.3869C224.508 65.7625 225.08 66.1723 225.647 66.5598C226.893 67.5869 228.112 68.6272 229.324 69.7247C230.868 71.7031 232.414 73.6926 233.949 75.6717C230.433 72.6304 226.781 69.9053 223.011 67.4948C216.265 62.8062 209.18 59.1285 201.922 56.4715C201.667 56.3662 201.409 56.2498 201.142 56.1341ZM214.146 62.4226C214.389 62.5628 214.623 62.7037 214.866 62.8439C214.05 62.4298 213.24 62.038 212.42 61.647C211.623 61.1862 210.803 60.7498 209.993 60.3127C211.397 60.9881 212.775 61.6768 214.146 62.4226ZM230.078 73.382C230.471 73.6807 230.847 73.992 231.24 74.2907C233.181 75.9447 235.086 77.7033 236.946 79.522C240.733 84.3998 244.527 89.2657 248.313 94.1435C248.411 94.3739 248.491 94.617 248.588 94.8474C247.627 93.7876 246.639 92.7411 245.644 91.7065C245.573 91.5987 245.52 91.4894 245.452 91.3926C243.635 88.6309 241.517 86.3222 239.349 83.9153C235.808 79.9702 234.437 78.3071 229.967 74.3754C226.952 71.7268 223.853 69.2769 220.687 67.0134C223.871 68.9019 227.016 71.0199 230.078 73.382ZM213.141 63.0419C216.457 64.9092 219.66 67.0682 222.74 69.5195C228.052 73.6254 233.007 78.2452 237.612 83.3669C232.663 78.5429 227.429 74.3065 221.987 70.686C210.903 62.6899 198.92 57.6039 186.831 55.1869C195.464 56.3134 204.105 58.764 212.479 62.6616C212.698 62.781 212.92 62.9114 213.141 63.0419ZM194.078 59.8602C190.021 58.9433 185.998 58.3637 181.99 58.0433C178.574 57.6329 175.182 57.4246 171.82 57.4065C175.332 57.3113 178.878 57.4175 182.501 57.8009C187.017 58.2754 191.563 59.1214 196.084 60.3543C195.412 60.2012 194.751 60.0133 194.078 59.8602ZM258.659 150.875C258.78 153.787 258.807 156.672 258.737 159.554C258.603 160.255 258.46 160.956 258.315 161.647C258.571 158.083 258.687 154.496 258.659 150.875ZM251.275 191.992C250.888 192.78 250.499 193.557 250.096 194.312C250.329 193.808 250.574 193.314 250.807 192.809C251.112 192.141 251.394 191.451 251.687 190.772C251.552 191.19 251.415 191.597 251.275 191.992ZM255.313 181.293C255.581 180.491 255.829 179.691 256.075 178.88C255.793 179.841 255.513 180.813 255.209 181.765C255.243 181.604 255.267 181.443 255.313 181.293ZM261.112 165.376C261.131 165.284 261.148 165.181 261.17 165.1C261.172 165.292 261.162 165.474 261.154 165.667C261.058 166.637 260.96 167.596 260.854 168.566C260.916 167.667 260.962 166.78 261.013 165.871C261.044 165.698 261.078 165.537 261.112 165.376ZM265.836 163.208C265.839 163.174 265.841 163.14 265.844 163.105C265.887 165.288 265.872 167.463 265.815 169.63C265.769 168.173 265.711 166.705 265.625 165.239C265.694 164.555 265.787 163.891 265.836 163.208ZM94.1463 76.8662C98.0719 72.7087 102.269 68.6893 106.918 65.519C112.787 61.5093 119.115 58.1105 125.52 55.0794C127.505 54.1371 129.527 53.2371 131.559 52.3817C138.577 49.814 145.827 47.8403 153.283 46.655C158.287 45.8585 163.415 45.415 168.598 45.4202C155.389 46.3375 142.8 49.9597 130.921 54.9663C122.731 58.4151 114.679 62.6574 107.329 67.696C105.609 68.8789 103.951 70.1704 102.354 71.5251C99.0503 73.7106 95.8987 76.1112 92.9441 78.8932C90.9041 80.8136 88.9308 82.8195 87.0002 84.8902C89.3196 82.1334 91.696 79.463 94.1463 76.8662ZM125.852 58.3948C139.181 52.169 153.354 47.6801 168.504 46.6729C174.293 46.2815 180.169 46.393 186.093 47.1463C192.003 48.3423 197.924 50.1829 203.757 52.8002C207.253 54.3708 210.685 56.1954 214.039 58.241C206.017 53.9885 197.394 50.9363 189.042 49.5282C171.885 46.6443 155.456 48.8123 139.969 53.7854C136.451 54.9114 132.981 56.2151 129.569 57.6614C123.5 60.033 117.601 62.754 111.881 65.8579C111.663 65.9763 111.455 66.0939 111.247 66.2115C115.938 63.2872 120.888 60.7169 125.852 58.3948ZM105.949 70.2121C106.533 69.851 107.119 69.501 107.705 69.1511C105.363 70.6526 103.083 72.2627 100.94 74.0663C99.5401 75.2476 98.1802 76.4826 96.8489 77.7607C98.882 75.7163 100.987 73.7797 103.174 71.9614C104.088 71.3716 105.011 70.7811 105.949 70.2121ZM168.158 54.7726C169.607 54.7426 171.064 54.7459 172.532 54.805C176.753 54.9395 181.002 55.3889 185.269 56.154C186.612 56.4037 187.963 56.6868 189.311 57.004C188.118 56.777 186.92 56.573 185.726 56.3912C169.275 53.9976 153.387 56.4759 138.629 61.4959C148.054 58.0106 157.919 55.6017 168.158 54.7726ZM114.369 87.649C115.943 86.6923 117.534 85.7684 119.148 84.8653C130.824 78.3 143.348 73.0861 156.613 70.2283C169.467 67.4467 183.198 66.8863 196.959 70.0039C197.71 70.2076 198.457 70.4343 199.203 70.6611C180.442 66.1997 162.35 68.2102 145.403 73.5765C141.746 74.7356 138.161 76.0932 134.634 77.5935C127.621 80.3647 120.856 83.8079 114.369 87.649ZM256.422 168.719C256.395 169.005 256.37 169.301 256.343 169.586C256.278 169.829 256.213 170.071 256.138 170.315C256.24 169.786 256.33 169.247 256.422 168.719ZM258.557 172.805C259.297 169.42 259.926 165.964 260.404 162.44C260.382 163.574 260.347 164.698 260.294 165.823C259.776 168.24 259.193 170.628 258.525 172.977C258.535 172.931 258.54 172.863 258.557 172.805ZM260.023 170.237C259.862 172.412 259.638 174.569 259.371 176.706C258.29 180.638 257.004 184.472 255.555 188.182C256.314 185.203 256.975 182.175 257.545 179.086C258.468 176.197 259.3 173.247 260.023 170.237ZM259.551 180.543C259.646 179.935 259.722 179.33 259.807 178.723C259.824 178.665 259.831 178.608 259.851 178.561C260.102 177.455 260.342 176.339 260.56 175.213C260.62 174.993 260.671 174.774 260.731 174.554C260.635 175.705 260.505 176.836 260.375 177.967C260.153 178.889 259.928 179.801 259.682 180.703C259.569 181.085 259.446 181.468 259.332 181.85C259.393 181.404 259.488 180.978 259.551 180.543ZM259.418 184.505C258.256 189.801 256.746 194.92 254.917 199.859C256.155 196.12 257.208 192.281 258.079 188.32C258.555 187.084 258.984 185.896 259.418 184.505ZM254.319 207.593C255.818 204.445 257.179 201.195 258.407 197.863C257.108 201.868 255.609 205.752 253.898 209.504C253.295 210.829 252.663 212.111 252.022 213.394C252.829 211.476 253.606 209.549 254.319 207.593ZM267.038 178.449C266.964 179.112 266.869 179.764 266.784 180.416C267.408 172.669 267.377 164.756 266.727 156.766C267.323 163.356 267.521 169.898 267.242 176.339C267.176 177.035 267.121 177.741 267.038 178.449ZM54.4897 131.889C58.1188 125.456 62.0076 119.24 66.0415 113.161C67.6172 110.789 69.2263 108.436 70.8472 106.095C74.2344 101.548 77.7239 97.1173 81.3157 92.8038C85.7822 87.4392 90.4559 82.2289 95.598 77.6739C96.0792 77.2412 96.5866 76.8406 97.0844 76.4407C96.1552 77.3714 95.2499 78.3229 94.3469 79.2856C82.342 92.1489 71.6333 106.737 62.035 122.08C59.8835 125.402 57.7939 128.787 55.7614 132.212C55.7326 132.26 55.6966 132.319 55.6679 132.367C52.1699 138.043 48.6955 143.831 45.5666 149.876C48.1375 143.579 51.235 137.661 54.4897 131.889ZM58.4526 129.699C55.9121 133.752 53.3976 137.883 51.0165 142.139C52.6688 138.889 54.4259 135.722 56.2545 132.617C56.4128 132.356 56.5712 132.095 56.7295 131.834C62.0912 123.265 67.7819 114.875 73.8557 106.921C68.4475 114.259 63.3392 121.914 58.4526 129.699ZM109.056 71.7781C112.206 69.8306 115.473 68.0668 118.734 66.3713C118.962 66.2522 119.201 66.1436 119.428 66.0246C118.259 66.645 117.094 67.2877 115.946 67.9632C113.619 69.1691 111.328 70.4517 109.056 71.7781ZM103.063 78.2317C107.587 74.2442 112.673 70.9843 117.901 68.0761C118.817 67.6333 119.723 67.1913 120.643 66.7708C125.82 64.3534 131.103 62.1656 136.557 60.3727C139.377 59.4352 142.24 58.6078 145.136 57.891C141.305 59.052 137.541 60.3891 133.857 61.8786C126.203 64.9699 118.837 68.6962 111.786 72.9876C106.103 76.451 101.088 80.5095 96.3418 85.3743C96.2795 85.447 96.2148 85.5084 96.143 85.5818C96.0616 85.6559 95.9802 85.73 95.9012 85.8152C93.7556 87.9247 91.6766 90.1198 89.6262 92.358C93.8504 87.3627 98.2342 82.4799 103.063 78.2317ZM44.1966 164.292C44.1531 164.454 44.1073 164.605 44.0639 164.767C43.8115 165.318 43.5879 165.867 43.3523 166.406C43.629 165.694 43.908 164.994 44.1966 164.292ZM226.732 85.7052C229.139 87.2674 231.508 88.9231 233.797 90.7093C234.447 91.2151 235.083 91.7446 235.719 92.2741C239.624 95.8295 243.531 99.7131 246.916 104.021C246.671 103.734 246.428 103.458 246.174 103.171C240.207 96.5215 233.666 90.64 226.732 85.7052ZM249.625 200.949C248.266 203.43 246.817 205.804 245.297 208.115C247.03 204.746 248.619 201.286 250.052 197.735C251.061 195.621 252.004 193.466 252.879 191.271C253.889 189.021 254.82 186.72 255.693 184.378C255.352 185.887 254.997 187.375 254.598 188.843C254.082 190.716 253.518 192.548 252.92 194.359C251.892 196.611 250.794 198.811 249.625 200.949ZM253.679 194.733C255.222 191.242 256.636 187.647 257.908 183.973C257.213 186.426 256.461 188.838 255.63 191.2C253.762 196.323 251.592 201.208 249.143 205.877C249.784 204.413 250.41 202.917 251.057 201.339C252.1 198.747 252.848 197.003 253.537 195.072C253.578 194.944 253.633 194.838 253.679 194.733ZM247.24 211.479C243.394 218.404 238.914 224.619 234.08 230.499C235.209 229.043 236.314 227.567 237.391 226.048C239.565 222.974 241.619 219.829 243.579 216.567C244.809 214.719 245.978 212.808 247.106 210.843C248.123 209.227 249.116 207.589 250.083 205.92C250.182 205.742 250.28 205.565 250.378 205.388C249.37 207.457 248.334 209.494 247.24 211.479ZM251.024 224.476C257.302 212.803 261.877 200.047 264.019 185.935C264.19 184.858 264.327 183.761 264.466 182.674C264.105 186.71 263.561 190.703 262.828 194.631C261.083 202.123 258.597 209.286 255.562 215.958C253.351 220.745 250.879 225.302 248.161 229.663C247.554 230.558 246.938 231.453 246.307 232.328C247.979 229.812 249.562 227.202 251.024 224.476ZM267.645 154.771C267.209 150.966 266.636 147.148 265.947 143.338C265.74 140.059 265.422 136.765 265.005 133.456C265.429 135.972 265.818 138.502 266.193 141.01C266.905 145.621 267.379 150.206 267.645 154.771Z" fill="#FDC6DF"/><path d="M223.396 250.498C224.182 249.566 224.954 248.612 225.687 247.606C225.856 247.415 225.227 246.278 224.929 246.491C223.2 247.606 221.525 248.796 219.905 250.071C220.51 249.365 221.103 248.649 221.685 247.923C221.899 247.672 221.493 246.004 221.041 246.351C214.71 251.239 208.92 256.845 202.326 261.338C202.746 261.027 203.167 260.715 203.576 260.393C205.285 259 207.003 257.606 208.712 256.212C209.687 255.411 210.635 254.568 211.561 253.714C211.796 253.518 212.04 253.32 212.278 253.134C215.679 250.405 218.751 247.286 221.508 243.756C221.715 243.517 221.237 242.1 220.807 242.457C214.227 248.067 207.99 254.088 200.774 258.752C198.886 259.969 196.96 261.1 194.985 262.133C197.721 260.46 200.365 258.615 202.83 256.695C204.539 255.301 206.257 253.907 207.966 252.513C211.339 249.696 214.49 246.594 217.399 243.198C217.46 243.126 217.496 242.978 217.508 242.809C217.81 242.473 218.118 242.126 218.417 241.779C219.504 240.645 220.565 239.48 221.584 238.251C221.838 237.963 221.299 237.345 221.028 237.6C214.586 243.502 208.262 249.517 200.99 254.231C195.587 257.728 189.694 260.704 183.514 262.584C182.135 263.002 180.741 263.354 179.332 263.674C182.053 262.751 184.708 261.643 187.295 260.395C189.155 259.493 190.949 258.507 192.71 257.456C193.215 257.227 193.726 256.987 194.217 256.737C204.878 251.553 213.975 243.861 222.289 235.112C222.585 234.799 222.029 234.282 221.768 234.537C215.353 240.615 208.952 246.67 201.614 251.433C201.379 251.585 201.135 251.738 200.89 251.891C206.121 247.892 211.003 243.362 215.738 238.585C215.761 238.561 215.773 238.527 215.797 238.502C216.733 237.604 217.666 236.694 218.588 235.774C218.802 235.568 218.236 235.455 218.125 235.564C217.346 236.35 216.561 237.148 215.771 237.923C215.691 237.817 215.588 237.781 215.461 237.902C211.127 242.179 206.65 246.321 201.902 250.036C199.026 252.134 196.031 254.028 192.888 255.62C188.959 257.284 185.032 258.958 181.103 260.622C181.03 260.639 180.957 260.655 180.887 260.683C176.364 261.788 171.673 262.314 166.822 262.215C166.623 262.219 166.419 262.201 166.218 262.194C172.969 261.589 179.294 259.72 185.238 256.986C188.143 255.893 190.988 254.647 193.675 253.146C203.23 247.822 211.395 240.683 219.234 232.808C219.446 232.59 219.009 232.143 218.875 232.276C211.671 239.454 203.948 246.248 195.319 251.31C196.959 250.224 198.566 249.073 200.143 247.868C207.712 243.021 214.42 236.752 220.825 230.261C221.117 229.97 220.93 229.213 220.572 229.554C217.489 232.617 214.331 235.596 211.051 238.406C212.342 237.156 213.61 235.886 214.848 234.607C215.09 234.354 214.585 233.9 214.331 234.143C210.38 238.022 206.394 241.824 202.168 245.299C196.449 249.245 190.307 252.486 183.576 254.554C178.304 256.174 172.866 257.003 167.329 256.945C168.543 256.785 169.755 256.614 170.928 256.391C175.511 255.527 179.87 254.054 184.062 252.191C184.407 252.065 184.738 251.916 185.081 251.778C188.383 250.621 191.582 249.203 194.7 247.579C204.458 242.498 212.876 234.836 220.515 226.685C220.733 226.456 220.785 225.2 220.357 225.613C218.96 226.949 217.551 228.275 216.143 229.601C216.698 228.977 217.253 228.354 217.795 227.709C217.957 227.529 217.729 226.35 217.377 226.668C215.992 227.925 214.619 229.192 213.236 230.46C213.601 230.018 213.977 229.587 214.331 229.136C214.354 229.112 214.357 229.078 214.371 229.054C216.255 227.178 218.048 225.186 219.724 223.046C219.931 222.806 219.924 221.41 219.431 221.872C218.8 222.457 218.168 223.03 217.547 223.614C217.485 223.228 217.343 222.914 217.143 223.097C213.864 226.042 210.623 229.039 207.295 231.886C208.517 230.719 209.687 229.479 210.781 228.155C213.333 225.78 215.643 223.122 217.7 220.16C217.888 219.922 217.801 218.274 217.389 218.63C216.512 219.401 215.635 220.172 214.77 220.954C214.661 220.794 214.53 220.715 214.4 220.825C212.134 222.742 209.894 224.69 207.66 226.627C208.218 226.104 208.773 225.569 209.339 225.045C210.919 223.17 212.409 221.19 213.802 219.105C213.927 218.928 213.786 218.212 213.549 217.85C214.187 216.941 214.802 216.011 215.387 215.027C215.535 214.826 215.267 213.818 214.91 214.113C209.971 218.235 205.333 222.881 200.163 226.674C198.255 228.071 196.312 229.393 194.327 230.651C197.429 228.492 200.407 226.107 203.136 223.63L208.009 219.01C209.862 217.259 211.33 215.08 212.424 212.481C212.636 212.174 212.06 212.151 211.928 212.251C206.95 216.319 202.326 220.942 197.166 224.734C193.648 227.316 190.005 229.707 186.196 231.808C176.768 237.01 165.717 239.966 154.387 238.953C146.737 238.273 139.012 235.867 131.727 231.74C130.296 230.821 128.856 229.902 127.425 228.983C123.503 226.086 119.353 221.92 116.338 217.757C116.365 216.66 116.414 215.572 116.493 214.493C116.824 212.936 117.186 211.388 117.625 209.89C118.603 206.507 119.835 203.339 121.343 200.307C123.933 195.068 127.423 190.577 131.199 186.499C131.688 185.97 130.14 183.037 130.1 183.073C129.451 183.749 128.809 184.412 128.176 185.075C128.148 184.988 128.12 184.901 128.092 184.814C128.634 184.169 129.187 183.534 129.759 182.898C129.897 182.742 129.878 182.419 129.797 182.079C130.519 181.208 131.263 180.346 132.028 179.494C132.437 179.038 130.612 176.283 130.457 176.451C129.553 177.414 128.671 178.387 127.81 179.369C127.708 178.293 127.124 176.415 126.875 176.68C126.456 177.136 126.035 177.582 125.619 178.05C126.252 177.297 126.897 176.555 127.562 175.822C127.84 175.511 127.069 172.786 126.688 173.195C125.841 174.109 125.006 175.034 124.192 175.968C124.141 175.771 124.069 175.653 123.921 175.81C122.631 177.205 121.372 178.609 120.172 180.064C122.374 176.431 124.929 173.117 127.745 170.007C127.924 169.815 127.162 168.453 126.92 168.707C126.236 169.441 125.574 170.195 124.932 170.949C124.904 170.906 124.88 170.885 124.843 170.888C125.978 169.438 127.171 168.039 128.406 166.659C128.745 166.276 127.803 165.733 127.584 165.962C124.309 169.476 121.247 173.052 118.892 177.501C118.597 178.049 118.326 178.618 118.042 179.176C118.021 179.211 117.998 179.235 117.977 179.27C116.05 181.943 114.355 184.811 112.879 187.953C113.317 185.952 113.84 183.99 114.479 182.086C114.586 181.776 114.706 181.487 114.813 181.177C117.323 175.967 120.765 171.613 124.501 167.572C124.75 167.307 124.491 166.478 124.194 166.791C123.505 167.548 122.818 168.315 122.15 169.082C121.968 168.805 121.794 168.975 121.639 169.143C120.636 170.226 119.685 171.327 118.758 172.448C118.93 172.133 119.103 171.818 119.286 171.513C121.061 168.885 123.059 166.464 125.272 164.249C125.404 164.105 125.042 163.876 124.875 163.855C125.494 163.171 126.134 162.496 126.79 161.853C127.091 161.517 127.064 160.525 126.589 161.03C123.601 164.276 120.929 167.666 118.637 171.507C117.784 172.757 116.959 174.05 116.188 175.416C115.931 175.872 115.676 176.338 115.433 176.815C114.776 177.771 114.133 178.748 113.527 179.766C114.7 176.044 116.273 172.638 118.166 169.486C119.136 168.295 120.139 167.123 121.195 165.98C121.459 165.692 121.103 165.585 120.73 165.58C122.492 163.12 124.418 160.805 126.474 158.569C126.707 158.316 126.951 156.297 126.398 156.887C123.191 160.362 120.183 163.922 117.861 168.302C116.595 169.807 115.394 171.352 114.275 172.969C116.864 167.909 120.154 163.645 123.859 159.596C124.052 159.38 123.762 158.083 123.439 157.906C124.147 157.059 124.879 156.231 125.623 155.415C125.933 155.078 125.904 154.074 125.887 153.584C125.889 153.595 125.877 152.489 125.55 152.838C124.865 153.572 124.204 154.327 123.552 155.081C123.402 154.5 123.186 154.013 123.016 154.205C120.612 156.781 118.343 159.413 116.387 162.401C118.572 158.915 121.105 155.771 123.863 152.743C124.235 152.335 123.623 149.229 123.328 149.554C122.442 150.504 121.576 151.465 120.733 152.446C120.573 152.134 120.423 151.877 120.342 151.76C120.409 151.442 120.235 150.885 119.998 150.3C120.626 149.57 121.266 148.85 121.913 148.119C122.222 147.771 121.734 145.897 121.639 145.446C121.612 145.314 121.466 144.163 121.115 144.536C117.81 148.086 114.694 151.677 112.292 156.175C111.676 157.328 111.103 158.501 110.555 159.705C109.278 162.027 108.149 164.461 107.168 167.006C105.505 171.347 104.302 176.022 103.694 180.897L103.909 177.192C104.272 174.515 104.849 171.945 105.647 169.48C106.625 166.097 107.857 162.929 109.366 159.897C112.038 154.506 115.285 150.358 119.172 145.948C119.481 145.6 119.083 144.613 118.963 144.175C118.977 144.241 118.457 142.258 118.238 142.487C115.584 145.327 114.136 146.645 111.93 149.988C109.644 153.448 107.693 157.141 106.136 161.172C103.352 168.348 101.814 176.379 102.123 184.817C102.192 186.734 102.377 188.71 102.648 190.69C102.495 193.552 102.529 196.444 102.798 199.364C103.095 202.605 103.702 205.912 104.588 209.186C104.829 213.158 105.59 217.158 106.764 221.081C107.089 222.632 107.482 224.19 107.95 225.741C108.341 227.019 108.787 228.282 109.265 229.519C110.384 234.956 112.228 240.303 114.941 245.249C115.062 245.508 115.19 245.756 115.32 246.014C117.499 252.007 120.79 257.668 124.761 262.53C135.812 276.038 152.264 283.814 166.882 284.152C174.549 284.327 181.763 282.837 188.574 280.239C192.21 279.045 195.741 277.523 199.152 275.754C204.876 272.791 210.337 268.752 215.246 264.488C216.89 263.01 218.535 261.543 220.179 260.065C221.788 258.288 223.335 256.438 224.82 254.525C225.058 254.249 224.527 253.988 224.341 254.103C223.557 254.453 222.811 254.846 222.08 255.27C221.954 255.168 221.72 255.141 221.609 255.206C220.224 255.915 218.907 256.72 217.624 257.6C219.686 255.621 221.616 253.461 223.368 251.092C223.464 251.006 223.458 250.75 223.396 250.498ZM201.356 270.22C197.739 272.508 193.944 274.542 189.994 276.196C182.579 278.952 174.526 280.305 166.303 279.569C162.585 279.238 158.741 278.581 155.015 277.345C155.116 277.371 155.214 277.386 155.305 277.412C158.079 278.24 160.861 278.833 163.597 279.16C173.654 280.371 183.075 278.546 191.925 274.998C195.335 273.631 198.714 271.842 201.932 269.83C201.739 269.956 201.549 270.094 201.356 270.22ZM110.068 186.726C109.702 187.614 109.354 188.502 109.032 189.42C109.028 189.264 109.012 189.098 109.008 188.942C109.197 187.753 109.448 186.583 109.78 185.44C110.051 184.279 110.376 183.148 110.713 182.027C110.477 183.263 110.294 184.529 110.158 185.791C110.12 186.107 110.1 186.421 110.068 186.726ZM107.232 218.217C107.32 218.457 107.417 218.695 107.508 218.945C107.551 219.467 107.614 219.999 107.666 220.52C107.496 219.751 107.353 218.979 107.232 218.217ZM110.42 179.534C110.352 179.662 110.295 179.801 110.236 179.928C110.931 177.472 111.788 175.104 112.792 172.803C113.551 171.057 114.398 169.416 115.309 167.849C114.777 168.996 114.26 170.165 113.791 171.385C112.597 173.779 111.536 176.263 110.636 178.88C110.548 179.099 110.489 179.316 110.42 179.534ZM124.48 248.814C124.237 248.564 123.988 248.326 123.742 248.065C123.294 247.518 122.856 246.97 122.422 246.4C122.824 246.771 123.232 247.132 123.632 247.492C123.907 247.941 124.198 248.377 124.48 248.814ZM106.081 189.612C106.58 186.902 107.237 184.259 108.094 181.712C108.146 181.552 108.21 181.402 108.272 181.24C108.079 182.731 107.94 184.25 107.831 185.779C107.19 187.627 106.625 189.526 106.166 191.472C106.13 190.938 106.094 190.405 106.071 189.881C106.071 189.792 106.081 189.701 106.081 189.612ZM110.356 225.356C110.628 225.883 110.91 226.409 111.189 226.925C111.365 227.537 111.553 228.16 111.747 228.771C111.826 229.738 111.914 230.703 112.041 231.677C112.044 231.688 112.048 231.71 112.051 231.721C111.657 230.98 111.271 230.227 110.913 229.472C110.662 228.094 110.48 226.722 110.356 225.356ZM106.469 195.015C106.761 193.316 107.137 191.655 107.577 190.023C107.495 191.315 107.443 192.615 107.432 193.924C107.428 194.181 107.442 194.426 107.438 194.684C107.236 195.493 107.053 196.3 106.881 197.118C106.736 196.425 106.598 195.72 106.469 195.015ZM107.661 199.842C107.663 199.942 107.667 200.054 107.669 200.154C107.667 200.188 107.674 200.221 107.671 200.255C107.542 199.818 107.428 199.368 107.318 198.929C107.38 198.545 107.452 198.159 107.523 197.773C107.563 198.463 107.603 199.153 107.661 199.842ZM108.757 218.951C108.731 218.327 108.724 217.701 108.717 217.076C108.807 216.141 108.895 215.196 108.985 214.261C109.017 214.504 109.056 214.736 109.097 214.979C109.178 216.046 109.277 217.111 109.416 218.185C109.406 218.912 109.427 219.648 109.448 220.384C109.206 219.911 108.973 219.437 108.757 218.951ZM114.026 233.057C113.783 232.215 113.561 231.382 113.365 230.537C113.507 230.761 113.668 230.983 113.817 231.195C114.001 232.12 114.214 233.043 114.438 233.976C114.298 233.674 114.156 233.36 114.026 233.057ZM110.948 211.853C110.945 211.976 110.952 212.099 110.956 212.21C110.926 212.157 110.884 212.093 110.844 212.04C110.861 211.938 110.88 211.847 110.897 211.745C110.923 211.777 110.929 211.81 110.948 211.853ZM111.024 215.491C110.959 215.317 110.892 215.133 110.827 214.959C110.799 214.827 110.771 214.695 110.753 214.562C110.844 214.812 110.922 215.052 111.011 215.291C111.015 215.358 111.02 215.425 111.024 215.491ZM109.584 213.164C109.598 213.23 109.612 213.296 109.633 213.351C109.616 213.318 109.602 213.297 109.586 213.265C109.588 213.231 109.591 213.197 109.584 213.164ZM110.088 209.929C110.074 209.863 110.053 209.809 110.039 209.743C110.058 209.786 110.079 209.84 110.097 209.884C110.093 209.906 110.086 209.918 110.088 209.929ZM112.593 222.984C112.598 222.916 112.603 222.849 112.608 222.781C112.636 222.869 112.663 222.956 112.701 223.042C112.73 223.364 112.759 223.686 112.788 224.008C112.715 223.656 112.646 223.326 112.593 222.984ZM110.261 217.17C110.545 217.797 110.845 218.411 111.154 219.025C111.204 220.217 111.291 221.406 111.418 222.604C110.952 221.063 110.548 219.496 110.218 217.922C110.224 217.676 110.248 217.428 110.261 217.17ZM110.743 206.325C110.717 206.427 110.691 206.53 110.674 206.632C110.468 205.966 110.273 205.31 110.107 204.652C110.136 204.471 110.155 204.29 110.182 204.098C110.21 203.962 110.241 203.837 110.279 203.7C110.407 204.584 110.57 205.455 110.743 206.325ZM110.443 221.315C110.619 221.972 110.804 222.628 111.005 223.272C110.915 223.112 110.824 222.951 110.733 222.79C110.629 222.295 110.528 221.811 110.443 221.315ZM111.581 225.386C111.585 225.542 111.601 225.708 111.605 225.865C111.552 225.79 111.486 225.706 111.433 225.632C111.349 225.325 111.259 225.03 111.176 224.724C111.309 224.948 111.441 225.173 111.581 225.386ZM113.688 233.988C113.789 234.338 113.898 234.676 114 235.026C113.627 234.429 113.255 233.831 112.908 233.221C112.832 232.679 112.773 232.124 112.717 231.581C113.018 232.385 113.339 233.188 113.688 233.988ZM115.429 239.075C114.732 238.022 114.085 236.931 113.461 235.816C113.98 236.615 114.526 237.401 115.088 238.174C115.199 238.478 115.311 238.783 115.429 239.075ZM117.73 241.784C118.406 242.872 119.133 243.935 119.887 244.984C119.207 244.197 118.55 243.375 117.908 242.541C117.855 242.288 117.793 242.036 117.73 241.784ZM115.683 231.232C115.904 231.517 116.135 231.801 116.364 232.074C116.436 232.236 116.515 232.387 116.587 232.549C116.284 232.147 115.99 231.745 115.689 231.354C115.687 231.298 115.68 231.265 115.683 231.232ZM107.914 203.69C107.946 203.978 107.957 204.257 107.998 204.544C107.907 205.155 107.825 205.765 107.752 206.374C107.376 205.576 107.022 204.753 106.69 203.94C106.786 202.759 106.903 201.588 107.059 200.424C107.315 201.512 107.602 202.607 107.914 203.69ZM109.495 221.7C109.513 221.967 109.537 222.222 109.553 222.478C109.311 221.96 109.086 221.429 108.86 220.899C108.842 220.721 108.836 220.554 108.827 220.376C109.046 220.829 109.271 221.27 109.495 221.7ZM110.184 222.989C110.202 223.032 110.228 223.063 110.247 223.107C110.341 223.558 110.445 224.008 110.549 224.459C110.511 224.417 110.481 224.363 110.444 224.321C110.379 224.192 110.311 224.052 110.244 223.912C110.228 223.611 110.201 223.3 110.184 222.989ZM132.969 259.187C129.873 257.098 126.918 254.675 124.195 251.954C123.52 251.145 122.872 250.322 122.256 249.475C123.928 251.136 125.676 252.657 127.487 254.072C129.105 255.748 130.782 257.297 132.53 258.729C132.675 258.874 132.812 259.031 132.969 259.187ZM119.061 238.541C118.509 237.723 117.964 236.892 117.456 236.059C117.824 236.501 118.209 236.93 118.585 237.359C118.746 237.76 118.903 238.151 119.061 238.541ZM115.58 228.512L115.541 227.554C115.585 227.629 115.641 227.714 115.686 227.789C115.815 228.36 115.946 228.942 116.094 229.512C115.92 229.179 115.745 228.846 115.58 228.512ZM111.594 199.195C111.712 198.851 111.844 198.528 111.963 198.184C111.807 199.078 111.682 199.982 111.576 200.885C111.573 200.326 111.578 199.756 111.594 199.195ZM106.239 196.463C106.361 197.136 106.483 197.808 106.623 198.479C106.441 199.477 106.281 200.484 106.141 201.501C106.034 200.76 105.952 200.006 105.889 199.251C105.989 198.315 106.097 197.379 106.239 196.463ZM105.755 205.207C105.686 206.107 105.646 207.004 105.614 207.901C105.576 206.943 105.548 205.995 105.559 205.044C105.562 204.876 105.567 204.719 105.57 204.551C105.635 204.77 105.7 204.988 105.755 205.207ZM107.406 210.134C107.403 210.212 107.394 210.302 107.391 210.381C107.298 212.031 107.283 213.687 107.315 215.338C107.271 215.219 107.229 215.11 107.185 214.991C106.983 214.391 106.809 213.79 106.626 213.189C106.49 211.31 106.45 209.436 106.499 207.576C106.784 208.438 107.086 209.286 107.406 210.134ZM109.009 222.609C109.22 223.073 109.43 223.527 109.658 223.979C109.754 225.123 109.863 226.277 110.006 227.417C109.857 227.071 109.702 226.736 109.553 226.39C109.516 226.259 109.49 226.138 109.463 226.006C109.284 224.879 109.131 223.74 109.009 222.609ZM162.021 271.68C163.839 271.943 165.638 272.074 167.438 272.116C165.523 272.206 163.587 272.197 161.645 272.066C160.207 271.796 158.767 271.47 157.332 271.076C158.213 271.188 159.098 271.277 159.979 271.344C160.661 271.459 161.342 271.575 162.021 271.68ZM119.955 242.81C118.601 240.667 117.41 238.433 116.401 236.117C116.306 235.711 116.214 235.316 116.119 234.909C117.328 236.997 118.664 239.007 120.124 240.93C120.749 242.28 121.417 243.604 122.137 244.901C121.377 244.233 120.651 243.539 119.955 242.81ZM119.925 238.799C120.012 238.893 120.107 238.987 120.191 239.07C121.977 241.862 123.997 244.502 126.24 246.936C126.301 246.998 126.35 247.05 126.41 247.113C124.409 245.242 122.532 243.195 120.838 240.976C120.518 240.263 120.202 239.527 119.925 238.799ZM122.525 239.976C122.938 240.447 123.344 240.931 123.773 241.39C124.117 241.755 124.476 242.107 124.827 242.461C124.413 242.123 124.006 241.774 123.598 241.414C123.241 240.938 122.882 240.452 122.525 239.976ZM124.064 240.82C122.731 239.412 121.496 237.886 120.326 236.299C120.79 236.744 121.255 237.189 121.727 237.622C122.536 238.801 123.392 239.932 124.281 241.038C124.206 240.954 124.136 240.892 124.064 240.82ZM117.919 232.402C117.773 231.799 117.637 231.194 117.511 230.589C117.62 230.749 117.73 230.908 117.849 231.066C118.058 231.475 118.249 231.885 118.465 232.282C118.763 232.841 119.094 233.375 119.409 233.921C118.904 233.423 118.407 232.913 117.919 232.402ZM134.691 244.849C132.897 243.879 131.188 242.724 129.531 241.453C127.971 240.007 126.479 238.478 125.072 236.853C125.457 237.192 125.857 237.508 126.249 237.836C128.102 239.494 130.03 241.013 131.996 242.394C133.608 243.679 135.277 244.871 136.975 245.971C136.259 245.646 135.54 245.309 134.827 244.95C134.79 244.908 134.736 244.879 134.691 244.849ZM153.43 244.302C152.676 244.203 151.926 244.081 151.174 243.948C147.669 243.042 144.175 241.778 140.731 240.118C145.582 242.218 150.59 243.658 155.597 244.416C156.169 244.506 156.736 244.575 157.3 244.632C156.021 244.573 154.732 244.47 153.43 244.302ZM109.876 173.159C109.46 173.996 109.059 174.854 108.702 175.652L108.709 175.64C109.247 174.023 109.871 172.5 110.521 171.009C110.298 171.719 110.078 172.44 109.876 173.159ZM160.922 269.025C160.246 268.931 159.559 268.838 158.878 268.723C160.641 268.957 162.394 269.092 164.116 269.128C163.057 269.119 161.984 269.089 160.922 269.025ZM135.084 257.595C134.553 257.289 134.027 256.96 133.501 256.631C131.364 255.118 129.317 253.441 127.346 251.624C126.844 251.003 126.354 250.392 125.885 249.746C125.699 249.492 125.529 249.225 125.342 248.971C129.592 252.481 134.152 255.285 138.848 257.419C144.561 260.996 150.67 263.514 156.789 264.936C149.567 264.113 142.249 261.743 135.084 257.595ZM131.839 252.79C128.897 251.025 126.182 248.84 123.683 246.236C123.592 246.165 123.52 246.092 123.429 246.021C122.842 245.038 122.297 244.028 121.79 243.016C122.196 243.5 122.613 243.993 123.045 244.463C125.991 247.703 129.199 250.51 132.588 252.912C133.151 253.372 133.712 253.821 134.28 254.258C133.457 253.784 132.65 253.298 131.839 252.79ZM137.658 255.375C136.042 254.437 134.428 253.42 132.846 252.322C131.818 251.506 130.808 250.644 129.811 249.748C128.393 247.844 126.963 245.93 125.545 244.026C127.199 245.376 128.901 246.632 130.655 247.772C131.79 248.781 132.946 249.755 134.143 250.647C141.842 256.386 150.151 260.033 158.575 261.771C154.47 261.503 150.317 260.736 146.221 259.461C143.321 258.352 140.455 256.995 137.658 255.375ZM131.086 246.968C128.916 244.976 126.916 242.793 125.089 240.484C127.136 242.117 129.256 243.598 131.422 244.93C135.548 248.304 139.991 251.095 144.595 253.247C140.038 251.818 135.508 249.749 131.086 246.968ZM186.769 249.012C185.391 249.62 183.995 250.185 182.58 250.706C180.787 251.245 178.969 251.708 177.11 252.063C174.377 252.573 171.588 252.853 168.77 252.911C169.347 252.845 169.919 252.757 170.499 252.657C173.792 252.372 176.989 251.714 180.07 250.685C183.209 249.663 186.209 248.428 189.157 246.996C190.949 246.133 192.691 245.173 194.426 244.18C195.333 243.686 196.225 243.171 197.113 242.633C196.03 243.42 194.944 244.196 193.819 244.919C191.545 246.389 189.194 247.765 186.769 249.012ZM122.221 187.117C120.901 189.051 119.671 191.09 118.57 193.342C116.07 198.418 114.168 204.118 113.204 210.161C113.151 209.952 113.095 209.733 113.042 209.525C113.04 209.469 113.031 209.425 113.029 209.369C113.218 208.226 113.438 207.091 113.739 205.984C114.551 202.535 115.645 199.255 117.002 196.134C118.597 192.468 120.547 189.223 122.744 186.205C122.57 186.509 122.395 186.813 122.221 187.117ZM111.465 190.576C111.529 190.381 111.593 190.186 111.657 189.991C111.574 190.411 111.49 190.831 111.418 191.261C111.438 191.036 111.446 190.801 111.465 190.576ZM110.324 191.77C110.315 191.815 110.303 191.85 110.293 191.895C110.318 190.373 110.403 188.869 110.556 187.37C110.788 186.794 110.996 186.197 111.249 185.63C111.468 185.132 111.7 184.645 111.931 184.158C111.601 185.536 111.321 186.932 111.094 188.346C110.804 189.464 110.549 190.612 110.324 191.77ZM109.634 194.751C109.531 195.262 109.436 195.761 109.345 196.282C109.271 194.656 109.197 193.029 109.123 191.403C109.363 190.636 109.593 189.869 109.856 189.123C109.713 190.989 109.638 192.862 109.634 194.751ZM104.764 187.51C104.727 188.061 104.692 188.623 104.667 189.183C104.664 189.217 104.653 189.252 104.652 189.296C104.656 188.949 104.641 188.604 104.647 188.268C104.678 188.009 104.721 187.76 104.764 187.51ZM185.186 263.518C181.931 264.761 178.567 265.756 175.129 266.398C167.958 267.728 160.377 267.513 152.868 265.638C155.498 266.142 158.117 266.456 160.706 266.582C162.977 266.689 165.283 266.557 167.555 266.306C173.662 266.398 179.569 265.355 185.186 263.518ZM178.357 262.933C175.194 263.89 171.972 264.56 168.697 264.933C160.796 265.055 152.649 263.408 144.739 259.708C145.413 259.925 146.094 260.13 146.773 260.324C152.329 262.337 158.015 263.468 163.533 263.751C166.27 263.9 168.94 263.73 171.557 263.262C173.519 263.078 175.435 262.765 177.323 262.319C179.893 261.899 182.413 261.282 184.871 260.513C182.759 261.434 180.598 262.259 178.357 262.933ZM196.303 254.186C195.109 254.992 193.897 255.756 192.669 256.486C191.552 257.019 190.427 257.518 189.286 257.985C189.573 257.852 189.869 257.717 190.155 257.584C192.263 256.551 194.311 255.411 196.303 254.186ZM167.523 262.921C168.071 262.946 168.608 262.961 169.151 262.965C168.87 262.986 168.593 263.03 168.312 263.051C163.751 263.332 159.081 262.962 154.438 261.941C157.056 262.3 159.674 262.47 162.256 262.429C162.303 262.425 162.35 262.422 162.39 262.43C164.097 262.668 165.81 262.84 167.523 262.921ZM161.761 261.885C157.294 261.299 152.891 259.969 148.539 257.887C146.199 257.082 143.903 256.039 141.682 254.755C148.96 258.347 156.651 260.319 164.222 260.714C166.947 260.853 169.61 260.694 172.21 260.239C173.314 260.143 174.405 259.982 175.49 259.798C173.973 260.238 172.427 260.636 170.865 260.956C167.907 261.573 164.857 261.884 161.761 261.885ZM193.302 251.777C190.413 253.585 187.417 255.199 184.314 256.576C181.507 257.595 178.603 258.421 175.597 258.985C162.923 261.383 148.957 259.018 136.321 251.04C142.228 254.043 148.422 255.962 154.552 256.847C159.839 258.209 165.152 258.743 170.241 258.343C178.47 257.693 186.104 255.3 193.302 251.777ZM151.578 254.38C153.881 254.964 156.198 255.38 158.496 255.663C157.42 255.622 156.347 255.547 155.258 255.44C154.029 255.121 152.804 254.778 151.578 254.38ZM118.475 173.733C117.928 174.49 117.417 175.278 116.917 176.076C117.075 175.74 117.245 175.414 117.413 175.077C117.757 174.626 118.11 174.174 118.475 173.733ZM113.52 181.052C113.174 181.906 112.841 182.77 112.528 183.643C112.626 183.199 112.726 182.767 112.835 182.334C113.06 181.903 113.284 181.473 113.52 181.052ZM114.601 175.616C113.898 177.446 113.266 179.339 112.706 181.26C112.699 181.271 112.692 181.283 112.685 181.295C112.026 182.474 111.42 183.716 110.846 184.978C111.213 182.547 111.779 180.157 112.498 177.81C113.536 175.943 114.681 174.179 115.908 172.487C115.445 173.506 115.006 174.545 114.601 175.616ZM125.269 260.177C127.298 262.314 129.456 264.295 131.725 266.078C133.442 267.769 135.241 269.353 137.117 270.808C132.764 267.854 128.746 264.271 125.269 260.177Z" fill="#FDC6DF"/></svg>