<svg width="732" height="283" fill="none" xmlns="http://www.w3.org/2000/svg"><g clip-path="url(#clip0_3133_345)"><path d="M1001.28 377.136C1001.31 374.548 1001.31 371.959 1001.28 369.37C1002.09 358.375 1002.31 347.158 1001.75 336.246C1001.7 335.383 1001.64 334.521 1001.59 333.658C1001.53 330.985 1001.45 328.341 1001.34 325.669C1000.7 313.004 999.137 300.478 996.66 288.063C994.071 275.343 990.536 262.9 985.999 250.736C985.665 249.734 984.886 250.82 984.496 251.488C983.466 248.148 982.408 244.807 981.295 241.439C981.072 240.799 980.766 241.022 980.488 241.495C979.207 237.264 977.843 233.033 976.424 228.774C975.895 227.132 975.032 231.307 975.116 230.778C974.809 232.616 974.531 235.065 975.116 236.874C977.816 246.311 980.488 255.775 983.188 265.211C983.104 265.461 983.076 265.684 983.104 265.823C983.911 268.3 984.691 270.75 985.442 273.199C985.665 274.118 985.804 275.036 985.999 275.955C985.665 274.981 985.359 274.007 984.997 273.06C984.774 272.364 984.134 272.364 983.466 272.615C981.991 267.41 980.376 262.232 978.706 256.999C976.034 245.726 972.499 234.648 968.881 223.653C968.435 222.261 967.99 223.207 967.572 223.736C966.876 224.627 967.656 228.719 967.99 229.749C969.994 235.9 971.998 242.024 974.03 248.175C974.837 250.959 975.561 253.743 976.257 256.554C975.895 257.751 975.617 259.254 975.978 260.312C977.287 264.32 978.484 268.273 979.653 272.17C979.848 273.227 980.015 274.285 980.182 275.343C979.179 272.169 978.122 268.996 976.981 265.851C974.615 256.665 971.775 247.591 968.769 238.433C968.268 236.93 967.879 237.849 967.489 238.544C966.765 239.853 967.712 244.195 968.157 245.559C968.602 246.895 969.048 248.231 969.465 249.595C969.409 251.154 969.799 253.436 970.05 254.16C972.026 260.284 974.03 266.38 976.006 272.504C976.535 274.368 977.036 276.233 977.509 278.098C977.927 280.047 978.317 282.023 978.678 283.972C978.261 282.636 977.844 281.299 977.398 279.963C977.064 278.933 975.7 279.295 976.034 280.353C977.398 284.556 978.762 288.732 980.126 292.935C979.987 292.823 979.875 292.712 979.736 292.684C979.319 292.573 978.372 292.601 978.651 293.38C979.541 296.163 980.432 298.947 981.295 301.703C982.019 308.021 982.492 314.34 982.714 320.631C980.154 309.524 976.897 298.641 973.306 287.59C973.251 287.395 973.167 287.284 973.056 287.228C970.746 277.597 967.851 268.106 964.427 258.781C964.149 257.89 963.648 255.162 962.534 254.772C961.393 254.383 961.838 256.192 961.95 256.582C965.29 266.853 968.407 277.041 970.885 287.395C969.215 281.606 967.349 275.872 965.262 270.193C965.095 269.664 964.288 267.772 963.62 267.688C963.23 267.632 962.284 267.632 962.534 268.384C965.735 278.238 968.741 288.036 971.191 297.973C970.996 298.056 970.773 298.223 970.606 298.39C970.022 298.975 970.217 301.758 970.439 302.482C971.636 306.156 972.777 309.831 973.891 313.505C973.724 313.672 973.557 313.978 973.362 314.284C973.028 314.841 973 316.094 973.111 317.402C970.634 305.906 967.378 294.633 963.286 283.582C962.924 282.441 960.363 283.053 960.725 284.194C961.588 286.894 962.451 289.594 963.258 292.267C962.312 292.573 960.92 294.466 961.17 295.189C962.172 298.307 963.146 301.397 964.093 304.486C963.62 305.6 963.119 307.214 963.453 308.244C963.815 309.357 964.177 310.471 964.51 311.556C964.288 312.057 964.149 312.475 964.177 312.391C963.676 313.839 962.868 316.344 963.341 317.875C964.204 320.492 965.039 323.136 965.902 325.752C965.93 325.808 965.902 325.919 965.93 325.975C966.57 327.951 967.238 329.956 967.878 331.932L969.242 336.191C969.131 337.749 969.27 339.781 969.465 340.394C970.857 344.653 972.221 348.884 973.501 353.114C974.42 357.568 975.171 362.022 975.811 366.503C975.811 366.531 975.811 366.559 975.811 366.587C975.31 372.154 974.642 377.749 973.807 383.316C971.497 392.557 968.797 401.715 965.679 410.928C955.436 440.935 941.24 469.494 924.929 496.605C883.455 565.581 827.98 625.399 767.801 678.398C697.184 740.609 618.857 794.415 536.326 839.592C457.748 882.625 375.218 919.618 289.458 945.867C220.15 967.077 148.586 982.86 75.9925 986.256C4.90216 989.568 -71.2819 981.607 -133.521 944.28C-134.3 943.807 -135.052 943.306 -135.803 942.833L-140.229 939.715C-150.138 933.564 -159.212 926.326 -167.396 918.004C-170.346 915.109 -173.185 912.103 -175.941 909.013C-118.74 902.639 -61.9294 892.757 -5.84204 879.897C17.0939 874.776 39.9185 869.208 62.6039 863.14C179.065 832.021 292.437 788.681 399.657 733.567C479.543 692.482 556.59 644.773 625.982 587.515C656.935 561.99 686.301 534.489 712.827 504.371C739.382 474.198 763.459 441.324 780.55 404.777C784.335 396.649 787.787 388.326 790.793 379.864C806.547 343.929 815.009 304.792 808.885 265.823C808.941 264.737 809.025 263.652 809.08 262.566C809.192 258.725 809.164 254.884 808.997 251.07C809.916 241.885 810.194 232.616 809.665 223.291C809.609 222.233 809.498 221.175 809.414 220.118C809.331 212.908 808.83 205.699 807.772 198.462C805.044 179.645 798.865 161.775 790.097 145.185C777.209 110.335 752.937 79.9947 723.293 56.7801C720.315 54.4419 717.281 52.2429 714.219 50.0718C709.543 46.5089 704.783 43.113 699.912 39.9119C642.823 2.52914 572.706 -5.32041 506.153 3.03017C459.808 8.81991 414.159 21.8747 370.82 39.1047C322.304 58.4224 275.764 82.1937 231.172 109.389C151.342 158.045 77.9966 216.777 10.998 281.856C-28.6945 320.408 -65.7706 361.883 -99.59 405.695C-136.082 452.987 -169.01 503.397 -195.008 557.231C-215.55 599.819 -232.418 645.552 -240.045 692.594C-244.944 712.83 -248.368 733.4 -249.815 754.193C-250.344 761.903 -250.511 769.586 -250.427 777.241C-251.012 783.754 -251.374 790.295 -251.541 796.837C-257.664 797.199 -263.76 797.505 -269.884 797.783C-373.207 802.265 -478.729 794.944 -578.768 767.554C-630.903 753.275 -681.813 734.43 -729.744 709.323C-749.618 698.912 -768.769 687.444 -787.446 675.057C-797.272 668.544 -806.791 661.669 -816.172 654.598C-828.892 644.383 -841.641 634.167 -854.389 623.952C-854.612 623.785 -854.807 623.813 -854.974 623.98C-857.312 622.087 -859.65 620.194 -862.016 618.301C-863.241 617.299 -863.324 622.755 -862.406 623.534C-860.262 625.344 -858.091 627.153 -855.948 628.962C-855.892 629.547 -855.781 630.02 -855.558 630.187C-834.849 647.584 -814.279 664.953 -792.067 680.457C-777.398 690.729 -761.838 700.61 -746.334 709.601C-699.571 736.74 -649.441 757.839 -597.779 773.622C-489.641 806.69 -375.239 816.544 -262.619 811.868C-258.945 811.701 -255.243 811.506 -251.569 811.311C-251.569 811.422 -251.569 811.506 -251.569 811.589C-267.407 812.48 -283.273 813.093 -299.111 813.371C-394.751 814.93 -490.67 806.161 -583.082 780.887C-620.826 769.725 -657.624 756.03 -693.364 739.357C-713.684 729.893 -733.279 719.065 -752.43 707.458C-764.037 700.666 -775.31 693.373 -786.305 685.635C-808.322 670.242 -829.421 653.652 -849.546 635.837C-850.659 634.891 -851.828 638.899 -851.828 640.959C-855.28 638.092 -858.703 635.225 -862.127 632.33C-863.213 631.412 -863.352 638.148 -862.239 639.122C-860.652 640.486 -859.093 641.85 -857.507 643.242C-858.397 642.49 -859.316 641.738 -860.207 640.987C-861.32 640.041 -861.598 646.61 -860.541 647.528C-858.759 649.087 -856.978 650.646 -855.168 652.205C-855.141 652.733 -855.057 653.123 -854.89 653.29C-842.309 664.174 -829.7 674.863 -816.673 685.106C-806.235 693.568 -795.546 701.724 -784.412 709.49C-769.771 719.733 -754.629 729.253 -739.18 738.216C-754.183 730.227 -768.852 721.626 -783.271 712.607C-783.828 712.245 -784.384 711.883 -784.941 711.522C-809.436 694.848 -832.205 676.366 -854.779 657.159C-855.391 656.63 -855.892 657.326 -856.17 658.245C-860.04 654.988 -863.909 651.704 -867.778 648.391C-869.782 646.665 -868.279 652.372 -867.471 653.095C-851.967 666.679 -836.408 679.845 -820.041 692.204C-808.963 701.195 -797.689 709.907 -785.915 718.119C-763.87 733.484 -740.85 747.429 -717.079 759.927C-700.184 768.807 -682.87 776.934 -665.307 784.366C-689.356 774.986 -712.904 764.353 -735.757 752.328C-751.595 744.005 -767.043 734.931 -782.213 725.439C-812.525 706.456 -840.082 684.104 -867.082 660.75C-867.666 660.221 -868.056 661.028 -868.195 661.418C-868.418 662.03 -867.054 663.617 -866.636 664.007C-859.65 670.103 -852.608 676.059 -845.538 681.96C-825.97 698.884 -806.263 715.251 -784.997 730.088C-762.979 745.453 -739.96 759.37 -716.189 771.868C-676.246 792.884 -634.076 810.114 -590.82 823.058C-561.733 831.77 -532.284 838.868 -502.584 844.546C-530.335 839.898 -557.892 833.969 -585.114 826.648C-623.86 816.238 -661.549 802.849 -698.068 786.51C-711.68 780.108 -725.096 773.232 -738.262 765.967C-757.885 755.473 -776.813 743.755 -795.045 730.867C-798.664 728.362 -802.226 725.745 -805.761 723.129C-821.182 711.355 -836.102 698.912 -850.771 686.052C-851.272 685.607 -851.578 685.579 -851.773 685.774C-853.749 683.992 -855.753 682.267 -857.701 680.457C-858.23 679.984 -859.817 680.569 -859.037 681.237C-856.588 683.352 -854.111 685.44 -851.661 687.528C-851.55 687.75 -851.383 687.973 -851.216 688.14C-837.298 700.332 -823.297 712.217 -808.74 723.463C-829.282 708.766 -848.683 692.872 -867.778 676.143C-868.585 675.419 -870.839 676.393 -869.67 677.451C-849.601 695.266 -829.282 712.19 -807.265 727.583C-789.979 739.635 -772.081 750.797 -753.71 761.068C-742.409 767.916 -730.913 774.429 -719.223 780.581C-679.28 801.597 -637.305 818.186 -594.244 831.631C-571.642 838.701 -548.678 844.63 -525.492 849.64C-545.227 845.855 -564.823 841.373 -584.168 836.057C-627.869 824.06 -670.4 808.778 -711.457 789.572C-731.748 780.08 -751.344 769.252 -770.495 757.645C-782.074 750.825 -793.375 743.56 -804.37 735.794C-807.432 733.678 -810.41 731.452 -813.416 729.281C-814.919 728.139 -816.45 726.998 -817.953 725.829C-832.26 714.973 -846.011 703.449 -859.177 691.202C-859.622 690.812 -859.984 691.091 -860.234 691.675C-862.489 689.643 -864.799 687.695 -867.026 685.635C-867.945 684.828 -870.144 687.027 -869.225 687.862C-863.686 692.816 -859.372 696.741 -855.419 700.248C-855.335 701.362 -855.085 702.475 -854.695 702.837C-851.8 705.426 -848.906 708.014 -845.983 710.547C-845.76 711.549 -845.343 712.663 -845.009 713.275C-851.717 707.708 -858.342 702.058 -864.966 696.296C-866.386 695.043 -867.945 699.775 -867.277 700.387C-863.992 703.338 -860.708 706.261 -857.395 709.156C-857.479 709.907 -857.507 710.77 -857.451 711.549C-860.04 709.295 -862.656 707.096 -865.189 704.785C-866.609 703.561 -868.14 709.406 -867.388 710.102C-866.108 711.243 -864.938 712.329 -863.797 713.331C-864.632 714.75 -865.161 718.564 -864.493 719.176C-860.401 722.906 -856.31 726.636 -852.19 730.394C-852.079 730.951 -851.912 731.396 -851.689 731.591C-844.786 738.021 -837.911 744.423 -831.008 750.853C-817.146 762.349 -802.839 773.26 -788.058 783.559C-767.656 797.755 -746.362 810.699 -724.456 822.445C-745.332 811.645 -765.457 799.815 -785.108 786.816C-796.437 779.551 -807.432 771.813 -818.092 763.601C-832.789 752.801 -846.651 741.055 -859.733 728.334C-860.958 727.221 -861.57 732.76 -860.708 733.567L-840.249 752.857C-826.387 764.353 -812.08 775.264 -797.3 785.563C-775.254 800.929 -752.207 814.818 -728.408 827.316C-688.354 848.332 -646.24 865.228 -602.984 878.422C-494.818 911.379 -380.416 921.121 -267.796 916.278C-257.525 915.833 -247.254 915.22 -236.983 914.552C-236.872 914.858 -236.788 915.192 -236.677 915.499C-236.454 916.473 -236.287 917.475 -236.065 918.449C-228.855 949.04 -215.662 978.573 -197.096 1003.93C-158.684 1056.43 -99.2282 1085.6 -36.5162 1097.79C45.0122 1113.66 130.159 1104.72 210.964 1086.32C224.659 1083.35 238.214 1080.09 251.631 1076.61C363.75 1047.58 471.443 1000.65 571.593 942.833C663.726 889.667 751.156 826.314 826.533 750.992C865.697 711.856 901.826 669.212 931.304 622.254C947.81 595.949 962.367 568.114 973.445 538.998C990.898 499.528 1002.03 456.662 1002.84 413.434C1003.31 401.297 1002.73 389.273 1001.28 377.136ZM981.017 503.397C979.848 506.737 978.623 510.05 977.37 513.334C978.985 508.435 980.488 503.509 981.88 498.554C986.528 482.048 990.035 465.096 992.011 448.005C990.23 465.43 986.945 482.465 982.13 499.667C981.768 500.92 981.378 502.145 981.017 503.397ZM-563.57 815.681C-594.829 807.08 -625.558 796.837 -655.509 784.617C-636.831 791.993 -617.848 798.618 -598.642 804.491C-546.646 820.385 -493.203 830.851 -439.204 836.947C-476.252 833.217 -513.105 827.483 -549.541 819.355C-554.245 818.159 -558.922 816.962 -563.57 815.681ZM54.0586 857.267C-23.5451 877.726 -102.819 892.868 -182.705 901.052C-183.206 900.44 -183.707 899.855 -184.208 899.243C-101.511 890.948 -19.509 875.221 60.739 853.788C152.65 829.209 242.612 797.032 329.179 757.45C240.469 798.479 148.363 831.631 54.0586 857.267ZM773.368 393.671C765.268 409.787 755.804 425.208 745.533 439.961C724.601 470.051 700.246 497.802 673.886 523.522C657.185 539.305 639.761 554.308 621.891 568.671C654.764 541.504 685.994 512.11 713.69 479.654C737.489 451.763 759.089 421.339 774.816 388.103C777.71 381.98 780.355 375.745 782.804 369.426C780.049 377.665 776.875 385.737 773.368 393.671ZM-217.777 651.397C-214.409 642.629 -210.818 634 -207.116 625.511C-198.293 605.386 -188.411 585.762 -177.723 566.555C-182.844 576.715 -187.743 587.014 -192.364 597.48C-201.716 615.295 -210.401 633.555 -218.055 652.205C-217.972 651.926 -217.86 651.676 -217.777 651.397ZM996.493 347.826C996.604 348.911 996.715 350.025 996.799 351.11C996.827 351.611 996.855 352.085 996.882 352.586C996.688 351.806 996.493 351.027 996.298 350.22C996.381 349.44 996.437 348.633 996.493 347.826ZM980.516 344.402C980.516 344.124 980.488 343.873 980.46 343.595C980.655 344.207 980.849 344.82 981.072 345.432C980.961 346.434 980.794 347.408 980.683 348.383C980.627 347.046 980.599 345.71 980.516 344.402ZM993.32 361.465C993.153 363.414 992.958 365.362 992.735 367.311C992.735 365.39 992.707 363.497 992.679 361.576C992.791 360.018 992.874 358.459 992.958 356.9C993.097 358.431 993.208 359.934 993.32 361.465ZM994.043 386.266C994.016 388.076 993.932 389.913 993.848 391.75C993.821 391.945 993.765 392.112 993.737 392.307C993.57 391.054 993.431 389.801 993.236 388.577C992.986 386.461 992.652 384.374 992.345 382.258C992.345 382.035 992.373 381.813 992.373 381.59C992.93 378.5 993.431 375.383 993.876 372.265C994.043 376.942 994.127 381.59 994.043 386.266ZM-188.94 979.937C-192.753 975.01 -196.372 969.917 -199.768 964.683C-198.376 966.437 -196.984 968.219 -195.537 969.916C-190.109 976.263 -184.347 982.192 -178.307 987.759C-175.329 991.127 -172.267 994.356 -169.122 997.501C-166.477 1000.56 -163.75 1003.51 -160.966 1006.38C-171.098 998.392 -180.534 989.513 -188.94 979.937ZM-221.73 680.736C-224.958 692.371 -227.714 704.117 -229.913 715.975C-230.386 717.451 -230.859 718.898 -231.305 720.373C-230.999 715.558 -230.692 710.77 -230.414 705.955C-227.77 697.465 -224.875 689.058 -221.73 680.736ZM800.702 242.831C800.702 242.553 800.674 242.302 800.646 242.024C800.674 241.857 800.674 241.69 800.702 241.523C800.73 241.746 800.786 241.968 800.813 242.191C800.786 242.414 800.73 242.636 800.702 242.831ZM796.026 690.979C793.632 693.289 791.238 695.6 788.817 697.882C784.641 701.668 780.438 705.398 776.235 709.128C715.889 762.182 649.865 809.168 580.5 849.807C604.021 835.583 627.151 820.692 649.753 805.048C701.276 770.783 750.571 732.899 796.026 690.979ZM971.079 494.963C972.332 490.509 973.473 486.028 974.587 481.519C977.036 475.562 979.346 469.549 981.49 463.481C980.71 466.571 979.903 469.689 979.04 472.778C976.619 480.294 973.974 487.67 971.079 494.963ZM-214.771 936.375C-215.856 933.675 -216.97 930.975 -218.055 928.247C-217.805 928.665 -217.582 929.054 -217.332 929.472C-213.908 936.514 -210.122 943.362 -206.003 950.014C-209.12 945.561 -212.043 941.023 -214.771 936.375ZM792.352 324.5C789.986 331.876 787.286 339.169 784.279 346.323C785.365 342.203 786.311 338.028 787.174 333.852C789.206 329.343 791.099 324.778 792.88 320.185C792.825 321.048 792.797 321.883 792.741 322.746C792.63 323.331 792.491 323.915 792.352 324.5ZM964.733 506.849C962.757 512.555 960.614 518.206 958.387 523.8C953.71 533.571 948.7 543.146 943.412 552.582C940.739 557.203 937.984 561.768 935.172 566.305C938.318 560.376 941.352 554.391 944.219 548.323C951.038 535.185 957.19 521.741 962.646 508.018C964.51 504.232 966.32 500.419 968.045 496.578C967.016 500.001 965.902 503.453 964.733 506.849ZM-240.769 775.654C-240.602 774.68 -240.462 773.706 -240.295 772.731C-239.293 766.997 -238.124 761.291 -236.816 755.613C-236.816 757.7 -236.788 759.788 -236.76 761.876C-237.456 766.663 -238.069 771.479 -238.57 776.294C-239.099 778.939 -239.6 781.583 -240.073 784.227C-240.268 783.003 -240.518 781.806 -240.685 780.581C-240.685 778.911 -240.769 777.296 -240.769 775.654ZM741.943 104.629C748.233 111.087 754.106 117.934 759.479 125.144C755.804 121.135 751.935 117.266 747.983 113.536C736.208 101.177 722.931 90.1546 708.736 80.7184C706.815 79.438 704.866 78.2689 702.918 77.072C699.522 74.6225 696.043 72.2565 692.508 70.0019C705.117 76.2926 717.309 83.9473 728.637 92.6598C733.258 96.4732 737.712 100.454 741.943 104.629ZM798.03 272.559C798.002 272.838 797.946 273.144 797.918 273.422C797.863 272.671 797.835 271.947 797.751 271.195C797.863 271.641 797.919 272.058 798.03 272.504C798.03 272.531 798.03 272.531 798.03 272.559ZM776.513 363.386C774.537 367.394 772.478 371.319 770.362 375.216C767.523 380.115 764.6 384.93 761.538 389.634C762.513 387.686 763.515 385.737 764.461 383.789C765.741 381.061 766.994 378.305 768.219 375.522C772.7 366.642 776.764 357.485 780.327 348.16C781.245 346.378 782.164 344.597 783.055 342.788C782.053 346.573 780.995 350.387 779.742 354.2C778.713 357.262 777.627 360.324 776.513 363.386ZM-59.3964 1047.88C-48.6522 1050.44 -37.7966 1052.53 -26.9131 1054.12C-4.42255 1057.4 18.2351 1058.88 40.9205 1058.99C96.5347 1060.99 153.151 1054.03 203.226 1043.85C208.153 1042.84 213.052 1041.76 217.979 1040.7C172.107 1051.28 125.455 1058.35 78.5255 1060.77C32.4309 1063.14 -14.7493 1059.99 -59.3964 1047.88ZM-177.361 981.524C-178.864 979.77 -180.367 978.044 -181.87 976.291C-183.818 973.73 -185.683 971.113 -187.493 968.469C-171.07 985.449 -152.059 999.255 -131.489 1010.31C-104.239 1028.51 -73.4252 1040.79 -40.7749 1048.5C-72.3953 1042.51 -103.042 1032.43 -131.266 1016.79C-140.758 1011.53 -149.86 1005.57 -158.517 999.06C-165.141 993.576 -171.46 987.703 -177.361 981.524ZM-197.68 625.149C-193.811 617.216 -189.803 609.338 -185.656 601.544C-194.034 620.083 -201.577 639.011 -207.979 658.301C-210.429 663.812 -212.795 669.351 -215.049 674.918C-214.27 671.3 -213.49 667.681 -212.711 664.062C-208.174 650.924 -203.164 637.925 -197.68 625.149ZM797.668 247.201C797.39 245.587 797.056 244 796.722 242.414C797.195 239.964 797.612 237.515 797.974 235.065C798.03 239.101 797.891 243.165 797.668 247.201ZM793.214 307.298C792.379 309.58 791.489 311.835 790.598 314.117C790.821 313.115 791.043 312.085 791.238 311.083C791.906 308.996 792.547 306.88 793.131 304.792C793.159 305.628 793.187 306.463 793.214 307.298ZM-148.691 965.741C-142.177 971.197 -135.386 976.263 -128.344 980.939C-134.161 977.877 -139.867 974.593 -145.462 971.086C-152.504 965.853 -159.268 960.23 -165.559 954.217C-167.813 951.768 -170.012 949.291 -172.1 946.73C-173.603 944.642 -175.134 942.527 -176.637 940.439C-175.524 941.552 -174.41 942.694 -173.297 943.779C-165.587 951.796 -157.375 959.089 -148.691 965.741ZM272.368 990.849C324.001 976.179 374.633 957.836 423.957 936.486C418.417 938.964 412.85 941.441 407.284 943.835C373.269 958.588 338.503 971.976 303.181 983.611C292.576 986.896 281.943 990.069 271.227 993.103C247.094 999.951 222.961 1006.35 198.355 1011.25C190.477 1012.81 182.6 1014.29 174.695 1015.65C147.473 1020.08 120.055 1023.05 92.5821 1024.11C82.2554 1024.5 71.9565 1024.67 61.6297 1024.56C132.887 1024.22 204.451 1010.17 272.368 990.849ZM986.862 416.69C986.806 414.269 986.723 411.847 986.583 409.425C986.667 408.757 986.778 408.089 986.834 407.421C986.945 409.815 987.084 412.209 987.196 414.603C987.112 415.298 987.001 415.994 986.862 416.69ZM666.816 830.35C601.321 874.998 532.123 914.719 460.003 947.871C483.468 936.542 506.598 924.573 529.339 912.047C551.691 899.744 573.736 886.828 595.447 873.328C676.057 824.171 751.824 766.83 818.962 700.443C846.685 673.025 872.627 643.604 895.981 612.344C903.803 602.435 911.346 592.331 918.583 582.004C901.715 609.617 881.952 635.67 861.159 660.305C844.737 679.762 827.34 698.355 809.275 716.254C765.046 758.146 717.03 796.113 666.816 830.35ZM104.301 1052.59C83.3966 1054.62 61.9916 1055.82 40.503 1055.76C34.268 1055.54 28.0608 1055.23 21.8536 1054.76C-19.7874 1051.67 -61.3448 1043.04 -99.3674 1025.34C-100.564 1024.78 -101.761 1024.17 -102.958 1023.58C-98.8385 1025.23 -94.6632 1026.73 -90.4601 1028.18C-81.6365 1031.66 -72.618 1034.72 -63.4603 1037.36C1.92383 1056.12 71.3163 1055.4 138.732 1046.24C146.053 1045.43 153.29 1044.52 160.416 1043.54C177.646 1041.15 194.764 1038.11 211.827 1034.58C176.421 1042.82 140.542 1049.05 104.301 1052.59ZM76.5214 278.627C95.644 262.539 115.24 247.006 135.17 232.087C168.739 206.979 203.56 183.598 239.69 162.359C170.603 205.198 106.138 255.524 46.8215 311.028C40.6422 316.817 34.4907 322.691 28.4227 328.619C21.0464 335.69 13.7537 342.871 6.51666 350.136C-19.4811 375.355 -44.5326 401.771 -68.2201 429.328C-44.3099 399.655 -18.8967 371.18 7.76917 343.957C29.8422 321.382 52.806 299.587 76.5214 278.627ZM795.469 226.603C795.413 229.387 795.274 232.17 795.052 234.926C794.912 233.952 794.745 233.005 794.578 232.031C794.69 229.665 794.745 227.299 794.773 224.933C794.996 225.49 795.219 226.046 795.469 226.603ZM907.616 580.139C914.046 571.51 920.253 562.742 926.21 553.779C917.748 568.921 908.507 583.618 898.625 597.898C893.003 605.079 887.269 612.15 881.395 619.108C867.367 635.754 852.614 651.759 837.333 667.236C855.676 647.333 873.073 626.54 889.05 604.801C895.424 596.729 901.631 588.517 907.616 580.139ZM156.575 1041.93C120.306 1047.21 83.4801 1050.14 46.9885 1048.66C43.871 1048.55 40.7535 1048.38 37.636 1048.22C79.277 1048.61 121.113 1044.1 161.863 1036.97C196.74 1030.88 231.256 1022.66 265.298 1012.81C344.989 990.932 422.231 959.701 495.938 922.708C590.493 875.277 680.483 817.518 761.232 749.016C701.359 801.819 635.14 847.914 566.694 888.276C561.879 891.115 557.063 893.898 552.22 896.682C484.999 934.594 414.604 966.91 342.233 993.131C282.193 1014.95 219.843 1032.13 156.575 1041.93ZM-106.103 1018.6C-119.297 1013.76 -131.544 1007.27 -142.929 999.199C-150.389 993.577 -157.542 987.536 -164.334 980.995C-165.42 979.965 -166.477 978.879 -167.535 977.822C-170.068 975.094 -172.601 972.394 -175.134 969.666C-182.51 961.26 -189.163 952.185 -195.092 942.638C-184.18 955.804 -172.072 967.272 -159.018 977.237C-123.5 1011.11 -78.4076 1030.9 -30.0027 1041.17C-44.3377 1038.81 -58.3665 1035.41 -72.4788 1031.4C-77.8788 1030.12 -83.1675 1028.62 -88.4283 1026.92C-94.3015 1024.14 -100.202 1021.38 -106.103 1018.6ZM316.959 121.358C325.644 117.238 334.356 113.258 343.18 109.444C346.659 107.941 350.166 106.438 353.701 104.963C322.665 118.547 292.52 134.107 263.544 150.724C254.052 156.152 244.672 161.747 235.347 167.481C261.512 151.142 288.373 135.888 315.929 121.859C316.263 121.72 316.598 121.525 316.959 121.358ZM624.229 56.5296C624.535 56.5852 624.841 56.6688 625.175 56.7244C649.92 63.2657 674.053 73.7596 695.792 87.7608C641.82 57.5038 577.661 50.879 516.09 58.3945C490.204 61.5678 464.623 66.9678 439.461 74.0658C421.34 78.6586 403.442 84.17 385.795 90.4608C400.965 84.5319 416.33 79.1597 431.806 74.4833C446.753 69.974 461.812 65.7987 477.066 62.4028L499.306 58.0048C516.925 54.5811 534.74 53.0502 552.749 53.3842C563.242 52.9388 573.764 52.4935 584.258 52.0481C597.646 52.6048 611.007 54.1079 624.229 56.5296ZM738.547 113.87C744.086 120.05 749.402 126.396 754.301 133.077C747.844 126.619 741.052 120.467 733.982 114.677C733.564 114.343 733.147 114.037 732.729 113.703C730.558 111.81 728.331 109.973 726.077 108.192C708.179 91.4907 688.834 78.4916 668.458 68.6658C672.383 70.141 676.252 71.7276 680.066 73.4534C695.653 80.5514 710.378 89.1804 724.017 99.2567C729.111 103.877 733.954 108.749 738.547 113.87ZM761.511 153.786C755.554 146.716 749.207 140.008 742.443 133.689C737.851 129.402 733.175 125.394 728.415 121.608C703.865 100.426 676.809 85.8123 648.223 76.5431C637.45 72.5627 626.4 69.3338 615.182 66.8008C649.169 71.2823 680.65 80.9411 714.636 103.46C719.925 106.967 724.991 110.753 729.918 114.65C742.082 126.34 752.77 139.423 761.511 153.786ZM774.064 355.313C772.422 358.375 770.752 361.382 769.026 364.36C770.167 361.771 771.253 359.155 772.31 356.538C772.784 355.564 773.285 354.59 773.73 353.588C774.649 351.778 775.567 349.941 776.43 348.104C776.597 347.798 776.792 347.464 776.959 347.158C776.931 347.297 776.903 347.408 776.875 347.547C776.013 350.164 775.038 352.725 774.064 355.313ZM728.331 429.884C712.688 451.345 695.347 471.526 676.837 490.593C666.76 500.28 656.434 509.716 645.912 518.957C576.186 579.944 496.55 629.797 414.882 672.998C386.185 688.196 356.93 702.447 327.286 715.836C337.056 711.271 346.798 706.623 356.457 701.863C399.573 680.652 441.91 657.577 482.828 632.247C516.452 611.843 549.186 589.993 580.695 566.5C638.341 523.466 693.76 474.309 736.264 415.772C740.606 410.26 744.782 404.665 748.874 398.959C742.527 409.564 735.596 419.891 728.331 429.884ZM-60.6769 1017.32C-42.3337 1022.55 -23.5729 1026.17 -4.61731 1028.51C-17.4492 1027.31 -30.2533 1025.53 -42.8625 1023.05C-50.3223 1021.13 -57.6707 1018.77 -64.8799 1016.04C-63.4881 1016.48 -62.0686 1016.93 -60.6769 1017.32ZM937.037 538.303C938.29 535.909 939.515 533.487 940.712 531.065C947.642 519.486 954.017 507.74 960.001 495.742C959.695 497.19 959.389 498.61 959.055 500.057C957.218 505.039 955.214 509.966 953.154 514.893C952.569 516.146 951.957 517.398 951.372 518.679C941.157 537.384 929.717 555.449 917.386 572.874C924.317 561.573 930.914 550.077 937.037 538.303ZM-8.73694 1043.85C-23.1276 1041.68 -37.2399 1038.36 -51.1016 1033.85C-63.182 1030.99 -74.9005 1027.03 -86.2571 1022.02C-98.8663 1016.62 -111.225 1010.17 -122.916 1002.71C-103.181 1014.15 -81.8035 1023 -59.6747 1029.32C-20.2884 1040.56 20.963 1044.43 61.8246 1044.1C93.3893 1043.85 124.926 1040.98 156.185 1036.28C149.699 1037.36 143.186 1038.36 136.673 1039.28C88.379 1045.99 39.7236 1048.5 -8.73694 1043.85ZM-237.401 792.383C-237.373 793.608 -237.401 794.833 -237.345 796.085C-237.484 796.085 -237.623 796.113 -237.763 796.113C-237.79 795.946 -237.846 795.779 -237.874 795.612C-237.735 794.526 -237.595 793.469 -237.401 792.383ZM-172.517 588.462C-166.811 578.163 -160.883 568.003 -154.759 557.954C-158.322 564.022 -161.801 570.146 -165.197 576.326C-168.231 581.392 -171.181 586.486 -174.104 591.607C-173.575 590.549 -173.046 589.52 -172.517 588.462ZM205.87 188.413C239.55 166.145 274.372 145.77 310.362 127.454C354.119 105.186 401.021 85.8123 448.59 73.5926C448.646 73.5648 448.73 73.5648 448.785 73.5369C459.001 71.1431 469.272 69.0276 479.543 67.3297C509.8 62.3193 540.835 59.8976 571.454 61.9853C549.047 61.9853 526.807 63.9338 504.761 67.441C434.562 77.4617 364.474 104.518 305.909 133.995C293.606 140.175 281.47 146.66 269.445 153.369C262.904 156.931 256.391 160.522 249.961 164.224C189.615 198.851 132.887 239.435 79.6389 284.139C119.638 249.623 161.807 217.557 205.87 188.413ZM774.482 179.701C775.985 183.486 777.349 187.328 778.601 191.252C774.704 185.546 770.501 180.035 766.047 174.718C753.355 151.893 735.596 131.796 715.527 115.151C717.281 116.348 719.034 117.517 720.76 118.769C725.019 121.887 729.194 125.144 733.23 128.512C749.542 143.292 763.821 160.439 774.482 179.701ZM403.748 674.695C314.816 721.403 221.402 759.649 125.594 789.739C52.7226 812.647 -21.9028 831.074 -97.3911 843.572C-130.459 848.805 -163.666 852.925 -197.012 855.848C-201.521 856.237 -206.031 856.571 -210.54 856.905C-210.846 856.098 -211.125 855.291 -211.403 854.456C-144.488 848.304 -78.0179 837.226 -12.5781 822.222C14.4218 816.043 41.2823 809.168 67.9482 801.652C158.968 776.851 248.012 744.506 333.688 705.092C421.813 664.536 507.1 616.436 584.898 558.316C595.448 550.439 605.886 542.339 616.212 534.044C607.584 541.42 598.815 548.602 589.853 555.644C555.727 582.394 519.931 607.111 482.967 629.992C456.997 645.747 430.553 660.611 403.748 674.695ZM-157.96 974.871C-158.405 974.426 -158.906 974.008 -159.352 973.535C-166.895 965.853 -173.77 957.725 -180.089 949.179C-175.997 953.215 -171.794 957.14 -167.368 960.842C-162.358 965.018 -157.153 968.942 -151.808 972.672C-137.696 984.836 -122.22 995.247 -105.435 1003.79C-103.904 1004.57 -102.318 1005.3 -100.787 1006.05C-119.687 998.476 -137.779 989.067 -154.592 977.349C-155.705 976.569 -156.819 975.706 -157.96 974.871ZM-85.756 459.25C-82.7777 455.493 -79.7994 451.763 -76.7654 448.033C-12.1606 368.591 63.105 296.609 145.329 235.65C157.744 226.464 170.325 217.473 183.046 208.677C219.342 184.21 256.724 161.83 295.749 141.956C305.881 136.807 316.152 131.852 326.562 127.092C249.098 164.781 176.894 213.465 110.369 268.022C75.2688 296.804 41.5051 327.45 9.49493 359.851C9.16089 360.157 8.85474 360.463 8.52075 360.797C-42.9182 411.095 -91.0447 465.931 -132.268 525.331C-117.738 502.646 -102.123 480.656 -85.756 459.25ZM96.4233 272.754C90.2719 277.848 84.1481 282.97 78.0801 288.147C39.6123 321.104 2.78674 356.399 -31.6729 393.838C-18.8688 379.419 -5.73071 365.334 7.74139 351.528C36.133 323.943 65.6658 297.611 96.4233 272.754ZM695.18 102.736C705.173 109.277 714.302 116.821 722.569 125.45C726.995 129.569 731.449 133.717 735.875 137.836C741.191 143.598 746.173 149.639 750.794 155.929C738.046 141.177 723.21 128.066 707.093 117.043C703.447 114.316 699.717 111.671 695.931 109.194C671.576 93.133 644.799 82.4999 616.936 76.2091C625.537 77.5731 634.055 79.3267 642.461 81.6927C660.915 86.87 678.535 93.7732 695.18 102.736ZM-232.919 771.924C-232.919 772.731 -232.891 773.511 -232.891 774.318C-233.031 775.042 -233.17 775.765 -233.309 776.461C-233.198 774.958 -233.058 773.455 -232.919 771.924ZM791.878 274.341C791.461 272.281 790.988 270.221 790.515 268.189C790.487 268.05 790.487 267.911 790.459 267.744C791.266 265.044 792.045 262.344 792.769 259.644C792.825 264.515 792.519 269.414 791.878 274.341ZM-211.458 903.696C-211.765 903.056 -212.071 902.416 -212.349 901.776C-211.765 901.72 -211.18 901.692 -210.596 901.637C-210.317 902.277 -210.011 902.889 -209.733 903.529C-210.317 903.613 -210.874 903.641 -211.458 903.696ZM602.768 531.984C588.21 543.118 573.347 553.89 558.288 564.301C579.776 549.131 600.736 533.264 621 516.563C639.343 501.449 657.436 485.555 674.749 468.742C664.589 479.32 654.04 489.563 643.24 499.445C630.018 510.662 616.491 521.49 602.768 531.984ZM-193.978 642.518C-186.268 627.097 -178.001 611.955 -169.205 597.091C-174.438 607 -179.476 617.021 -184.208 627.153C-189.051 637.174 -193.7 647.361 -198.042 657.66C-200.714 663.339 -203.331 669.045 -205.864 674.807C-202.885 665.927 -199.712 657.131 -196.344 648.419C-195.593 646.415 -194.758 644.466 -193.978 642.518ZM155.016 242.08C171.327 230.417 187.917 219.115 204.757 208.288C258.116 173.994 314.454 144.044 373.743 121.469C335.275 136.862 298.032 155.595 262.403 176.054C250.35 182.985 238.437 190.167 226.663 197.543C219.565 201.885 212.495 206.339 205.48 210.848C148.363 247.591 94.3914 289.372 44.0659 335.105C78.8039 302.454 115.351 271.724 153.568 243.165C154.042 242.775 154.543 242.441 155.016 242.08ZM29.1186 794.248C-6.53796 802.961 -42.445 810.559 -78.519 816.906C-124.697 824.728 -171.209 830.35 -217.861 833.579C-217.972 833.106 -218.083 832.661 -218.222 832.188C-124.614 825.09 -31.7564 808.193 58.9019 784.005C120.723 767.498 181.654 747.54 241.276 724.242C263.628 715.613 285.784 706.511 307.718 696.936C285.422 706.957 262.932 716.532 240.246 725.69C213.191 736.601 185.801 746.817 158.161 756.142C131.384 765.188 104.44 773.789 77.2729 781.639C61.24 786.092 45.2072 790.323 29.1186 794.248ZM739.577 178.893C744.504 184.182 749.208 189.638 753.605 195.344C745.672 185.63 736.849 176.611 727.301 168.427C731.505 171.795 735.624 175.247 739.577 178.893ZM-228.605 842.514C-228.41 843.266 -228.187 844.018 -227.992 844.769C-228.02 844.769 -228.048 844.769 -228.076 844.769C-228.354 844.018 -228.577 843.266 -228.855 842.514C-228.744 842.514 -228.66 842.514 -228.605 842.514ZM-222.565 809.808C-222.565 809.78 -222.565 809.752 -222.565 809.724C-217.916 809.39 -213.296 809.001 -208.647 808.611C-213.296 809.029 -217.916 809.446 -222.565 809.808ZM774.148 289.928C773.73 291.209 773.229 292.489 772.756 293.77C760.676 322.245 744.03 348.633 725.325 373.184C718.589 382.035 711.575 390.636 704.338 399.043C671.13 436.091 633.359 469.104 593.917 499.305C517.398 557.899 433.309 606.388 346.214 647.445C306.911 665.955 266.94 682.879 226.385 698.3C281.832 676.978 336.193 652.733 389.024 625.594C468.882 584.565 545.985 536.939 615.377 479.765C646.33 454.268 675.695 426.795 702.222 396.677C728.804 366.531 752.854 333.63 769.944 297.11C772.45 291.793 774.76 286.338 776.959 280.854C776.096 283.916 775.15 286.95 774.148 289.928ZM649.781 133.216C655.794 135.554 661.806 137.864 667.79 140.202C679.759 145.101 690.921 151.42 701.248 159.186C706.62 162.693 711.992 166.228 717.364 169.736C727.162 177.446 736.292 185.88 744.782 195.01C752.047 203.082 759.005 211.461 765.046 220.507C767.718 224.905 770.418 229.275 773.09 233.673C776.875 240.159 779.965 246.923 782.331 253.993C771.67 288.704 752.603 321.605 731.894 350.108C694.011 402.272 646.079 446.558 595.698 486.418C520.711 545.763 437.039 594.14 351.168 635.837C255.305 682.378 154.376 719.315 51.4421 746.872C-37.5739 770.699 -128.789 787.484 -220.728 794.888C-216.413 764.993 -208.258 735.488 -197.652 707.068C-186.713 680.652 -173.798 655.044 -159.797 630.103C-118.351 556.312 -64.5737 489.173 -6.23181 428.158C64.6359 354.033 144.327 287.98 231.256 233.451C265.047 212.268 299.924 193.006 335.97 175.943C372.796 158.49 411.681 143.431 451.179 133.132C462.035 130.293 472.918 127.788 483.885 125.589C538.998 115.513 596.199 115.652 649.781 133.216ZM-212.739 733.79C-217.276 747.262 -221.173 760.929 -224.374 774.735C-224.179 772.982 -223.956 771.228 -223.734 769.475C-220.282 755.334 -216.107 741.556 -211.458 728.334C-210.623 725.968 -209.733 723.602 -208.87 721.236C-210.234 725.411 -211.514 729.615 -212.739 733.79ZM656.378 122.026C611.87 107.301 563.326 105.158 516.619 111.003C494.017 113.842 471.582 118.38 449.509 124.308C427.464 129.82 405.725 136.695 384.375 144.684C405.586 136.556 427.13 129.402 449.064 123.529C511.859 106.717 580.361 99.5908 643.685 117.433C647.972 118.853 652.203 120.384 656.378 122.026ZM538.163 563.299C568.281 543.174 597.452 521.713 625.37 498.693C639.788 486.807 654.068 474.448 667.902 461.533C665.146 464.316 662.363 467.072 659.551 469.8C638.675 489.034 616.713 507.127 594.223 524.329C549.492 558.511 502.173 589.213 453.211 617.021C482.215 600.208 510.607 582.338 538.163 563.299ZM768.581 331.152C767.745 332.572 766.911 333.992 766.075 335.411C768.135 330.985 770.112 326.504 771.949 321.967C770.891 325.029 769.75 328.091 768.581 331.152ZM48.0185 352.419C46.3763 353.95 44.7618 355.508 43.1195 357.067C35.1588 364.443 27.2814 371.931 19.5155 379.475C-20.1771 418.026 -57.2531 459.501 -91.0726 503.314C-127.564 550.606 -160.493 601.016 -186.491 654.849C-187.715 657.354 -188.884 659.915 -190.053 662.448C-190.833 664.035 -191.64 665.621 -192.392 667.208C-199.239 681.404 -205.669 695.906 -211.458 710.659C-198.877 676.143 -182.594 642.991 -164.585 611.008C-123.083 537.301 -69.2778 470.218 -10.908 409.258C24.6093 372.154 62.3813 337.054 102.13 304.403C83.6472 319.963 65.6102 335.968 48.0185 352.419ZM-231.166 851.644C-231.388 851.644 -231.611 851.672 -231.806 851.7C-231.778 850.754 -231.75 849.807 -231.722 848.833C-231.527 849.779 -231.333 850.698 -231.166 851.644ZM-229.718 858.241C-230.442 858.297 -231.166 858.325 -231.889 858.38C-231.889 857.657 -231.889 856.933 -231.889 856.209C-231.333 856.154 -230.776 856.126 -230.219 856.07C-230.052 856.794 -229.885 857.518 -229.718 858.241ZM-229.134 860.774C-228.911 861.749 -228.633 862.695 -228.41 863.641C-229.551 863.725 -230.692 863.808 -231.834 863.892C-231.861 862.918 -231.861 861.943 -231.889 860.969C-230.971 860.914 -230.052 860.858 -229.134 860.774ZM-227.241 868.346C-227.13 868.847 -227.018 869.348 -226.907 869.821C-227.937 869.904 -228.967 869.96 -229.969 870.043C-230.164 869.542 -230.358 869.042 -230.553 868.54C-229.468 868.457 -228.354 868.401 -227.241 868.346ZM734.26 395.368C732.896 397.428 731.532 399.488 730.141 401.52C724.991 407.727 719.703 413.851 714.303 419.863C721.178 411.875 727.886 403.719 734.26 395.368ZM759.2 359.127C760.397 357.178 761.622 355.23 762.763 353.254C761.316 355.759 759.84 358.236 758.365 360.714C758.644 360.212 758.922 359.684 759.2 359.127ZM777.738 314.201C778.351 312.197 778.907 310.192 779.464 308.188C779.13 309.719 778.796 311.25 778.406 312.753C778.183 313.254 777.989 313.728 777.738 314.201ZM-230.832 853.203C-230.748 853.565 -230.692 853.955 -230.609 854.317C-231.026 854.344 -231.444 854.372 -231.862 854.4C-231.862 854.01 -231.834 853.648 -231.834 853.259C-231.5 853.259 -231.166 853.231 -230.832 853.203ZM783.834 300.951C784.975 295.273 785.866 289.539 786.534 283.749L786.59 287.089C786.451 290.068 786.256 293.046 785.95 296.024C785.254 297.667 784.53 299.309 783.834 300.951ZM788.789 257.333C789.401 254.355 789.902 251.377 790.403 248.398C790.487 248.621 790.598 248.844 790.682 249.066C790.18 252.239 789.596 255.413 788.928 258.558C788.872 258.168 788.817 257.751 788.789 257.333ZM310.752 158.323C285.756 170.793 261.317 184.433 237.491 198.963C191.479 226.965 147.473 258.335 105.637 292.378C101.072 296.052 96.5347 299.754 92.0255 303.484C131.857 269.943 173.777 238.851 217.505 210.737C230.254 202.553 243.169 194.62 256.251 186.966C274.121 176.861 292.298 167.314 310.752 158.323ZM-74.2324 463.621C-92.2138 485.694 -109.304 508.463 -125.337 531.928C-115.512 517.231 -105.268 502.841 -94.6354 488.7C-87.955 480.238 -81.1633 471.86 -74.2324 463.621ZM-233.643 842.932C-233.671 843.656 -233.643 844.407 -233.671 845.159C-233.726 845.159 -233.782 845.159 -233.838 845.159C-233.838 844.407 -233.782 843.683 -233.782 842.932C-233.726 842.932 -233.699 842.932 -233.643 842.932ZM-233.726 848.054C-233.754 849.251 -233.782 850.447 -233.782 851.644C-233.81 850.447 -233.838 849.251 -233.838 848.054C-233.782 848.054 -233.754 848.054 -233.726 848.054ZM781.663 320.881C781.134 323.136 780.577 325.391 779.993 327.617C777.182 333.129 774.148 338.557 770.947 343.929C774.816 336.413 778.434 328.731 781.663 320.881ZM785.087 221.342C784.085 218.976 782.999 216.61 781.885 214.272C781.44 212.491 780.911 210.709 780.383 208.928C782.025 212.658 783.584 216.443 784.975 220.285C785.003 220.674 785.031 221.008 785.087 221.342ZM753.578 171.406C748.233 164.308 742.416 157.544 736.181 151.142C739.076 153.396 741.887 155.762 744.615 158.212C748.345 162.888 751.796 167.787 754.886 172.937C754.413 172.408 753.995 171.907 753.578 171.406ZM723.238 415.994C728.025 410.093 732.646 404.109 737.155 398.013C742.806 390.803 748.233 383.399 753.411 375.884C753.383 375.939 753.355 375.995 753.327 376.051C747.621 386.378 741.469 396.426 734.9 406.169C720.983 423.76 705.952 440.462 690.086 456.383C701.749 443.412 712.855 429.968 723.238 415.994ZM763.737 360.212C768.414 352.753 772.839 345.154 777.014 337.36C777.154 337.109 777.265 336.859 777.404 336.608C775.818 341.702 774.092 346.74 772.199 351.695C767.69 359.517 762.902 367.171 757.892 374.687C755.248 378.639 752.548 382.509 749.82 386.378C754.83 377.86 759.506 369.12 763.737 360.212ZM770.251 189.276C770.362 189.554 770.501 189.833 770.64 190.111C772.255 193.813 773.702 197.571 775.01 201.357C771.782 193.702 767.996 186.242 763.737 179.088C763.932 179.339 764.099 179.617 764.294 179.868C766.382 182.93 768.358 186.075 770.251 189.276ZM634.333 96.6402C626.261 94.9423 618.077 93.6062 609.838 92.6319C593.193 89.4309 576.214 87.7051 559.151 87.2597C578.524 87.0927 597.813 88.5401 616.769 91.9361C622.67 93.3 628.515 94.8587 634.333 96.6402ZM-228.466 753.247C-229.106 756.086 -229.69 758.925 -230.275 761.764C-230.303 761.876 -230.331 761.987 -230.358 762.098C-230.219 757.951 -230.08 753.831 -229.913 749.684C-229.05 746.622 -228.132 743.532 -227.213 740.498C-227.714 744.757 -228.132 749.016 -228.466 753.247ZM-215.662 841.457C-130.849 833.997 -46.8151 818.938 35.6597 797.56C45.8752 795.027 56.0906 792.439 66.2503 789.711C182.684 758.619 296.055 715.335 403.247 660.249C458.221 631.996 511.887 600.626 562.602 565.192C512.416 602.129 459.279 634.919 404.361 664.369C387.215 673.582 369.873 682.462 352.393 691.007C269.417 730.199 182.823 762.237 94.6976 787.428C-6.23175 816.294 -110.167 836.196 -214.966 843.85C-215.188 843.071 -215.411 842.264 -215.662 841.457ZM551.468 576.493C584.341 553.055 616.658 527.725 646.692 500.057C671.047 479.041 694.512 456.606 715.917 432.445C710.851 439.014 705.646 445.444 700.329 451.818C691.533 462.285 682.32 472.194 672.828 481.825C658.493 495.325 643.685 508.268 628.655 520.766C582.643 558.956 532.986 592.609 481.408 622.978C505.234 608.197 528.644 592.748 551.468 576.493ZM734.483 410.344C743.835 398.597 752.659 386.489 760.87 373.935C746.173 398.681 728.777 421.728 709.71 443.384C718.422 432.696 726.689 421.673 734.483 410.344ZM607.444 83.8638C595.169 81.637 582.755 80.2452 570.285 79.5772C578.245 79.8555 586.178 80.3844 594.084 81.303C604.772 82.305 615.238 84.2814 625.537 87.1484C619.525 85.868 613.512 84.7824 607.444 83.8638ZM-224.012 719.566C-224.29 721.153 -224.597 722.739 -224.847 724.326C-225.292 725.718 -225.71 727.109 -226.155 728.501C-225.626 726.079 -225.042 723.658 -224.485 721.236C-224.318 720.679 -224.179 720.123 -224.012 719.566ZM-212.321 851.839C-185.294 849.668 -158.35 846.69 -131.489 842.96C-155.677 846.578 -179.977 849.612 -204.305 852.006C-206.866 852.257 -209.454 852.479 -212.015 852.73C-212.127 852.424 -212.238 852.145 -212.321 851.839ZM-212.85 850.308C-213.24 849.111 -213.685 847.942 -214.075 846.745C-129.652 840.427 -45.813 826.175 36.2999 805.8C94.3079 791.409 151.592 773.928 207.819 753.553C181.542 763.462 155.072 772.787 128.35 781.416C98.8172 790.963 69.006 799.732 38.9722 807.665C-43.614 828.652 -127.926 843.489 -212.85 850.308ZM294.051 720.54C317.098 710.408 339.951 699.747 362.553 688.585C363.304 688.223 364.056 687.889 364.807 687.528C411.598 665.009 457.72 640.291 502.145 612.901C471.304 632.052 439.711 649.978 407.757 666.846C357.877 693.234 306.243 716.922 253.746 737.659C253.134 737.909 252.494 738.132 251.881 738.383C266.049 732.621 280.106 726.692 294.051 720.54ZM787.703 311.25C787.536 311.668 787.369 312.085 787.174 312.503C787.703 309.163 788.148 305.85 788.51 302.51C788.761 301.758 788.984 301.035 789.234 300.283C789.178 302.315 789.123 304.375 788.984 306.435C788.594 308.021 788.149 309.636 787.703 311.25ZM792.185 237.181C792.129 236.902 792.045 236.624 791.99 236.318C792.017 236.095 792.018 235.844 792.045 235.622C792.101 236.011 792.157 236.373 792.212 236.763C792.212 236.93 792.185 237.069 792.185 237.181ZM789.067 224.85C788.677 223.569 788.316 222.261 787.898 220.98C787.898 220.813 787.87 220.646 787.842 220.452C788.315 221.593 788.761 222.762 789.206 223.931C789.178 224.237 789.123 224.543 789.067 224.85ZM781.301 200.494C780.717 199.408 780.16 198.322 779.548 197.237C780.049 197.961 780.522 198.712 780.995 199.436C781.106 199.798 781.218 200.132 781.301 200.494ZM574.516 73.0916C594.445 74.706 614.514 78.0741 633.748 83.9473C593.777 73.4534 551.218 72.34 510.022 77.4339C501.059 78.5473 492.124 79.9669 483.245 81.6092C488.2 80.5793 493.154 79.5772 498.165 78.6865C519.375 74.8452 541.309 72.507 562.881 72.4792C563.938 72.4792 564.996 72.507 566.054 72.507C568.865 72.674 571.676 72.8689 574.516 73.0916ZM289.291 151.448C255.611 169.569 222.989 189.638 191.424 211.266C179.51 219.282 167.708 227.494 156.101 235.928C214.248 192.004 276.515 152.895 342.512 122.527C363.332 112.952 384.431 104.128 405.92 96.3619C407.868 95.7495 409.789 95.1093 411.737 94.5247C434.951 87.5102 458.472 81.8318 482.299 77.8236C413.296 92.1031 345.546 121.163 289.291 151.448ZM389.553 99.2289C377.89 103.404 366.339 107.858 354.87 112.562C365.643 107.997 376.526 103.683 387.521 99.5908C399.434 95.1928 411.514 91.0732 423.762 87.3154C415.022 90.1546 406.337 93.1886 397.708 96.4175C395.008 97.3639 392.281 98.2825 389.553 99.2289ZM-150.138 556.507C-155.844 565.609 -161.356 574.795 -166.7 584.12C-165.169 581.225 -163.61 578.358 -162.052 575.518C-158.155 569.116 -154.174 562.798 -150.138 556.507ZM-235.536 854.706C-235.563 854.706 -235.591 854.706 -235.619 854.706C-235.758 854.317 -235.898 853.927 -236.009 853.509C-235.925 853.509 -235.842 853.509 -235.758 853.482C-235.703 853.899 -235.619 854.289 -235.536 854.706ZM-235.285 861.192C-235.202 861.442 -235.118 861.693 -235.007 861.916C-234.951 862.667 -234.896 863.391 -234.84 864.142C-235.062 864.17 -235.257 864.17 -235.48 864.198C-235.591 863.196 -235.647 862.222 -235.758 861.22C-235.619 861.22 -235.452 861.22 -235.285 861.192ZM-206.977 912.353C-206.615 912.325 -206.226 912.297 -205.864 912.242C-204.889 914.274 -203.832 916.25 -202.802 918.254C-204.221 916.334 -205.585 914.329 -206.977 912.353ZM672.717 484.581C676.169 481.24 679.592 477.872 682.988 474.476C688.138 469.466 693.204 464.4 698.186 459.25C693.343 464.734 688.333 470.078 683.155 475.284C665.257 493.683 646.33 511.024 626.734 527.558C642.6 513.835 658.02 499.556 672.717 484.581ZM789.93 218.531C789.902 218.781 789.874 219.032 789.847 219.282C789.039 217.139 788.149 215.024 787.258 212.908C787.119 211.489 786.868 210.069 786.701 208.649C787.007 209.206 787.341 209.735 787.647 210.292C788.482 213.02 789.234 215.775 789.93 218.531ZM664.005 85.1721C628.849 72.1173 591.189 67.4967 552.832 68.9719C535.936 68.7771 518.985 69.807 502.256 71.8668C490.705 73.2864 479.237 75.2071 467.797 77.4617C484.08 73.3978 500.642 69.9462 517.371 67.5523C556.312 63.4049 595.587 64.8523 633.999 74.4833C640.067 76.0143 646.051 77.8514 651.98 79.9112C656.044 81.5257 660.052 83.3071 664.005 85.1721ZM574.46 63.6832C578.774 63.7668 583.117 63.9059 587.403 64.1564C590.493 64.3513 593.555 64.574 596.561 64.8245C601.877 65.6595 607.166 66.5781 612.399 67.7194C599.929 65.576 587.264 64.24 574.46 63.6832ZM522.548 60.3708C517.204 60.7327 511.859 61.2337 506.515 61.7904C520.043 59.842 533.654 58.4502 547.404 57.8657C583.924 56.3069 621.919 59.675 656.545 72.2008C667.902 76.3205 678.785 81.1638 689.279 86.7309C658.967 72.4792 625.398 64.574 592.302 62.5698C569.31 59.3688 545.846 58.7842 522.548 60.3708ZM-186.797 618.886C-186.852 618.997 -186.88 619.081 -186.936 619.192C-186.908 619.108 -186.852 619.025 -186.825 618.941C-186.825 618.914 -186.797 618.886 -186.797 618.886ZM-236.482 849.473C-236.343 850.308 -236.176 851.143 -236.037 851.978C-236.176 851.978 -236.287 852.006 -236.426 852.006C-236.454 851.394 -236.482 850.809 -236.51 850.197C-236.51 849.946 -236.51 849.696 -236.482 849.473ZM-225.153 902.75C-224.986 903.307 -224.791 903.863 -224.597 904.42C-224.819 903.863 -225.014 903.307 -225.209 902.75C-225.209 902.75 -225.181 902.75 -225.153 902.75ZM-210.735 912.659C-210.484 912.631 -210.262 912.632 -210.011 912.604C-209.454 913.439 -208.898 914.246 -208.341 915.081C-203.498 924.072 -197.986 932.923 -191.696 941.608C-187.687 947.119 -183.429 952.408 -178.975 957.418C-187.354 949.485 -195.036 940.856 -201.354 931.977C-204.75 925.658 -207.896 919.228 -210.735 912.659ZM128.378 1038.42C60.2101 1046.13 -11.8544 1045.43 -77.1829 1022.14C-98.5045 1014.54 -120.021 1004.13 -139.116 990.793C-110.279 1008.33 -77.7953 1019.74 -43.6976 1026.51C-34.4285 1028.84 -25.0482 1030.85 -15.64 1032.43C65.4988 1046.3 150.228 1036.11 229.78 1017.68C269.083 1008.58 307.857 997.112 345.991 983.751C316.876 994.69 287.371 1004.65 257.476 1013.23C215.056 1024.67 171.995 1033.46 128.378 1038.42ZM164.006 1023.69C193.038 1018.6 221.847 1012.06 250.378 1004.35C251.993 1003.93 253.579 1003.57 255.194 1003.15C367.34 974.175 475.034 927.273 575.239 869.515C611.313 848.722 646.664 826.342 680.845 802.348C668.904 811.144 656.796 819.745 644.576 828.124C593.082 863.474 539.082 895.568 483.189 923.738C433.198 947.982 381.759 969.304 329.04 986.701C259.146 1009.78 186.943 1027.48 113.403 1033.35C86.3471 1035.52 58.874 1036.25 31.6793 1034.47C76.9667 1035.64 122.505 1030.99 164.006 1023.69ZM457.776 938.49C460.866 937.015 463.928 935.484 466.989 934.009C495.214 920.732 522.965 906.563 550.188 891.56C577.021 876.78 603.436 861.136 629.323 844.63C624.424 847.775 619.469 850.921 614.542 854.01C542.394 899.076 466.321 938.63 387.131 969.972C410.986 960.119 434.562 949.597 457.776 938.49ZM980.07 438.096C978.901 443.245 977.593 448.367 976.146 453.488C976.981 449.118 977.704 444.748 978.372 440.35C979.152 437.706 979.875 435.062 980.599 432.389C980.432 434.282 980.237 436.203 980.07 438.096ZM929.995 557.62C912.487 586.179 892.335 613.152 870.54 638.677C880.56 626.29 890.136 613.569 899.21 600.514C910.065 586.625 920.336 572.317 929.995 557.62ZM816.011 696.908C782.943 728.724 747.76 758.257 711.046 785.758C674.749 812.953 636.866 838.367 597.925 861.721C652.398 827.734 704.477 789.878 753.104 748.097C758.059 743.838 762.958 739.524 767.857 735.182C789.429 716.866 810.305 697.743 830.318 677.785C845.878 662.253 860.993 646.109 875.439 629.38C856.901 653.04 836.832 675.503 816.011 696.908ZM775.122 725.161C741.998 753.664 707.26 780.386 671.214 805.271C717.838 772.536 762.29 736.713 803.541 697.604C807.633 693.735 811.725 689.81 815.761 685.83C802.595 699.33 789.039 712.44 775.122 725.161ZM-191.974 931.587C-193.087 929.778 -194.145 927.913 -195.231 926.048C-192.503 929.973 -189.608 933.786 -186.63 937.516C-188.439 935.568 -190.22 933.591 -191.974 931.587ZM-209.649 859.271C-195.426 858.047 -181.202 856.599 -167.034 854.929C-107.69 848.527 -48.7635 838.367 9.38361 825.062C-62.3469 842.459 -135.191 854.929 -208.619 861.916C-208.953 861.025 -209.315 860.162 -209.649 859.271ZM139.595 787.206C163.283 779.551 186.803 771.395 210.129 762.739C198.745 767.053 187.304 771.284 175.808 775.348C163.784 779.412 151.703 783.364 139.595 787.206ZM788.399 207.007C787.258 203.611 786.005 200.215 784.669 196.903C784.419 195.65 784.196 194.426 783.918 193.173C783.472 191.308 782.999 189.499 782.498 187.662C785.671 193.563 788.51 199.659 790.988 205.922C790.904 207.703 790.821 209.457 790.682 211.21C789.93 209.818 789.178 208.399 788.399 207.007ZM768.608 166.618C766.66 163.668 764.6 160.773 762.485 157.934C764.127 159.965 765.741 162.025 767.3 164.113C767.745 164.92 768.163 165.783 768.608 166.618ZM-241.325 833.774C-241.325 833.969 -241.298 834.164 -241.298 834.359C-241.353 834.164 -241.381 833.969 -241.437 833.774C-241.409 833.774 -241.353 833.774 -241.325 833.774ZM-223.205 902.611C-222.676 902.583 -222.147 902.555 -221.618 902.499C-221.284 903.14 -220.95 903.78 -220.616 904.42C-221.256 904.476 -221.897 904.504 -222.537 904.559C-222.759 903.919 -222.982 903.279 -223.205 902.611ZM-212.099 919.089C-209.065 923.933 -205.891 928.609 -202.579 933.09C-201.16 935.623 -199.712 938.156 -198.181 940.662C-195.008 945.895 -191.64 950.905 -188.161 955.72C-190.304 953.438 -192.447 951.128 -194.591 948.845C-200.937 940.55 -206.226 931.198 -211.152 921.901C-211.459 920.954 -211.792 920.008 -212.099 919.089ZM-36.9615 1041.79C-23.5729 1044.1 -10.073 1045.68 3.4826 1046.74C21.3804 1049 39.5566 1050.14 57.6772 1050.39C46.7659 1050.47 35.8825 1050.28 24.9713 1049.69C-3.33685 1048.19 -32.6749 1044.68 -60.3984 1036.94C-52.6325 1038.84 -44.8109 1040.45 -36.9615 1041.79ZM772.338 741.138C786.868 728.028 801.12 714.472 814.981 700.471C817.876 697.688 820.743 694.876 823.582 692.037C831.933 683.909 840.144 675.614 848.188 667.18C821.216 696.908 792.213 724.883 761.678 750.936C758.866 753.33 755.999 755.641 753.16 758.034C759.618 752.439 766.02 746.845 772.338 741.138ZM953.293 519.013C953.321 518.957 953.349 518.929 953.349 518.874C953.516 518.512 953.711 518.178 953.878 517.816C954.1 517.426 954.323 517.036 954.518 516.675C953.794 518.957 953.07 521.212 952.291 523.439C950.677 526.528 949.006 529.59 947.336 532.652C949.396 528.115 951.372 523.578 953.293 519.013ZM983.828 409.342C983.856 407.115 983.884 404.86 983.856 402.633C983.995 404.248 984.162 405.862 984.273 407.477C984.106 408.089 983.967 408.729 983.828 409.342ZM981.295 419.502C981.016 420.504 980.738 421.506 980.46 422.508C980.905 417.47 981.184 412.459 981.351 407.421C981.406 411.429 981.406 415.466 981.295 419.502ZM961.95 485.026C961.727 486.362 961.504 487.67 961.281 488.979C958.136 495.381 954.852 501.727 951.4 507.99C951.539 507.684 951.679 507.378 951.818 507.044C955.409 499.806 958.749 492.43 961.95 485.026ZM-206.17 866.787C-142.706 861.582 -79.6046 851.867 -17.3379 838.506C-79.4097 852.118 -142.205 862.222 -205.502 868.039C-205.724 867.594 -205.947 867.177 -206.17 866.787ZM386.268 692.844C291.685 740.776 191.953 778.688 90.1605 808.138C24.9433 827.01 -41.5543 841.707 -108.72 851.895C-66.9954 844.992 -25.577 836.363 15.4238 826.203C70.3699 812.564 124.676 796.169 178.035 777.157C233.649 758.201 288.289 736.406 341.593 711.883C422.426 674.695 500.809 631.105 573.319 579.415C577.355 576.548 581.363 573.653 585.343 570.731C583.228 572.345 581.113 573.96 578.997 575.574C566.833 584.732 554.447 593.639 541.893 602.296C492.124 635.865 439.823 665.705 386.268 692.844ZM756.751 389.495C758.226 386.74 759.673 383.956 761.093 381.172C763.125 378.055 765.101 374.882 767.05 371.681C760.787 384.067 753.772 396.092 746.173 407.727C749.82 401.743 753.383 395.703 756.751 389.495ZM781.385 338.919C781.385 338.919 781.385 338.891 781.412 338.891C781.412 338.918 781.385 338.946 781.385 338.974C781.385 338.946 781.385 338.919 781.385 338.919ZM790.765 200.02C787.675 193.034 784.112 186.27 780.16 179.729C778.657 175.052 776.959 170.432 775.066 165.894C779.297 172.241 782.888 178.921 785.838 185.991C787.62 190.028 789.178 194.147 790.626 198.35C790.682 198.935 790.709 199.492 790.765 200.02ZM771.364 166.479C770.473 165.254 769.61 164.029 768.692 162.833C761.65 149.722 753.049 137.391 743.279 126.09C750.015 132.52 756.389 139.367 762.012 146.827L767.579 155.206C768.859 158.936 770.112 162.693 771.364 166.479ZM746.34 118.073C747.454 119.242 748.567 120.439 749.653 121.636C756.918 129.709 763.821 138.115 769.861 147.189C772.533 151.587 775.205 155.985 777.877 160.383C778.016 160.689 778.156 161.023 778.295 161.329C773.73 154.816 768.748 148.637 763.459 142.708C758.365 134.107 752.631 125.895 746.34 118.073ZM630.185 54.1357C618.133 50.6842 605.83 48.1233 593.36 46.3975C614.32 48.513 635.029 52.7997 655.07 59.7306C658.438 60.8997 661.75 62.1523 665.062 63.4884C653.65 59.5636 642.015 56.4739 630.185 54.1357ZM224.436 166.451C296 120.384 373.269 81.8597 455.549 59.3131C456.913 58.9512 458.277 58.5894 459.669 58.2275C497.58 49.7378 536.41 45.5903 574.85 48.4852C564.829 48.346 554.781 48.5965 544.788 49.2646C499 52.41 453.99 63.5162 410.763 78.6308C377.528 90.2659 345.212 104.434 313.842 120.412C307.412 123.473 301.01 126.563 294.691 129.736C247.873 153.257 202.975 180.647 160.137 210.932C181.069 195.4 202.502 180.536 224.436 166.451ZM-65.2417 428.715C-92.9374 461.95 -118.685 496.8 -141.927 533.237C-141.676 532.847 -141.454 532.429 -141.231 532.04C-130.264 513.668 -118.239 495.909 -105.714 478.54C-92.7148 461.533 -79.2148 444.915 -65.2417 428.715ZM-216.664 913.133C-215.773 914.997 -214.799 916.835 -213.852 918.7C-210.54 928.303 -206.671 937.711 -202.217 946.869C-203.832 944.698 -205.391 942.527 -206.894 940.3C-211.598 931.615 -215.773 922.596 -219.336 913.383C-218.445 913.299 -217.554 913.216 -216.664 913.133ZM-196.344 954.329C-201.076 945.95 -205.223 937.182 -208.758 928.191C-201.855 940.328 -193.867 951.907 -184.654 962.735C-178.53 969.917 -171.961 976.625 -165.002 982.86C-160.27 987.564 -155.399 992.018 -150.333 996.221C-166.115 985.504 -180.562 972.923 -193.06 958.365C-194.201 957.029 -195.231 955.665 -196.344 954.329ZM317.098 1003.79C326.145 1000.76 335.163 997.64 344.154 994.384C339.283 996.193 334.384 997.947 329.485 999.672C325.365 1001.09 321.246 1002.46 317.098 1003.79ZM917.33 588.35C924.011 577.578 930.357 566.611 936.202 555.393C938.179 552.22 940.183 549.019 942.103 545.818C939.208 551.385 936.202 556.924 933.113 562.408C928.13 571.204 922.842 579.833 917.33 588.35ZM984.886 424.651C984.886 425.347 984.886 426.071 984.886 426.767C984.58 428.158 984.301 429.55 983.995 430.914C984.329 428.826 984.635 426.739 984.886 424.651ZM990.091 385.376C990.119 385.264 990.119 385.153 990.146 385.042V385.069C990.119 385.181 990.091 385.292 990.091 385.376ZM985.442 394.728C985.192 392.446 984.941 390.191 984.635 387.936C984.941 386.573 985.22 385.181 985.498 383.817C985.554 387.435 985.526 391.082 985.442 394.728ZM984.051 379.558C984.078 379.335 984.134 379.085 984.162 378.862C984.162 378.973 984.162 379.085 984.134 379.196C984.106 379.335 984.078 379.447 984.051 379.558ZM794.495 293.074C794.467 292.601 794.439 292.127 794.384 291.654C794.634 289.427 794.857 287.173 795.024 284.918C795.469 281.8 795.831 278.655 796.109 275.51C796.304 277.876 796.443 280.242 796.527 282.58C795.914 286.087 795.246 289.594 794.495 293.074ZM795.775 221.788C795.441 221.036 795.107 220.257 794.745 219.477C794.718 218.336 794.662 217.195 794.634 216.054C795.079 217.445 795.525 218.837 795.942 220.229C795.887 220.758 795.831 221.287 795.775 221.788ZM789.874 192.199C784.836 179.255 778.184 166.98 770.306 155.484C770.084 155.011 769.861 154.565 769.638 154.092C772.533 157.794 775.289 161.608 777.822 165.616C780.216 169.986 782.637 174.384 785.031 178.754C786.144 180.508 787.202 182.317 788.204 184.126C788.65 185.852 789.067 187.606 789.429 189.332C789.624 190.278 789.735 191.225 789.874 192.199ZM103.187 250.848C128.406 230.305 154.32 210.626 180.986 192.004C140.792 220.591 102.38 251.711 65.8049 284.835C55.6174 293.63 45.569 302.566 35.6319 311.64C22.5495 323.609 9.68982 335.884 -2.9472 348.383L-0.887451 346.156C31.6794 312.391 66.807 280.464 103.187 250.848ZM-97.8642 458.499C-94.2178 453.823 -90.5715 449.146 -86.8416 444.498C-58.7841 409.704 -28.5831 376.496 3.39917 345.042C-36.5439 386.099 -73.8984 430.246 -107.105 477.176C-122.971 497.914 -138.058 519.208 -152.226 541.058C-147.021 532.095 -141.676 523.216 -136.054 514.503C-124.001 495.436 -111.225 476.759 -97.8642 458.499ZM-134.662 518.261C-134.384 517.872 -134.105 517.51 -133.855 517.12C-141.593 529.34 -149.08 541.699 -156.234 554.252C-164.668 569.088 -172.74 584.314 -180.256 599.846C-181.926 603.131 -183.568 606.416 -185.182 609.728C-190.053 619.359 -194.702 629.129 -199.1 638.983C-196.483 632.497 -193.7 626.067 -190.694 619.693C-185.294 605.302 -179.17 591.273 -172.35 577.55C-160.632 557.286 -147.995 537.523 -134.662 518.261ZM628.988 859.939C548.852 911.49 463.343 955.693 374.216 989.457C307.412 1014.76 238.66 1035.02 168.154 1046.6C181.793 1044.07 195.349 1041.23 208.765 1038.11C254.832 1027.45 300.175 1013.59 344.599 997.139C390.555 981.134 435.453 962.317 479.432 941.497C562.407 902.193 641.57 854.372 714.971 799.147C694.985 814.651 674.471 829.515 653.567 843.767C645.411 849.251 637.228 854.651 628.988 859.939ZM891.277 596.367C885.125 603.994 878.835 611.482 872.377 618.83C880.393 609.394 888.215 599.763 895.786 589.909C894.283 592.053 892.808 594.224 891.277 596.367ZM789.262 322.523C789.373 322.301 789.457 322.078 789.568 321.855C789.457 322.134 789.345 322.44 789.234 322.746C789.234 322.663 789.262 322.607 789.262 322.523ZM794.829 298.418C794.885 298.251 794.912 298.084 794.968 297.889C795.525 296.386 796.054 294.883 796.583 293.38C796.527 295.022 796.443 296.665 796.332 298.307C795.887 299.643 795.441 300.979 794.968 302.315C794.94 301.035 794.885 299.726 794.829 298.418ZM425.905 60.0925C466.934 47.0656 510.44 38.4088 553.807 37.5459C557.843 37.5738 561.851 37.6573 565.887 37.8521C544.816 38.214 523.745 40.3851 503.175 43.948C496.828 45.0336 490.51 46.2862 484.191 47.6223C462.257 51.8254 440.574 57.5595 419.308 64.3791C393.561 72.006 368.398 81.303 344.432 91.5185C348.496 89.6257 352.588 87.7886 356.68 85.9515C379.337 76.2091 402.412 67.5524 425.905 60.0925ZM-171.265 571.677C-172.685 574.071 -174.076 576.465 -175.468 578.859C-172.183 572.651 -168.788 566.5 -165.336 560.348C-167.368 564.106 -169.344 567.892 -171.265 571.677ZM-241.465 810.977C-241.465 811.033 -241.465 811.116 -241.465 811.172C-241.632 811.172 -241.799 811.2 -241.966 811.2C-241.966 811.144 -241.938 811.061 -241.938 811.005C-241.771 810.977 -241.604 810.977 -241.465 810.977ZM-27.609 1059.94C-16.0297 1061.94 -4.33899 1063.42 7.37952 1064.42C-2.25134 1063.8 -11.8544 1062.91 -21.4575 1061.58C-34.7347 1059.3 -47.9006 1056.32 -60.7882 1052.56C-49.877 1055.57 -38.7708 1057.99 -27.609 1059.94ZM979.987 454.741C980.209 453.349 980.376 451.93 980.599 450.538C981.1 448.84 981.545 447.114 982.019 445.388C982.909 442.939 983.8 440.517 984.635 438.068C984.579 439.153 984.496 440.239 984.44 441.325C983.021 445.834 981.545 450.288 979.987 454.741ZM977.482 415.187C977.732 414.408 977.955 413.656 978.177 412.877C978.01 415.187 977.843 417.498 977.593 419.808C977.008 425.57 976.257 431.248 975.394 436.899L974.782 439.098C973.807 441.714 972.777 444.331 971.748 446.919C974.197 436.453 976.118 425.876 977.482 415.187ZM358.044 716.615C307.802 740.804 256.307 762.488 203.866 781.611C269.529 757.116 333.688 728.473 395.593 695.99C458.444 663.005 519.458 625.761 576.13 582.895C586.819 575.129 597.368 567.196 607.778 559.068C624.646 545.874 641.18 532.123 657.157 517.76C630.77 543.007 602.49 566.361 573.263 588.183C547.627 607.334 521.184 625.427 494.073 642.546C450.121 669.685 404.5 694.236 358.044 716.615ZM731.421 439.794C739.437 429.829 747.009 419.529 754.19 408.924C749.235 416.579 744.086 424.039 738.769 431.192C733.314 438.569 727.663 445.806 721.846 452.904C725.13 448.617 728.303 444.219 731.421 439.794ZM-40.7192 382.481C-53.6346 397.289 -66.216 412.432 -78.352 427.936C-91.1839 443.858 -103.543 460.141 -115.4 476.787C-118.434 480.823 -121.44 484.887 -124.391 488.979C-98.9498 451.679 -70.7531 416.189 -40.7192 382.481ZM-166.143 556.284C-166.31 556.59 -166.477 556.897 -166.644 557.175C-166.477 556.897 -166.338 556.618 -166.199 556.34C-166.171 556.312 -166.171 556.284 -166.143 556.284ZM-241.993 796.28C-241.993 796.308 -241.993 796.336 -242.021 796.364C-242.634 796.391 -243.218 796.447 -243.83 796.475C-243.524 793.858 -243.19 791.242 -242.828 788.653C-242.55 791.214 -242.3 793.747 -241.993 796.28ZM-243.886 811.088C-243.886 811.172 -243.914 811.228 -243.914 811.311C-244.359 811.339 -244.805 811.367 -245.25 811.395C-245.25 811.311 -245.222 811.228 -245.222 811.172C-244.777 811.144 -244.331 811.116 -243.886 811.088ZM-245.751 833.997C-245.695 833.997 -245.64 833.997 -245.584 833.997C-245.612 834.414 -245.612 834.832 -245.64 835.222C-245.668 835.222 -245.668 835.222 -245.695 835.222C-245.695 834.832 -245.723 834.414 -245.751 833.997ZM-242.105 855.179C-242.439 855.207 -242.773 855.235 -243.079 855.235C-243.107 854.79 -243.135 854.372 -243.162 853.927C-242.801 853.899 -242.439 853.871 -242.077 853.871C-242.077 854.317 -242.105 854.734 -242.105 855.179ZM-242.133 856.933C-242.133 857.629 -242.16 858.325 -242.16 858.993C-242.216 858.993 -242.272 858.993 -242.3 858.993C-242.467 858.325 -242.634 857.629 -242.773 856.961C-242.578 856.961 -242.355 856.933 -242.133 856.933ZM-230.136 905.088C-230.164 905.088 -230.164 905.088 -230.191 905.088C-230.386 904.587 -230.609 904.086 -230.804 903.585C-230.581 904.086 -230.386 904.587 -230.136 905.088ZM885.32 644.049C892.613 635.169 899.655 626.095 906.475 616.854C893.893 634.557 880.449 651.648 866.281 668.154C872.794 660.249 879.141 652.205 885.32 644.049ZM986.806 433.197C986.834 432.417 986.89 431.638 986.89 430.831C987.085 430.19 987.307 429.578 987.502 428.938C987.391 429.94 987.279 430.914 987.168 431.916C987.057 432.362 986.917 432.779 986.806 433.197ZM963.675 465.987C963.23 466.961 962.812 467.935 962.367 468.881C962.172 469.299 961.949 469.717 961.755 470.134C964.009 463.481 966.069 456.773 967.934 450.009C966.654 455.381 965.206 460.698 963.675 465.987ZM945.026 502.033C949.118 493.516 952.931 484.887 956.438 476.119C954.406 481.881 952.235 487.642 949.897 493.321C948.311 496.243 946.668 499.166 945.026 502.033ZM356.374 725.773C343.43 732.064 330.404 738.132 317.293 744.061C335.386 735.766 353.312 727.193 371.07 718.258C401.048 703.199 430.748 687.166 459.892 670.103C509.994 641.293 558.399 609.45 603.854 573.848C606.359 571.872 608.864 569.868 611.341 567.892C602.852 574.823 594.25 581.642 585.538 588.295C514.531 642.24 436.482 686.915 356.374 725.773ZM793.827 203.667C793.688 202.219 793.493 200.772 793.298 199.325C794.161 202.693 794.912 206.061 795.525 209.484C795.024 207.536 794.411 205.588 793.827 203.667ZM789.986 179.673C789.763 179.033 789.54 178.392 789.29 177.78C789.178 177.196 789.011 176.611 788.9 176.026L789.791 178.058C789.874 178.615 789.93 179.144 789.986 179.673ZM193.261 168.817C213.33 155.54 233.872 142.819 254.86 130.822C250.156 133.578 245.507 136.389 240.859 139.2C167.959 183.542 100.376 236.29 38.2484 294.744C32.2917 300.172 26.3629 305.655 20.5176 311.195C21.4362 310.304 22.3547 309.385 23.2733 308.495C74.3781 258.892 129.157 213.103 187.666 172.575C189.559 171.294 191.396 170.042 193.261 168.817ZM-243.496 843.85C-243.357 844.435 -243.19 845.02 -243.051 845.604C-243.19 845.604 -243.329 845.632 -243.469 845.632C-243.469 845.047 -243.469 844.463 -243.496 843.85ZM-242.3 848.555C-242.216 848.944 -242.105 849.334 -242.021 849.696C-242.049 850.559 -242.049 851.422 -242.049 852.312C-242.439 852.34 -242.828 852.368 -243.246 852.368C-243.302 851.116 -243.357 849.863 -243.385 848.582C-243.023 848.582 -242.661 848.555 -242.3 848.555ZM-34.7347 1065.59C-34.4563 1065.64 -34.2058 1065.67 -33.9275 1065.7C-29.8636 1066.53 -25.8275 1067.31 -21.7357 1068.04C-6.73273 1070.62 8.38153 1072.38 23.5237 1073.44C6.71143 1072.74 -10.1565 1071.21 -26.8296 1068.62C-36.6275 1066.56 -46.3697 1064.11 -55.9727 1061.24C-48.9583 1062.91 -41.8604 1064.36 -34.7347 1065.59ZM543.424 920.537C479.07 955.999 411.904 986.812 342.595 1011.39C416.246 984.474 487.42 950.682 555.31 911.574C603.213 883.961 649.809 853.593 694.122 820.246C727.385 796.03 759.451 770.226 789.958 742.725C790.347 742.391 790.709 742.029 791.099 741.667C772.923 758.73 754.162 775.181 734.984 791.019C695.514 823.642 653.762 853.565 610.451 881.066C588.489 894.845 566.137 908.011 543.424 920.537ZM990.063 359.433C989.952 358.709 989.84 357.958 989.729 357.234C989.84 356.343 989.952 355.453 990.063 354.534C990.063 356.176 990.063 357.819 990.063 359.433ZM800.118 268.217C800.535 263.93 800.785 259.644 800.869 255.329C801.175 253.77 801.481 252.212 801.76 250.625C802.15 255.023 802.317 259.421 802.344 263.847C801.732 266.742 801.064 269.636 800.368 272.531C800.284 271.112 800.201 269.664 800.118 268.217ZM797.195 205.782C797.028 204.864 796.861 203.917 796.666 202.999C796.722 203.166 796.777 203.305 796.833 203.472C796.944 204.224 797.083 205.003 797.195 205.782ZM792.435 185.184C792.407 184.989 792.407 184.822 792.379 184.628C792.491 185.045 792.63 185.435 792.769 185.852C792.63 185.602 792.546 185.407 792.435 185.184ZM-118.768 467.629C-124.029 474.81 -129.179 482.047 -134.272 489.368C-125.616 476.48 -116.625 463.815 -107.328 451.373C-111.197 456.745 -115.011 462.173 -118.768 467.629ZM-213.991 654.626C-219.586 667.625 -224.68 680.847 -229.189 694.208C-228.855 692.287 -228.493 690.395 -228.076 688.502C-222.509 671.661 -216.079 655.099 -209.12 638.788C-208.452 637.201 -207.701 635.615 -207.005 634.028C-209.51 640.848 -211.82 647.723 -213.991 654.626ZM-235.369 723.045C-235.786 727.805 -236.148 732.565 -236.371 737.325C-236.399 737.742 -236.399 738.132 -236.426 738.55C-237.707 743.532 -238.959 748.515 -240.073 753.525C-239.6 746.789 -238.876 740.053 -237.957 733.372C-237.15 729.949 -236.287 726.497 -235.369 723.045ZM565.692 916.139C534.294 934.12 502.228 951.072 469.578 966.799C496.411 953.633 522.854 939.604 548.824 924.851C555.226 921.316 561.6 917.725 567.919 914.107C619.246 884.768 668.792 852.062 715.722 815.96C712.159 818.771 708.568 821.554 704.978 824.31C660.609 857.907 613.902 888.554 565.692 916.139ZM996.688 372.265C996.66 371.458 996.632 370.623 996.604 369.816C996.465 366.865 996.27 363.915 996.02 360.964C996.409 363.219 996.743 365.473 997.077 367.756C997.022 368.619 996.966 369.482 996.938 370.372C996.827 370.985 996.743 371.625 996.688 372.265ZM987.781 326.894C987.474 329.037 987.112 331.18 986.723 333.324C986.667 331.236 986.667 329.176 986.583 327.089C986.5 325.391 986.389 323.693 986.277 322.022C986.778 323.665 987.279 325.279 987.781 326.894ZM801.454 279.796C801.398 279.462 801.37 279.1 801.314 278.766C801.537 277.987 801.732 277.208 801.955 276.428C801.899 277.124 801.843 277.82 801.788 278.544C801.648 278.961 801.537 279.379 801.454 279.796ZM801.314 232.198C801.342 231.725 801.37 231.252 801.398 230.778C801.537 226.798 801.537 222.818 801.37 218.893C801.648 220.006 801.899 221.12 802.122 222.233C802.094 226.046 801.927 229.832 801.648 233.645C801.537 233.172 801.426 232.671 801.314 232.198ZM-244.109 766.775C-244.053 768.918 -243.97 771.061 -243.858 773.205C-244.666 777.937 -245.389 782.669 -246.002 787.428C-246.224 789.238 -246.419 791.047 -246.614 792.856C-246.614 792.105 -246.642 791.325 -246.642 790.574C-246.057 782.613 -245.194 774.708 -244.109 766.775ZM994.294 342.454C993.988 341.34 993.681 340.199 993.375 339.086C993.32 333.63 993.069 328.202 992.679 322.746C993.236 325.418 993.765 328.091 994.21 330.818C994.322 334.715 994.349 338.612 994.294 342.454ZM805.044 247.313C804.488 245.308 803.875 243.332 803.263 241.356C803.625 238.823 803.903 236.262 804.181 233.729C804.515 236.067 804.794 238.405 805.016 240.771C805.044 242.942 805.044 245.114 805.044 247.313ZM796.805 183.431C795.72 180.703 794.551 178.003 793.326 175.331C792.324 172.324 791.266 169.318 790.097 166.368C792.463 171.211 794.578 176.166 796.471 181.259C796.583 181.983 796.694 182.707 796.805 183.431ZM939.097 584.732C904.248 644.578 859.211 698.133 809.164 745.982C799.199 755.251 789.067 764.325 778.796 773.232C793.159 760.428 807.188 747.234 820.799 733.651C876.329 678.258 927.74 614.571 959.667 542.2C957.412 547.794 955.186 553.362 952.931 558.956C952.458 560.042 951.901 561.128 951.4 562.213C947.476 569.84 943.384 577.356 939.097 584.732ZM984.858 305.071C984.83 304.987 984.83 304.932 984.802 304.848C984.802 304.82 984.802 304.765 984.802 304.737C984.83 304.876 984.858 305.043 984.886 305.182C984.886 305.154 984.858 305.126 984.858 305.071ZM-29.9193 995.469C-37.379 994.245 -44.8945 992.769 -52.382 991.043C-71.2541 985.783 -89.5973 978.796 -107.105 969.75C-80.2448 982.776 -51.0459 991.378 -21.5131 996.36C-16.0296 997.279 -10.5461 998.086 -5.03485 998.782C-13.3297 997.891 -21.6245 996.805 -29.9193 995.469ZM792.992 336.664C794.189 333.658 795.33 330.624 796.443 327.59C794.829 336.191 792.658 344.68 790.097 352.92C791.266 347.52 792.213 342.092 792.992 336.664ZM637.339 26.0778C628.571 23.4891 619.664 21.2901 610.673 19.62C605.19 18.5901 599.678 17.7829 594.139 17.087C614.709 19.1746 635.057 23.2943 654.903 29.8077C669.46 34.5954 683.74 41.1367 697.296 49.0697C678.479 38.7707 658.271 31.116 637.339 26.0778ZM-307.879 835.917C-292.625 835.834 -277.399 835.472 -262.202 834.832C-258.165 834.665 -254.102 834.442 -250.065 834.219C-250.038 834.637 -250.01 835.027 -249.982 835.444C-251.012 835.5 -252.014 835.556 -253.044 835.611C-289.563 837.17 -326.389 837.226 -363.131 835.444C-344.704 836.029 -326.277 836.196 -307.879 835.917ZM-287.086 885.631C-335.045 887.274 -383.144 885.882 -430.909 881.372C-461.973 878.422 -493.036 874.191 -523.738 868.262C-545.422 863.502 -566.938 857.935 -588.176 851.338C-594.606 849.334 -600.98 847.246 -607.354 845.131C-599.616 847.469 -591.85 849.724 -584.029 851.839C-554.941 859.661 -525.436 865.868 -495.709 870.656C-426.984 882.736 -356.979 887.162 -287.086 885.631ZM982.13 478.123C983.104 475.423 984.023 472.723 984.913 469.995C983.522 476.453 981.963 482.91 980.126 489.368C979.875 490.231 979.597 491.066 979.346 491.929C980.376 487.364 981.295 482.743 982.13 478.123ZM986.472 299.225C986.361 298.697 986.249 298.168 986.138 297.667C986.166 297.722 986.166 297.778 986.194 297.834C986.277 298.279 986.389 298.752 986.472 299.225ZM982.353 334.743C981.323 329.733 980.098 324.75 978.79 319.823C978.734 319.322 978.678 318.849 978.623 318.348C980.07 323.192 981.378 327.896 982.575 332.544C982.492 333.268 982.408 333.992 982.353 334.743ZM976.563 329.399C976.646 330.401 976.758 331.403 976.841 332.405C976.953 334.938 977.036 337.471 977.064 340.004C976.34 334.047 975.394 328.118 974.225 322.217C975.004 324.639 975.784 327.005 976.563 329.399ZM790.598 365.696C795.608 350.749 799.227 335.328 800.869 319.629C801.12 317.096 801.314 314.59 801.454 312.057C801.509 311.89 801.537 311.696 801.593 311.529C801.092 325.919 798.698 340.227 794.885 354.256C793.548 358.125 792.101 361.91 790.598 365.696ZM-220.922 648.28C-220.978 648.475 -221.034 648.67 -221.117 648.837C-221.479 649.783 -221.869 650.757 -222.203 651.704C-222.175 651.62 -222.147 651.537 -222.119 651.453C-221.73 650.395 -221.312 649.338 -220.922 648.28ZM-273.864 845.381C-265.625 844.992 -257.386 844.519 -249.147 843.99C-249.063 844.63 -249.008 845.27 -248.952 845.938C-250.845 846.022 -252.766 846.161 -254.658 846.216C-293.738 847.887 -333.153 847.859 -372.428 845.688C-339.583 847.024 -306.682 846.885 -273.864 845.381ZM-247.839 859.243C-285.193 861.025 -322.603 861.136 -359.958 859.577C-351.552 859.8 -343.145 859.967 -334.739 859.995C-305.791 860.134 -276.843 859.188 -247.978 857.323C-247.922 857.963 -247.867 858.603 -247.839 859.243ZM-273.224 877.03C-302.145 878.394 -330.898 878.199 -359.791 877.364C-393.026 876.418 -425.926 874.274 -458.939 870.21C-476.669 868.011 -494.317 865.339 -511.881 862.194C-532.033 858.297 -551.991 853.676 -571.614 848.221C-592.518 842.403 -613.2 835.89 -633.603 828.569C-623.554 832.104 -613.422 835.472 -603.207 838.59C-495.876 871.435 -382.365 881.372 -270.552 876.891C-271.443 876.947 -272.333 877.002 -273.224 877.03ZM-606.575 863.53C-605.044 864.003 -603.513 864.421 -601.982 864.866C-599.839 865.534 -597.696 866.258 -595.524 866.898C-487.358 899.855 -372.957 909.597 -260.337 904.754C-253.573 904.476 -246.809 904.114 -240.045 903.724C-239.878 904.392 -239.683 905.032 -239.516 905.7C-246.085 906.09 -252.654 906.452 -259.223 906.73C-362.519 911.379 -467.985 904.17 -568.051 876.863C-615.621 863.892 -662.078 847.024 -706.252 825.173C-674.019 840.399 -640.645 853.147 -606.575 863.53ZM108.921 1092.75C44.2328 1098.04 -24.7698 1095.04 -85.8118 1070.57C-79.8273 1072.66 -73.7871 1074.6 -67.6912 1076.33C-55.0264 1080.42 -42.1109 1083.73 -29.0007 1086.3C63.1606 1104.19 159.915 1090.5 249.849 1067.2C281.665 1058.96 313.09 1049.25 344.126 1038.28C330.988 1043.04 317.794 1047.58 304.517 1051.89C289.013 1056.9 273.314 1061.63 257.504 1066.03C208.765 1079.03 159.163 1088.63 108.921 1092.75ZM983.383 285.586C983.355 285.586 983.327 285.586 983.327 285.586L983.271 285.141C983.327 285.28 983.355 285.419 983.383 285.586ZM980.71 317.708C979.514 313.922 978.233 310.053 976.953 306.101C976.702 304.625 976.424 303.178 976.146 301.703C976.702 303.456 977.287 305.238 977.843 306.991C978.957 310.554 979.903 314.117 980.71 317.708ZM561.099 835.249C653.205 782.112 740.718 718.759 816.039 643.464C876.329 583.201 932.333 512.611 962.785 431.944C961.254 436.815 959.639 441.659 957.914 446.418C947.281 472.667 933.948 497.941 918.75 521.685C900.657 549.966 880.449 576.827 858.571 602.352C827.034 637.869 792.324 670.659 756.055 701.139C683.684 761.931 603.937 814.651 520.21 858.408C508.63 864.476 496.968 870.35 485.221 876.112C510.969 863.224 536.271 849.585 561.099 835.249ZM803.43 323.136C803.847 316.678 803.903 310.276 803.652 303.874C805.156 297.694 806.352 291.459 807.271 285.169C807.243 297.973 805.879 310.666 803.43 323.136ZM-220.171 630.103C-207.339 592.581 -189.97 556.785 -170.569 522.242C-129.123 448.45 -75.3459 381.312 -17.0039 320.297C53.8359 246.199 133.555 180.063 220.456 125.561C254.247 104.378 289.124 85.1164 325.171 68.0534C335.943 62.9595 346.91 58.0884 357.988 53.4677C316.792 71.0318 277.072 92.0752 238.854 115.373C151.286 168.761 70.8153 234.174 -0.859619 307.465C-20.0657 327.089 -38.7429 347.408 -56.7521 368.396C-77.2386 391.833 -96.8344 416.106 -115.094 441.269C-144.961 482.409 -172.295 525.415 -194.479 571.232C-202.663 588.128 -210.345 605.664 -217.109 623.618C-219.002 628.266 -220.839 632.915 -222.62 637.619C-221.813 635.086 -221.006 632.581 -220.171 630.103ZM-734.56 756.169C-694.589 777.185 -652.391 794.387 -609.108 807.331C-587.619 813.761 -565.908 819.3 -544.058 824.087C-450.171 846.718 -352.609 853.37 -256.301 849.25C-253.712 849.139 -251.151 849 -248.562 848.861C-248.507 849.251 -248.451 849.64 -248.395 850.03C-248.34 850.921 -248.312 851.784 -248.256 852.674C-347.182 858.047 -447.916 852.702 -544.364 829.571C-562.15 825.312 -579.853 820.664 -597.362 815.319C-614.675 810.225 -631.682 804.185 -648.327 797.226C-665.251 791.242 -681.785 784.311 -697.929 776.434C-705.946 772.425 -713.962 768.417 -721.951 764.409C-736.731 756.837 -751.01 748.403 -764.816 739.162C-754.935 745.063 -744.831 750.769 -734.56 756.169ZM-455.125 851.032C-491.505 845.716 -527.858 839.035 -563.319 829.265C-606.77 817.323 -649.329 802.265 -690.024 782.863C-708.451 774.095 -726.237 764.52 -743.578 754.165C-705.333 776.072 -664.889 794.053 -623.22 808.388C-516.78 845.047 -403.13 857.963 -290.927 855.792C-276.676 855.513 -262.424 854.985 -248.173 854.233C-248.145 854.678 -248.117 855.124 -248.089 855.597C-312.388 859.828 -377.271 859.438 -441.403 852.869C-445.968 852.257 -450.56 851.7 -455.125 851.032ZM-344.621 861.971C-403.853 860.691 -462.947 854.901 -521.484 843.489C-534.399 840.984 -547.231 838.061 -559.979 834.888C-519.452 844.379 -478.256 850.921 -436.782 854.929C-406.219 858.631 -375.462 860.941 -344.621 861.971ZM-748.088 761.709C-750.426 760.317 -752.764 758.953 -755.074 757.533C-752.04 759.343 -748.978 761.124 -745.916 762.878C-746.612 762.488 -747.364 762.098 -748.088 761.709ZM-687.769 793.385C-671.041 800.511 -654.061 806.969 -636.859 812.842C-545.923 845.604 -449.141 860.607 -352.748 863.474C-317.676 864.504 -282.604 863.948 -247.588 861.943C-247.505 862.973 -247.393 864.031 -247.282 865.061C-275.896 867.009 -304.427 867.51 -333.125 867.371C-346.402 867.316 -359.624 867.065 -372.817 866.62C-443.212 862.834 -513.189 852.173 -580.8 832.8C-617.403 822.306 -653.226 809.279 -687.769 793.385ZM-348.323 870.572C-328.003 871.185 -307.684 871.296 -287.42 870.906C-273.864 870.656 -260.309 870.155 -246.753 869.487C-246.697 870.044 -246.614 870.628 -246.558 871.185C-253.434 871.602 -260.281 871.992 -267.156 872.298C-370.591 877.141 -475.862 868.791 -576.04 841.902C-582.025 840.288 -587.981 838.617 -593.91 836.864C-514.107 859.216 -431.159 869.264 -348.323 870.572ZM-184.681 1009.58C-190.721 1002.79 -196.344 995.469 -201.466 987.759C-197.875 992.741 -194.09 997.585 -190.109 1002.23C-184.487 1008.75 -178.53 1014.81 -172.267 1020.52C-165.42 1027.9 -158.071 1034.66 -150.361 1040.92C-162.775 1031.66 -174.271 1021.24 -184.681 1009.58ZM994.099 455.966C995.073 447.086 995.602 438.179 995.713 429.216C996.465 425.431 997.161 421.617 997.745 417.804C998.358 413.907 998.886 410.01 999.332 406.113C999.165 418.945 998.079 431.721 996.103 444.414C995.546 448.283 994.851 452.125 994.099 455.966Z" fill="white"/></g><defs><clipPath id="clip0_3133_345"><rect width="732" height="283" fill="white"/></clipPath></defs></svg>