<svg width="347" height="237" viewBox="0 0 347 237" fill="none" xmlns="http://www.w3.org/2000/svg">
<path d="M281.575 175.719C281.449 173.465 281.356 171.199 281.322 168.944C281.253 164.182 281.391 159.397 281.737 154.635C282.614 135.724 286.767 116.951 295.107 99.9271C297.229 94.5783 299.721 89.356 302.64 84.3063C308.165 74.736 315.075 66.0283 322.989 58.3214C326.888 54.5255 331.352 51.0171 335.839 47.9229C336.035 47.7848 336.243 47.6583 336.451 47.5203C338.389 46.1284 340.361 44.7826 342.38 43.5173C347.963 39.9974 344.975 41.6884 353.073 38.3295C353.27 38.249 353.927 38.41 353.569 38.6746C352.624 39.4223 351.666 40.1585 350.697 40.8831C350.755 41.1362 350.709 41.4353 350.547 41.5503C349.924 41.9989 345.471 45.2312 340.811 48.59C343.21 47.2442 345.748 46.1399 348.448 45.3462C348.621 45.2772 348.782 45.5073 348.886 45.8179C349.843 45.4268 351.193 44.8861 353.235 44.0119C353.881 43.7359 353.708 45.3808 353.385 45.5878C351.401 46.8991 349.394 48.1759 347.386 49.4643C348.321 49.0847 349.751 48.521 352.474 47.3477C353.131 47.0602 353.004 48.8661 352.658 49.0847C351.885 49.5678 351.101 50.0394 350.316 50.5225C350.397 50.9021 350.397 51.3277 350.259 51.4082C349.244 52.0409 348.205 52.6735 347.179 53.2947C347.294 53.5362 347.317 53.7778 347.133 53.8928C341.169 57.5392 334.974 61.0476 329.379 65.2806C327.487 66.8565 325.653 68.5014 323.865 70.1808C321.57 72.4814 319.355 74.874 317.244 77.3701C316.632 78.0948 316.067 78.8309 315.479 79.5671C316.748 78.2213 318.063 76.8985 319.401 75.6217C323.588 71.1931 328.249 67.2016 333.14 63.5897C335.17 61.9563 337.327 60.4955 339.577 59.1841C341.399 57.7923 343.303 56.527 345.298 55.3882C348.505 53.1912 351.943 51.4312 355.623 50.1084C356.177 49.8554 355.807 51.3277 355.565 51.4657C354.042 52.3515 352.497 53.2487 350.962 54.1344C351.02 54.399 350.997 54.675 350.836 54.7671C349.636 55.4572 348.425 56.1474 347.225 56.8376C347.236 56.8376 347.236 56.8261 347.248 56.8261C347.617 56.6535 348.148 57.3782 347.663 57.6543C342.541 60.5415 337.523 63.4747 332.713 66.776C329.356 69.9508 325.988 73.137 322.631 76.3118C320.439 78.6814 318.386 81.1545 316.471 83.7426C317.578 82.6039 318.709 81.4651 319.874 80.3723C322.019 78.3478 324.246 76.4384 326.553 74.6094C327.591 73.7237 328.664 72.8725 329.737 72.0213C332.413 69.5712 335.182 67.2591 338.123 65.0966C340.257 63.3827 342.518 61.8528 344.906 60.4955C348.148 58.3214 351.585 56.4925 355.219 55.0086C355.807 54.721 355.611 55.7678 355.242 55.9633C350.42 58.5745 345.725 61.1971 341.226 64.1764C344.41 62.1979 343.176 63.0146 350.19 59.5177C350.524 59.3567 350.282 59.9893 350.063 60.1159C347.652 61.3697 345.264 62.6695 342.899 64.0383C344.203 63.3712 345.518 62.727 346.856 62.1173C347.294 61.8988 347.79 62.4164 347.34 62.6465C342.553 64.8895 337.973 67.5007 333.59 70.4684C331.975 71.5727 330.406 72.7345 328.86 73.9193C326.668 76.0013 324.603 78.2098 322.689 80.5679C317.832 85.4451 313.61 90.7939 309.988 96.6028C313.633 91.8521 317.567 87.343 321.939 83.225C324.65 80.6714 327.534 78.3133 330.498 76.0703C330.683 75.9092 330.867 75.7482 331.052 75.5987C337.339 70.3994 344.272 66.5459 351.493 62.8535C351.574 62.8075 351.77 62.819 351.908 62.865C353.166 62.2439 354.435 61.6572 355.715 61.0936C356.107 60.898 356.592 61.4157 356.223 61.6112C353.777 62.888 351.389 64.1994 349.036 65.5682C348.99 65.7292 348.898 65.8788 348.771 65.9363C347.663 66.5114 346.579 67.0981 345.483 67.6847C342.184 69.7322 338.977 71.9178 335.874 74.3448C328.849 79.8317 322.308 86.8829 316.782 94.2792C320.324 90.1267 324.142 86.2158 328.272 82.6269C330.51 80.6829 332.805 78.854 335.182 77.117C337.131 75.5757 339.127 74.0918 341.192 72.6884C345.645 69.5022 350.443 66.937 355.565 64.9931C355.946 64.8205 356.373 65.5107 355.911 65.7637C354.781 66.3504 353.673 66.9485 352.554 67.5582C352.716 67.8343 352.716 68.3059 352.497 68.4324C351.135 69.1916 349.774 69.9623 348.425 70.7215C349.024 70.4914 349.613 70.2498 350.213 70.0428C350.616 69.8702 350.674 70.4454 350.57 70.94C351.897 70.3649 353.246 69.8357 354.654 69.4101C355.115 69.2146 355.519 70.3879 355.104 70.6294C352.231 72.3089 349.324 73.9652 346.464 75.7022C346.429 75.7482 346.406 75.7827 346.383 75.8057C347.34 75.4606 348.713 74.966 350.928 74.1148C350.939 74.1148 350.951 74.1148 350.962 74.1148C352.197 73.6547 353.443 73.2291 354.746 72.907C355.173 72.746 355.531 74.1378 355.265 74.2988C353.523 75.3456 351.77 76.3809 350.005 77.4161C351.228 77.002 352.485 76.6569 353.777 76.4038C354.204 76.2543 354.4 77.7152 354.135 77.8762C351.043 79.7397 347.998 81.5456 345.01 83.3976C345.921 83.156 347.144 82.8224 348.863 82.3163C349.186 82.2243 349.544 82.6844 349.198 82.8914C348.044 83.5701 346.89 84.2603 345.737 84.9389C346.694 84.6054 347.963 84.4328 352.347 83.248C352.531 83.202 353.154 83.4206 352.774 83.6621C345.656 87.9987 338.181 92.0937 331.756 97.454C326.449 101.883 321.581 106.691 317.14 111.982C307.669 123.266 300.171 136.437 295.384 150.447C294.011 155.704 292.973 161.019 292.211 166.379C292.096 169.002 291.969 171.636 291.854 174.258C292.142 178.261 292.442 182.264 292.731 186.267C293.077 189.062 293.503 191.835 293.988 194.595C295.061 199.162 296.295 203.694 297.725 208.18C299.836 214.806 302.686 221.73 306.216 227.735C307.462 229.725 308.707 231.715 309.953 233.716C312.618 237.616 315.652 241.205 319.043 244.483C319.516 244.989 318.859 248.267 318.501 247.888C316.886 246.22 315.271 244.541 313.656 242.873C312.237 241.009 310.818 239.146 309.399 237.271C305.985 232.497 303.32 227.114 301.002 221.742C300.586 220.776 300.217 219.798 299.825 218.832C299.917 219.131 299.998 219.441 300.102 219.74C300.505 221.029 300.955 222.329 301.417 223.64C302.766 226.861 304.278 230.024 306.031 233.049C307.265 235.051 308.5 237.041 309.734 239.042C311.095 241.044 312.549 242.976 314.094 244.828C314.706 245.461 315.317 246.093 315.952 246.715C316.067 246.83 316.136 247.025 316.194 247.244C317.036 248.175 317.901 249.084 318.79 249.97C319.228 250.453 318.847 252.27 318.79 252.823C318.79 252.857 318.766 253.26 318.674 253.559C319.493 254.456 320.335 255.342 321.189 256.204C321.535 256.584 320.612 259.437 320.139 258.931C319.401 258.148 318.686 257.366 317.959 256.584C317.89 256.791 317.786 256.918 317.601 256.722C316.482 255.514 315.387 254.318 314.302 253.099C314.36 253.409 314.394 253.697 314.429 253.927C314.429 253.904 314.429 253.927 314.429 253.961C316.413 256.549 318.547 259 320.877 261.312C321.131 261.599 320.381 263.497 319.874 262.945C318.455 261.427 317.059 259.908 315.71 258.355C315.721 258.712 315.698 259.241 315.398 258.931C314.371 257.826 313.356 256.722 312.364 255.606C312.549 255.94 312.745 256.342 312.883 256.699C313.829 257.757 314.798 258.804 315.813 259.816C316.056 260.081 316.298 261.139 316.24 261.484C316.24 261.507 316.229 261.611 316.206 261.726C317.878 263.796 319.655 265.786 321.558 267.661C321.962 268.098 320.981 268.466 320.704 268.179C317.359 264.935 314.394 261.392 311.776 257.55C311.499 257.24 311.222 256.941 310.957 256.63C309.411 254.836 307.981 252.915 306.654 250.925C306.492 250.729 306.331 250.522 306.17 250.326C306.965 251.994 307.819 253.639 308.742 255.25C308.915 255.572 309.1 255.882 309.284 256.193C310.08 257.125 310.899 258.056 311.753 258.988C312.041 259.299 312.999 260.38 312.918 260.817C312.883 261.024 312.849 261.484 312.48 261.093C312.283 260.886 312.099 260.679 311.903 260.472C314.591 264.521 317.659 268.259 321.131 271.687C321.65 272.251 321.212 272.734 320.67 272.147C318.893 270.41 317.221 268.593 315.64 266.695C315.525 266.822 315.294 266.81 315.064 266.557C314.464 265.913 313.852 265.257 313.241 264.601C313.068 264.647 312.826 264.44 312.595 264.21C314.002 265.947 315.467 267.661 317.059 269.375C317.336 269.674 317.105 269.904 316.828 269.605C315.26 267.891 313.46 266.051 311.949 264.291C310.253 262.301 309.215 260.909 308.257 259.448C308.015 259.184 307.785 258.919 307.554 258.643L311.038 264.797C313.691 268.708 316.702 272.32 320.081 275.621C320.381 275.943 320.785 278.175 320.105 277.439C319.309 276.576 318.524 275.725 317.74 274.862C317.659 275.207 317.509 275.449 317.324 275.253C316.413 274.264 315.386 273.206 314.394 272.136C314.36 272.182 314.314 272.228 314.256 272.274C316.032 274.494 317.947 276.633 320.001 278.658C320.416 279.106 320.543 280.073 320.601 280.648C320.589 280.567 320.716 281.89 320.301 281.442C318.905 279.935 317.359 278.382 315.986 276.806C315.929 277.197 315.79 277.669 315.617 278.025C316.748 279.302 317.913 280.556 319.136 281.764C319.585 282.247 319.562 283.65 319.562 284.248C319.562 284.191 319.643 285.629 319.193 285.157C318.27 284.168 317.371 283.178 316.482 282.178C316.321 282.707 316.136 283.063 315.986 282.902C312.756 279.44 309.699 276.001 306.977 272.124C304.116 268.052 301.786 263.555 299.744 259C300.356 260.759 301.048 262.496 301.798 264.199C302.144 264.831 302.49 265.476 302.859 266.097C304.105 268.098 305.339 270.088 306.585 272.09C309.307 276.058 312.376 279.739 315.813 283.109C316.136 283.466 315.906 284.731 315.767 285.468C316.54 286.319 317.336 287.147 318.155 287.964C318.582 288.435 318.443 289.954 318.409 290.506C318.409 290.494 318.42 291.863 317.982 291.392C317.013 290.356 316.067 289.332 315.133 288.286C315.006 289.39 314.556 290.816 314.302 290.54C311.061 287.089 307.969 283.662 305.212 279.797C301.797 275.023 299.133 269.64 296.814 264.256C295.949 262.243 295.13 260.196 294.369 258.125C291.219 251.086 288.843 243.735 286.94 236.247C281.875 216.635 279.764 195.987 281.575 175.719ZM306.596 97.0974C306.008 97.9256 305.42 98.7538 304.854 99.5935C301.198 104.988 298.06 110.648 295.361 116.514C294.865 117.791 294.392 119.068 293.93 120.356C293.4 122.151 292.915 123.945 292.5 125.693C292.454 125.958 292.396 126.223 292.35 126.487C295.73 116.445 300.286 106.817 306.146 97.9141C306.285 97.6381 306.446 97.3735 306.596 97.0974ZM283.306 169.841C283.294 171.325 283.306 172.82 283.352 174.304C283.398 174.868 283.433 175.42 283.479 175.984C283.525 174.155 283.594 172.314 283.698 170.485C283.64 169.703 283.594 168.933 283.548 168.15C283.467 168.725 283.387 169.289 283.306 169.841ZM290.181 158.672C290.227 157.579 290.262 156.498 290.331 155.405C290.181 156.072 290.02 156.74 289.87 157.407C289.685 159.857 289.489 162.318 289.304 164.78C289.397 166.126 289.512 167.46 289.639 168.794C289.697 168.461 289.743 168.139 289.8 167.805C289.835 164.757 289.962 161.72 290.181 158.672ZM288.67 185.83C288.67 185.554 288.682 185.278 288.693 185.002C288.67 184.841 288.658 184.68 288.635 184.519C288.624 184.818 288.612 185.117 288.601 185.416C288.624 185.566 288.647 185.692 288.67 185.83ZM288.024 180.596C288.024 180.642 288.036 180.7 288.047 180.746C288.082 180.447 288.105 180.148 288.139 179.837C288.128 179.665 288.105 179.492 288.093 179.331C288.059 179.757 288.035 180.171 288.024 180.596ZM288.555 173.488C288.555 173.499 288.555 173.522 288.555 173.534C288.589 174.051 288.635 174.58 288.681 175.098L288.681 175.087C288.635 174.557 288.601 174.017 288.555 173.488ZM288.566 190.224C288.589 191.248 288.624 192.272 288.67 193.295C288.647 192.456 288.658 191.605 288.658 190.765C288.624 190.581 288.601 190.408 288.566 190.224ZM286.801 155.359C286.905 156.636 287.032 157.924 287.193 159.201C287.251 158.845 287.309 158.488 287.366 158.12C287.482 154.025 287.747 149.941 288.185 145.892C287.862 147.687 287.574 149.481 287.309 151.276C287.124 152.633 286.951 153.99 286.801 155.359ZM289.581 195.458C289.639 197.782 289.743 200.094 289.893 202.417L290.343 205.327C290.435 205.742 290.527 206.156 290.619 206.558C290.227 203.107 289.927 199.657 289.743 196.206C289.685 195.964 289.627 195.711 289.581 195.458ZM284.955 171.831C284.898 170.819 284.863 169.818 284.829 168.806C284.759 169.715 284.69 170.612 284.644 171.521C284.725 172.82 284.84 174.109 284.967 175.397C284.955 174.201 284.944 173.016 284.955 171.831ZM292.315 148.492C291.935 151.471 291.646 154.45 291.438 157.453C291.854 153.657 292.419 149.884 293.134 146.145C292.846 146.928 292.581 147.71 292.315 148.492ZM287.309 196.815C287.297 196.781 287.297 196.746 287.286 196.7C287.297 196.758 287.297 196.815 287.309 196.873C287.309 196.85 287.309 196.827 287.309 196.815ZM284.552 182.437C284.609 181.839 284.667 181.241 284.725 180.642C284.632 179.952 284.54 179.251 284.459 178.56C284.459 179.619 284.471 180.677 284.506 181.735C284.517 181.965 284.529 182.207 284.552 182.437ZM287.251 143.373C287.216 143.58 287.193 143.799 287.159 144.006C287.747 140.014 288.485 136.057 289.397 132.135C288.37 135.827 287.655 139.566 287.251 143.373ZM286.536 148.561C286.547 148.492 286.57 148.411 286.582 148.342C286.709 147.261 286.847 146.191 286.997 145.122C286.824 146.26 286.663 147.399 286.536 148.561ZM287.516 203.901C287.447 203.51 287.39 203.119 287.32 202.728C287.378 203.498 287.447 204.269 287.528 205.04C287.551 205.12 287.563 205.212 287.586 205.293C287.563 204.833 287.539 204.373 287.516 203.901ZM284.54 154.358C284.529 155.118 284.517 155.865 284.517 156.624C284.679 155.877 284.863 155.141 285.036 154.404C285.082 153.622 285.128 152.84 285.198 152.069C285.209 151.172 285.244 150.286 285.278 149.389C285.025 150.873 284.782 152.368 284.575 153.852C284.552 154.013 284.54 154.186 284.54 154.358ZM292.8 114.547C292.961 113.892 293.146 113.236 293.319 112.58C292.557 114.363 291.854 116.158 291.185 117.964C291.023 118.585 290.873 119.206 290.712 119.838C291.369 118.056 292.061 116.296 292.8 114.547ZM290.654 147.261C290.619 147.641 290.596 148.02 290.562 148.4C290.758 147.48 290.966 146.548 291.185 145.628C291.289 144.834 291.404 144.04 291.519 143.235C291.254 144.144 291 145.053 290.746 145.961C290.723 146.398 290.689 146.836 290.654 147.261ZM296.964 130.801C297.01 130.663 297.045 130.525 297.091 130.387C296.918 130.824 296.756 131.249 296.595 131.686C296.722 131.387 296.837 131.088 296.964 130.801ZM301.994 120.333C302.097 120.149 302.201 119.977 302.294 119.792C303.955 116.123 305.789 112.534 307.819 109.037C307.635 109.302 307.462 109.566 307.277 109.831C306.446 111.188 305.627 112.557 304.843 113.938C303.839 116.043 302.893 118.182 301.994 120.333ZM291.842 205.017C291.923 205.811 292.015 206.604 292.108 207.398C292.557 211.24 293.192 215.059 293.965 218.843C294.022 219.027 294.08 219.2 294.138 219.384C294.438 220.212 294.749 221.029 295.072 221.845L295.811 223.571C294.484 218.257 293.377 212.873 292.511 207.444C292.281 206.639 292.061 205.834 291.842 205.017ZM292.304 221.915C292.35 222.007 292.384 222.087 292.431 222.179C292.269 221.558 292.108 220.937 291.946 220.316C292.061 220.856 292.177 221.385 292.304 221.915ZM291.623 222.697C291.577 222.524 291.531 222.34 291.485 222.168C290.896 220.5 290.343 218.809 289.824 217.106C289.847 217.578 289.893 218.05 289.916 218.521C290.608 220.914 291.335 223.26 292.119 225.538C291.935 224.595 291.785 223.64 291.623 222.697ZM291.312 139.06C292.038 136.253 292.857 133.469 293.769 130.709C292.996 132.423 292.258 134.148 291.565 135.885C291.473 136.943 291.392 138.001 291.312 139.06ZM291.092 141.728C291.092 141.763 291.092 141.786 291.081 141.82C291.519 140.314 291.992 138.818 292.488 137.334C292.673 136.322 292.857 135.31 293.065 134.298C292.338 136.748 291.681 139.232 291.092 141.728ZM297.356 224.859C296.953 223.41 296.572 221.949 296.203 220.477C296.837 223.272 297.518 226.056 298.268 228.816C298.325 229.035 298.394 229.242 298.452 229.449L299.017 230.461C298.441 228.609 297.875 226.746 297.356 224.859ZM302.086 235.925C302.121 235.982 302.155 236.04 302.19 236.097C302.028 235.706 301.867 235.327 301.717 234.936C301.832 235.269 301.971 235.603 302.086 235.925ZM292.188 217.359C291.819 216.014 291.462 214.656 291.115 213.287C291.669 216.543 292.35 219.763 293.192 222.95C293.284 223.341 293.4 223.732 293.492 224.123C293.019 221.88 292.592 219.625 292.188 217.359ZM291.761 133.308C292.834 130.697 293.999 128.121 295.245 125.578C295.972 123.002 296.756 120.448 297.61 117.918C295.395 122.588 293.48 127.361 291.854 132.227C291.819 132.584 291.796 132.94 291.761 133.308ZM325.088 89.4595C323.577 90.7939 322.066 92.1282 320.543 93.451C317.994 96.5223 315.617 99.7201 313.448 102.906C313.206 103.263 312.976 103.631 312.745 103.988C313.402 103.148 314.083 102.32 314.775 101.492C317.809 97.4885 321.097 93.6811 324.615 90.0922C325.088 89.6206 325.572 89.1605 326.045 88.6889C325.734 88.9534 325.411 89.195 325.088 89.4595ZM294.449 224.963C294.369 224.698 294.276 224.434 294.195 224.169C294.403 225.193 294.622 226.217 294.841 227.229C294.934 227.424 295.026 227.62 295.118 227.804C294.888 226.861 294.657 225.906 294.449 224.963ZM297.748 240.814C297.702 240.733 297.668 240.653 297.622 240.572C297.725 240.871 297.841 241.182 297.945 241.481C297.898 241.331 297.852 241.193 297.806 241.044C297.795 240.963 297.772 240.883 297.748 240.814ZM295.13 235.465C295.107 235.407 295.072 235.338 295.049 235.281C295.141 235.626 295.234 235.959 295.326 236.304C295.395 236.489 295.487 236.673 295.557 236.857C295.407 236.397 295.268 235.925 295.13 235.465ZM294.761 237.547C293.665 234.993 292.673 232.405 291.75 229.794C291.935 230.484 292.119 231.163 292.304 231.841C293.515 235.936 294.853 240.02 296.491 243.977C295.937 242.079 295.418 240.181 294.934 238.271C294.876 238.03 294.83 237.788 294.761 237.547ZM302.513 105.356C298.717 111.925 295.649 118.895 293.215 126.096C295.038 121.529 297.114 117.078 299.456 112.741C300.413 110.257 301.428 107.795 302.513 105.356ZM299.006 121.311C300.24 118.792 301.567 116.296 302.986 113.857C301.947 115.421 300.932 117.009 299.963 118.654C299.64 119.539 299.317 120.425 299.006 121.311ZM305.697 247.186C304.705 245.679 303.77 244.126 302.882 242.539C302.963 242.689 303.032 242.838 303.113 242.988C304.012 244.61 304.958 246.185 305.962 247.727C305.87 247.554 305.789 247.37 305.697 247.186ZM297.264 235.948C297.068 235.557 296.872 235.166 296.687 234.775C297.195 236.189 297.702 237.616 298.221 239.031C297.887 238.007 297.564 236.972 297.264 235.948ZM301.428 248.072C300.944 247.163 300.471 246.254 300.01 245.334C300.39 246.323 300.782 247.301 301.175 248.29C301.532 248.9 301.89 249.51 302.259 250.108C301.982 249.429 301.705 248.751 301.428 248.072ZM298.348 245.012C297.91 244.195 297.483 243.367 297.079 242.539C297.922 245.311 298.821 248.06 299.825 250.775C300.875 252.627 301.924 254.479 302.963 256.331C303.32 256.883 303.666 257.435 304.024 257.976C304.093 258.079 304.174 258.183 304.243 258.286C303.816 257.378 303.413 256.469 303.02 255.549C301.255 252.132 299.71 248.613 298.348 245.012ZM310.126 268.973C308.811 267.489 307.531 265.982 306.319 264.406C306.504 264.739 306.7 265.073 306.885 265.395C308.765 268.167 310.841 270.778 313.091 273.252C312.053 271.86 311.072 270.422 310.126 268.973ZM291.012 234.222C291.45 236.281 291.946 238.317 292.5 240.342C292.108 238.697 291.75 237.029 291.392 235.373C291.265 234.982 291.139 234.602 291.012 234.222ZM293.919 250.902C292.315 246.105 290.977 241.228 289.789 236.304C288.301 230.093 287.124 223.789 286.271 217.44C286.236 217.302 286.201 217.152 286.167 217.014C286.605 220.523 287.136 224.019 287.816 227.493C289.224 234.614 290.873 241.734 293.042 248.67C293.33 249.406 293.63 250.154 293.919 250.902ZM285.382 219.729C284.852 215.496 284.436 211.263 284.194 206.995C283.583 203.383 283.075 199.749 282.671 196.091C282.752 199.127 282.983 202.153 283.375 205.166C283.79 210.067 284.459 214.909 285.382 219.729ZM318.178 79.5901C317.29 80.5794 316.39 81.5571 315.536 82.5809C310.715 88.2978 306.423 94.4978 302.72 101.031C305.108 97.3735 307.681 93.8421 310.449 90.4718C312.814 86.7104 315.398 83.064 318.178 79.5901ZM314.81 88.6313C312.468 91.392 310.126 94.1642 307.785 96.9249C307.15 98.6963 306.504 100.468 305.87 102.251C306.273 101.664 306.689 101.089 307.092 100.514C308.684 97.7186 310.38 94.9809 312.191 92.3008C313.033 91.0469 313.91 89.8391 314.81 88.6313ZM311.245 96.3843C309.792 98.0407 308.442 99.7546 307.139 101.526C306.227 103.228 305.339 104.954 304.52 106.725C307.231 102.09 310.253 97.6151 313.598 93.3475C315.121 91.415 316.713 89.5516 318.351 87.7341C315.79 90.4488 313.425 93.3245 311.245 96.3843ZM328.537 79.3946C330.383 77.6462 332.298 75.9782 334.27 74.3794C332.194 75.7712 330.152 77.2321 328.156 78.8309C327.637 79.2335 327.141 79.6476 326.634 80.0502C321.143 84.9389 316.24 90.3913 311.637 96.6948C308.454 101.043 305.558 105.575 302.986 110.291C302.513 111.591 302.051 112.891 301.578 114.191C303.943 110.441 306.527 106.84 309.296 103.366C310.334 101.653 311.395 99.9616 312.526 98.2937C317.163 91.461 322.504 85.077 328.537 79.3946ZM325.157 99.7776C328.802 96.2692 332.828 93.0944 337.039 90.2532C333.936 92.2432 330.902 94.3367 328.076 96.6948C326.357 98.1212 324.696 99.6165 323.069 101.123C320.704 103.654 318.42 106.265 316.24 108.968C314.625 110.981 313.079 113.063 311.626 115.191C315.675 109.681 320.208 104.528 325.157 99.7776ZM310.161 253.122C310.184 253.156 310.207 253.202 310.23 253.237C310.299 253.306 310.357 253.375 310.426 253.444C310.334 253.34 310.253 253.225 310.161 253.122ZM303.62 247.037C303.586 246.979 303.539 246.933 303.505 246.876C301.463 244 300.309 241.883 298.983 239.318C299.537 241.044 300.136 242.769 300.771 244.471C302.409 247.186 304.232 249.866 306.273 252.512C305.327 250.729 304.439 248.9 303.62 247.037ZM311.43 261.162C310.553 259.897 309.734 258.597 308.938 257.274C306.989 255.1 305.143 252.857 303.482 250.418C306.273 255.192 309.549 259.655 313.333 263.819C312.676 262.945 312.041 262.071 311.43 261.162ZM302.916 252.639C302.893 252.604 302.882 252.581 302.859 252.547C303.009 252.926 303.159 253.306 303.309 253.697L305.004 257.01C306.204 259.161 307.508 261.243 308.903 263.256C308.315 262.278 307.738 261.289 307.219 260.357C306.158 258.459 305.189 256.515 304.255 254.548C303.816 253.961 303.378 253.329 302.916 252.639Z" fill="#AFECDB"/>
<path d="M13.0369 33.9238C15.6209 31.8763 18.897 30.5305 22.8538 29.8978C21.2503 30.4269 19.6469 30.9906 18.0895 31.6117C16.3477 32.3134 14.675 33.1071 13.0369 33.9238Z" fill="#AFECDB"/>
<path d="M1.02838 52.639C1.84741 52.1558 2.66647 51.6842 3.4855 51.2126C3.41629 50.7755 3.35861 50.3499 3.2894 49.9128C3.03561 50.2004 2.06662 50.1889 1.99741 49.7632C1.60519 47.0831 1.22449 44.4029 0.832275 41.7228C0.809204 41.6193 0.843841 41.5272 0.913055 41.4467C1.22452 41.2627 1.53598 41.0901 1.84744 40.9061C1.82437 40.7335 1.78976 40.561 1.76669 40.3885C1.72055 40.2619 1.686 40.1354 1.67447 40.0664C1.25919 37.3632 0.843872 34.6601 0.440124 31.9454C0.405517 31.7959 0.440094 31.6808 0.55545 31.6003C0.740021 31.4968 0.92456 31.3933 1.10913 31.2782C0.936096 30.1394 0.751587 28.9892 0.578552 27.8504C0.53241 27.6778 0.590057 27.5398 0.716949 27.4478C1.35141 27.0797 1.99738 26.7116 2.63184 26.3435C2.60876 26.171 2.57416 25.9984 2.55109 25.8144C2.49341 25.4808 2.12433 24.112 2.59729 23.8359C3.11639 23.5368 3.62393 23.2378 4.14304 22.9387C4.1315 22.9042 4.13153 22.8582 4.11999 22.8237C3.98157 22.1335 3.4278 19.5684 4.13147 19.1543C5.03125 18.6251 5.93109 18.096 6.83087 17.5669C6.88855 17.2793 6.9808 17.0723 7.1077 17.0032C9.26486 15.7264 11.8142 14.07 14.0291 12.9082C19.8315 9.87148 26.0262 7.67445 32.3362 5.94903C42.5913 3.16535 53.1234 1.81951 63.7016 1.04883C114.77 -2.66658 166.842 3.55644 215.741 18.6481C236.921 25.1817 257.72 33.2912 277.399 43.5057C287.782 48.9005 297.737 54.951 307.15 61.8987C334.363 81.9941 355.807 109.543 372.003 139.014C380.228 153.99 387.15 170.543 389.33 187.682C391.51 196.321 392.698 205.178 392.502 214.184C392.964 218.602 393.137 223.042 392.883 227.482C392.837 228.229 392.779 228.977 392.721 229.736C392.641 233.578 392.352 237.42 391.775 241.216C391.441 248.773 390.149 256.262 387.692 263.405C387.496 264.061 387.3 264.716 387.092 265.372C385.742 271.215 383.735 276.909 380.92 282.327C375.233 293.278 366.247 303.101 353.35 304.758C348.632 305.356 343.879 304.804 339.311 303.573C336.427 303.055 333.59 302.239 330.844 301.226C324.096 298.707 319.297 294.796 314.233 289.816C313.921 289.505 314.44 289.229 314.706 289.344C315.767 289.643 316.759 290.057 317.717 290.563C317.59 290.299 318.063 290.161 318.293 290.264C319.135 290.575 319.943 290.943 320.739 291.334C318.962 289.885 317.336 288.32 315.675 286.71C314.244 285.479 312.872 284.156 311.464 282.776C311.245 282.557 311.695 281.349 312.087 281.568C315.352 283.385 318.397 285.502 321.581 287.388C319.805 285.974 318.097 284.444 316.367 282.787C316.09 282.523 316.136 280.74 316.748 281.119C320.681 283.547 324.58 286.043 328.445 288.585C330.233 289.551 332.102 290.356 334.016 291C332.713 290.368 331.432 289.712 330.187 288.976C329.76 288.723 329.356 288.447 328.952 288.182C326.876 287.216 324.834 286.1 322.965 284.846C320.231 283.017 317.89 280.74 315.525 278.485C315.248 278.221 315.467 276.691 316.044 277.093C317.417 278.06 318.789 279.037 320.174 279.992C320.243 279.889 320.37 279.854 320.566 279.992C322.4 281.269 324.2 282.557 326.034 283.8C328.018 284.973 330.071 286.054 332.217 286.951C333.913 287.653 335.655 288.228 337.431 288.677C337.177 288.585 336.923 288.504 336.681 288.401C331.825 286.457 327.637 283.696 323.692 280.475C323.173 280.096 322.654 279.728 322.158 279.325C319.285 277.439 316.598 275.253 314.014 272.837C313.691 272.527 314.141 271.837 314.521 272.124C315.525 272.918 316.552 273.689 317.578 274.471C317.682 274.344 317.82 274.298 318.028 274.459C319.747 275.805 321.466 277.116 323.231 278.382C325.745 279.682 328.272 280.993 330.786 282.293C334.812 284.007 339.15 284.904 343.499 285.226C341.457 284.731 339.461 284.087 337.5 283.305C336.635 282.96 335.781 282.58 334.951 282.178C332.678 281.672 330.429 280.981 328.237 280.096C322.192 277.669 317.128 274.022 312.364 269.674C311.983 269.329 312.502 268.765 312.849 269.041C318.12 273.251 323.138 276.863 329.31 279.451C329.944 279.716 330.59 279.969 331.248 280.199C329.575 279.21 327.96 278.117 326.391 276.955C323.046 274.931 319.897 272.584 317.013 270.077C316.725 269.824 317.382 269.709 317.52 269.824C319.182 271.262 320.831 272.63 322.538 273.907C322.031 273.482 321.523 273.056 321.016 272.619C320.589 272.251 321.073 271.802 321.477 272.159C324.35 274.655 327.372 276.909 330.59 278.853C330.786 278.945 330.983 279.049 331.179 279.141C334.051 280.464 337.016 281.499 340.061 282.166C342.98 282.454 345.944 282.408 348.851 281.936C346.498 281.741 344.156 281.315 341.861 280.625C341.065 280.383 340.269 280.13 339.484 279.854C330.383 278.037 322.423 273.171 315.398 267.028C315.306 266.948 315.34 266.833 315.409 266.729C314.51 265.982 313.621 265.223 312.733 264.452C312.272 264.049 312.745 263.601 313.183 263.98C316.99 267.316 321.304 270.318 325.918 272.607C324.303 271.353 322.758 270.008 321.223 268.593C320.981 268.374 321.189 268.041 321.454 267.995C318.097 265.924 315.317 263.612 312.364 260.874C312.214 260.736 311.764 260.253 311.845 260.023C311.891 259.885 312.087 259.586 312.283 259.759C314.706 261.829 317.186 263.716 319.805 265.407C318.386 264.314 317.094 263.083 315.917 261.703C315.686 261.484 315.686 260.713 315.963 260.587C315.317 260.012 314.729 259.322 312.399 257.033C312.133 256.768 311.833 255.273 312.456 255.802C313.379 256.584 314.314 257.332 315.259 258.056C315.144 257.562 315.156 256.572 315.536 256.883C319.678 260.242 324.13 263.29 328.883 265.579C327.937 264.992 327.014 264.383 326.103 263.727C324.788 262.784 324.246 262.427 323.842 262.071C322.504 261.335 321.212 260.495 320.012 259.552C317.647 258.045 315.64 256.124 313.991 253.8C313.806 253.605 313.633 251.925 314.106 252.305C315.294 253.248 316.505 254.168 317.751 255.054C317.797 254.548 317.97 254.076 318.282 254.318C321.881 257.113 325.838 259.828 330.048 262.048C330.21 262.117 330.371 262.174 330.533 262.243C329.829 261.864 329.125 261.461 328.445 261.059C326.957 260.265 325.561 259.333 324.234 258.286C321.881 256.848 320.001 254.916 318.582 252.489C318.524 252.42 318.489 252.282 318.478 252.109C317.394 251.028 316.436 249.809 315.629 248.417C315.352 248.095 315.525 247.094 316.09 247.52C322.55 252.466 330.117 257.171 338.227 259.218C334.789 258.137 331.513 256.492 328.445 254.663C326.957 253.869 325.549 252.937 324.234 251.879C321.754 250.361 319.862 248.256 318.559 245.564C318.305 245.231 318.893 245.139 319.101 245.288C328.722 252.569 339.392 258.516 351.804 257.861C356.949 257.585 361.91 256.055 366.247 253.375C366.755 252.972 367.251 252.569 367.747 252.121C371.242 249.004 374.195 245.024 376.595 241.021C377.114 240.146 377.598 239.249 378.083 238.352C379.167 235.384 380.055 232.37 380.747 229.357C381.001 228.321 381.209 227.286 381.405 226.251C380.194 217.785 378.106 209.526 375.187 201.485C370.838 191.271 365.543 181.505 359.603 172.13C353.419 162.376 346.856 152.886 339.565 143.914C332.332 135.011 324.396 126.476 315.825 118.838C304.22 108.497 291.519 100.031 278.034 92.4962C265.137 85.284 251.502 79.5326 237.74 74.2413C217.564 66.4884 196.823 60.0698 175.632 55.6872C170.522 54.6404 165.388 53.6972 160.243 52.8805C141.717 49.9473 123.076 47.9688 104.319 47.3937C89.2646 46.9336 73.9452 47.1751 58.9258 48.5094C50.9893 49.2111 43.0989 50.3269 35.3239 52.0868C30.2021 53.2716 25.1956 54.836 20.316 56.7915C17.063 58.0913 13.9368 59.6327 10.9144 61.3581C10.949 61.5536 10.9721 61.7492 11.0067 61.9332C11.076 62.4279 10.7761 62.2208 10.5915 62.1633C10.4877 62.1288 10.3838 61.9447 10.2916 61.6917C9.99164 61.8642 9.69165 62.0368 9.39172 62.2208C9.4494 62.6004 9.51868 62.98 9.57635 63.3711C9.6225 63.6702 10.13 65.6486 9.76086 65.8672C9.31097 66.1317 9.24179 65.4186 9.18411 65.085C9.04568 64.2568 8.90726 63.4286 8.76883 62.6119C8.22665 62.9455 7.69601 63.2791 7.16537 63.6241C7.53451 65.4416 7.91522 67.259 8.28436 69.0765C8.41125 69.6861 8.73422 71.3885 8.38815 71.9292C8.22665 72.1822 8.00751 72.5963 7.86908 71.9522C7.30383 69.203 6.72702 66.4423 6.16177 63.6932C6.06949 63.2561 5.87341 62.1518 5.91956 61.3006C5.74652 61.4041 5.57349 61.4961 5.41199 61.5996C5.56195 62.4854 5.72339 63.3711 5.87335 64.2453C5.97717 64.8435 5.91952 66.8334 5.52731 67.3051C5.27353 67.6156 5.12357 67.9032 5.00821 67.2475C4.74289 65.6026 4.4891 63.9692 4.22379 62.3243C4.11996 62.3818 4.02768 62.4509 3.92386 62.5084C4.31607 64.4293 4.70828 66.3618 5.08896 68.2828C5.19278 68.8119 5.08896 70.7214 4.73135 71.1355C4.46603 71.4345 4.33914 71.6646 4.22378 71.0665C3.65854 68.3173 3.08176 65.5566 2.51651 62.8074C2.49344 62.7154 2.49344 62.4969 2.49344 62.2438C2.34347 62.6119 2.1474 62.9685 2.02051 63.2215C2.07819 63.118 1.39755 64.4293 1.29373 63.7852C0.866912 61.059 0.440155 58.3328 0.0133359 55.5952C-0.0904849 54.997 0.428528 52.984 1.02838 52.639ZM340.707 279.302C340.88 279.348 341.042 279.382 341.215 279.428C345.771 280.245 350.512 279.866 354.977 278.761C358.426 277.91 361.494 276.38 364.251 274.402C364.574 274.103 364.897 273.792 365.22 273.482C362.071 275.057 358.657 276.127 355 276.53C351.435 277.864 347.605 278.543 343.568 278.347C340.523 278.198 337.512 277.715 334.582 276.944C335.297 277.312 336.012 277.646 336.75 277.945C338.065 278.405 339.392 278.853 340.707 279.302ZM367.793 280.728C369.096 279.693 370.342 278.566 371.507 277.346C372.073 276.507 372.626 275.667 373.157 274.816C373.307 274.586 373.434 274.333 373.572 274.103C371.242 276.185 368.67 277.991 365.797 279.313C365.255 279.567 364.701 279.797 364.136 280.004C361.344 282.132 358.253 283.834 354.931 284.973C355.231 284.984 355.53 284.984 355.842 284.996C359.026 284.754 361.967 283.788 364.678 282.109C365.774 281.741 366.801 281.269 367.793 280.728ZM352.647 289.217C353.212 289.217 353.777 289.194 354.342 289.16C355.853 288.792 357.318 288.297 358.726 287.687C356.788 288.343 354.769 288.815 352.67 289.045C351.735 289.148 350.789 289.206 349.843 289.217C350.766 289.263 351.701 289.263 352.647 289.217ZM352.693 291.817C351.216 292.093 349.74 292.243 348.263 292.323C349.728 292.438 351.216 292.473 352.704 292.404C352.935 292.392 353.154 292.369 353.385 292.346C354.515 291.967 355.634 291.541 356.707 291.035C356.165 291.115 355.611 291.207 355.069 291.265C354.296 291.472 353.512 291.656 352.693 291.817ZM336.739 299.765C337.385 299.973 338.042 300.18 338.712 300.364C340.892 300.801 343.107 301.054 345.333 301.031C350.397 300.973 355.081 300.03 359.522 297.821C358.807 298.04 358.08 298.236 357.33 298.397C355.173 299.236 352.889 299.857 350.466 300.168C344.145 300.973 337.558 299.754 331.663 297.453C330.06 296.821 328.364 296.085 326.737 295.245C329.875 297.212 333.209 298.73 336.739 299.765ZM4.26999 49.0501C4.31613 48.9236 4.37375 48.8315 4.44296 48.7855C5.06589 48.4174 5.67731 48.0608 6.2887 47.7042C6.24255 47.4282 6.19638 47.1636 6.16177 46.8875C6.1387 47.0371 6.10406 47.1751 6.08099 47.3247C6.17328 47.8538 5.3197 47.4397 5.25049 47.0026C5.20435 46.715 5.1582 46.4274 5.1236 46.1399C4.77753 46.7725 4.44299 47.4282 4.10846 48.0953C4.16614 48.4059 4.22385 48.728 4.26999 49.0501ZM6.26562 46.3239C6.2887 46.3009 6.30023 46.2894 6.33484 46.2664C6.33484 46.2664 6.34637 46.2664 6.34637 46.2549C6.33484 46.1859 6.32327 46.1169 6.31174 46.0478C6.28867 46.1399 6.27716 46.2319 6.26562 46.3239ZM382.985 253.49C383.285 252.684 383.551 251.868 383.804 251.051C383.908 250.257 384.012 249.464 384.116 248.67C383.839 249.222 383.585 249.786 383.297 250.326C382.881 251.097 382.455 251.868 382.005 252.627C381.705 254.088 381.37 255.537 381.001 256.975C381.693 255.848 382.362 254.686 382.985 253.49ZM381.601 265.936C381.739 265.602 381.889 265.269 382.016 264.935C382.062 264.544 382.12 264.141 382.166 263.75C382.12 263.831 382.074 263.9 382.028 263.98C381.024 266.166 379.917 268.305 378.683 270.387C379.732 268.949 380.701 267.466 381.601 265.936ZM389.941 236.811C389.699 237.823 389.445 238.835 389.157 239.836C389.18 240.192 389.203 240.549 389.215 240.917C389.261 242.021 389.272 243.114 389.284 244.218C389.48 243.436 389.688 242.665 389.861 241.872C389.953 240.181 389.976 238.49 389.941 236.811ZM388.938 200.554C388.961 200.749 388.972 200.933 388.984 201.129C389.018 201.255 389.053 201.393 389.099 201.52C389.088 201.37 389.076 201.221 389.065 201.071C389.018 200.899 388.972 200.726 388.938 200.554ZM388.442 242.274C388.349 242.585 388.246 242.884 388.142 243.183C387.876 245.001 387.542 246.795 387.15 248.589C387.034 249.544 386.896 250.499 386.746 251.442C387.104 250.729 387.473 250.004 387.83 249.291C388.049 248.612 388.246 247.934 388.442 247.255C388.488 245.587 388.488 243.931 388.442 242.274ZM389.053 236.822C389.203 236.178 389.318 235.534 389.445 234.89C389.284 235.453 389.122 236.017 388.949 236.569C388.961 236.73 388.984 236.903 388.995 237.064C389.007 236.995 389.03 236.903 389.053 236.822ZM385.004 187.521C384.243 185.393 383.435 183.288 382.57 181.194C381.44 178.457 380.228 175.765 378.971 173.096C379.282 174.017 379.594 174.937 379.882 175.869C380.286 176.996 380.69 178.123 381.059 179.262C382.651 182.736 384.104 186.256 385.396 189.833C385.281 189.062 385.131 188.292 385.004 187.521ZM387.242 205.615C387.242 205.925 387.23 206.236 387.23 206.547C387.38 207.064 387.53 207.582 387.68 208.088C387.692 207.858 387.703 207.639 387.715 207.409C387.553 206.823 387.403 206.213 387.242 205.615ZM298.729 69.8587C294.588 67.19 290.377 64.6479 286.086 62.2323C295.51 67.8457 304.52 74.1032 312.929 81.1889C316.309 84.0416 319.574 87.0094 322.735 90.0806C323.842 91.0699 324.926 92.0821 326.022 93.0944C320.174 87.0209 313.967 81.2925 307.3 76.1392C304.485 73.9767 301.624 71.8832 298.729 69.8587ZM388.511 226.527C388.488 228.011 388.43 229.495 388.326 230.99C388.396 231.508 388.453 232.025 388.522 232.543C388.603 230.542 388.58 228.529 388.511 226.527ZM18.8279 35.2122C21.5273 33.9239 24.3073 32.8081 27.1682 31.8994C30.9288 30.5651 34.724 29.4723 38.6115 28.5175C38.7269 28.4945 38.8423 28.4715 38.9691 28.437C36.0968 28.9086 33.236 29.4608 30.3982 30.1164C22.7616 30.7031 16.4862 33.2797 11.5374 37.8348C11.4451 38.2604 11.272 38.6975 11.1221 39.0541C13.6138 37.6508 16.1632 36.351 18.8279 35.2122ZM10.9375 39.6063C10.9375 39.6178 10.9375 39.6178 10.9375 39.6293C11.1452 39.5027 11.3528 39.3877 11.5604 39.2612C11.3528 39.3762 11.1452 39.4912 10.9375 39.6063ZM41.3686 38.5595C52.3275 36.351 63.4132 35.5228 74.5451 35.0397C70.0001 35.2007 65.455 35.4307 60.91 35.7528C54.0578 36.2359 47.2633 36.9951 40.5034 38.1799C38.577 38.6055 36.662 39.0541 34.7587 39.5603C33.8358 39.7788 32.913 40.0204 32.0016 40.2734C34.8279 39.6868 37.6772 39.1692 40.5265 38.7205C40.8149 38.6745 41.0917 38.617 41.3686 38.5595ZM26.5222 25.0207C29.3369 24.273 32.1747 23.6289 35.024 23.0767C40.1804 21.6964 45.4061 20.6956 50.6779 19.9249C46.3289 20.4541 41.9915 21.1212 37.6772 21.9839C33.7781 22.6741 29.9483 23.6289 26.1646 24.8136C24.0305 25.4463 21.9426 26.171 19.8892 26.9647C22.081 26.263 24.2958 25.6188 26.5222 25.0207ZM263.937 60.1503C258.643 57.7692 253.267 55.5147 247.845 53.3751C255.147 56.3659 262.357 59.5867 269.417 63.0835C277.446 67.0635 285.313 71.4461 292.88 76.2772C287.758 72.8954 282.475 69.7206 277.123 66.7759C274.319 65.2345 271.493 63.7507 268.632 62.3013C267.075 61.5766 265.506 60.852 263.937 60.1503ZM275.104 69.5366C272.093 68.0642 269.059 66.6379 266.014 65.246C274.931 69.6516 283.606 74.5058 291.946 79.9582C302.986 87.1704 313.137 95.533 322.458 104.747C335.089 116.342 346.221 129.282 356.119 143.27C356.949 144.443 357.78 145.639 358.599 146.824C354.758 140.601 350.639 134.551 346.36 128.661C341.584 122.507 336.531 116.549 331.19 110.866C323.254 102.435 314.752 94.7623 305.443 87.8606C301.059 84.6053 296.549 81.5455 291.934 78.6353C286.432 75.3915 280.837 72.3548 275.104 69.5366ZM322.838 99.858C324.165 101.135 325.469 102.423 326.761 103.734C331.294 108.025 335.62 112.546 339.738 117.147C340.13 117.584 340.511 118.044 340.903 118.481C335.274 111.2 329.264 104.218 322.758 97.684C320.566 95.4869 318.316 93.3359 316.021 91.2309C309.307 85.7901 302.155 80.8899 294.841 76.2888C292.361 74.7244 289.823 73.2175 287.239 71.7681C293.722 75.7596 299.998 80.0732 305.973 84.7893C311.868 89.4825 317.486 94.5322 322.838 99.858ZM348.171 128.327C345.379 124.796 342.507 121.311 339.542 117.906C340.177 118.665 340.811 119.424 341.434 120.184C347.709 127.925 353.558 136.069 358.957 144.489C358.518 143.787 358.08 143.086 357.641 142.395C354.596 137.645 351.435 132.952 348.171 128.327ZM385.592 214.806C385.673 214.277 385.777 213.759 385.846 213.23C385.858 213.149 385.858 213.057 385.869 212.977C385.812 212.379 385.742 211.78 385.673 211.182C385.662 212.356 385.627 213.54 385.569 214.714C385.581 214.737 385.592 214.771 385.592 214.806ZM383.158 199.76C383.204 200.082 383.251 200.393 383.297 200.715C383.551 201.405 383.793 202.095 384.024 202.797C383.735 201.784 383.447 200.772 383.158 199.76ZM379.467 185.922C379.329 185.416 379.202 184.91 379.063 184.404C378.706 183.426 378.302 182.471 377.921 181.505C377.771 181.217 377.633 180.941 377.483 180.654C377.921 181.885 378.336 183.127 378.74 184.369C378.982 184.875 379.225 185.393 379.467 185.922ZM381.832 191.041C381.97 191.501 382.132 191.961 382.27 192.421C382.293 192.467 382.305 192.513 382.328 192.559C382.328 192.548 382.328 192.536 382.328 192.513C382.155 192.019 381.993 191.535 381.832 191.041ZM384.531 209.56C384.543 208.882 384.566 208.203 384.566 207.524C384.312 206.754 384.047 205.994 383.781 205.235C383.827 205.787 383.862 206.34 383.897 206.892C384.127 207.777 384.335 208.675 384.531 209.56ZM366.512 160.616C366.501 160.593 366.489 160.57 366.478 160.547C366.397 160.42 366.316 160.282 366.236 160.156C366.316 160.305 366.42 160.466 366.512 160.616ZM374.714 175.765C374.726 175.777 374.726 175.788 374.737 175.8C374.484 175.121 374.218 174.442 373.941 173.764C373.722 173.35 373.515 172.924 373.295 172.51C373.78 173.591 374.253 174.672 374.714 175.765ZM368.923 162.813C367.262 159.88 365.555 156.969 363.802 154.082C364.632 155.52 365.451 156.981 366.247 158.442C367.147 159.891 368.047 161.352 368.923 162.813ZM315.329 89.3675C319.608 92.7608 323.727 96.3612 327.695 100.123C321.823 94.0951 315.606 88.3897 309.03 83.2019C303.805 79.0839 298.325 75.242 292.684 71.6646C300.632 76.9904 308.211 82.8799 315.329 89.3675ZM158.144 20.6611C139.514 17.5669 120.63 15.6804 101.723 15.1053C95.8976 15.0132 90.0721 15.0017 84.2466 15.1168C109.763 15.0363 135.28 17.2793 160.382 21.8344C178.274 24.9517 195.969 29.3573 213.307 34.591C213.504 34.6486 213.7 34.7176 213.896 34.7751C215.384 35.2122 216.883 35.6263 218.36 36.0749C231.315 39.9859 244.177 44.702 256.67 50.0163C253.751 48.6935 250.81 47.4167 247.857 46.1629C219.075 34.269 188.806 25.7684 158.144 20.6611ZM358.218 139.623C354.792 134.056 351.135 128.627 347.306 123.324C345.783 121.426 344.249 119.539 342.668 117.687C338.019 112.224 333.14 106.99 328.006 101.998C332.701 107.105 337.166 112.419 341.411 117.929C344.11 121.426 346.74 124.992 349.301 128.615C354.262 134.953 358.922 141.521 363.329 148.25C361.667 145.329 359.96 142.453 358.218 139.623ZM356.707 139.646C359.014 143.27 361.241 146.928 363.352 150.643C365.982 155.279 368.508 160.018 370.827 164.849C371 165.171 371.161 165.493 371.323 165.827C373.053 169.047 374.714 172.326 376.272 175.662C373.93 169.174 371.081 162.847 367.908 156.682C364.39 150.839 360.606 145.099 356.707 139.646ZM314.856 94.3712C320.866 99.4324 326.576 104.885 331.986 110.625C329.275 107.53 326.461 104.528 323.577 101.595C320.577 98.8918 317.474 96.2921 314.244 93.8535C314.129 93.773 314.025 93.704 313.91 93.6235C314.221 93.8651 314.544 94.1181 314.856 94.3712ZM266.371 60.2078C267.467 60.7599 268.563 61.3351 269.648 61.8987C281.564 67.5006 293.076 73.8387 304.035 81.1775C301.486 79.199 298.89 77.278 296.249 75.449C286.755 68.8464 276.673 63.21 266.348 58.0108C251.064 50.3154 234.994 44.1959 218.775 38.7781C209.87 35.8103 200.86 33.1072 191.782 30.7031C188.24 29.8519 184.687 29.0352 181.111 28.276C148.604 21.3628 115.324 18.3951 82.1125 19.2693C122.21 18.8667 162.412 24.4686 200.918 35.4422C212.95 38.8701 224.751 42.8156 236.413 47.3132C246.576 51.2011 256.658 55.3076 266.371 60.2078ZM367.216 153.496C367.412 153.887 367.631 154.266 367.827 154.646C368.335 155.647 368.831 156.647 369.327 157.66C369.812 158.453 370.308 159.247 370.781 160.052C369.627 157.855 368.439 155.67 367.216 153.496ZM377.448 173.982C376.987 173.039 376.514 172.107 376.029 171.175C375.014 169.208 373.953 167.242 372.869 165.275C375.303 170.784 377.448 176.398 379.213 182.138C380.113 184.07 380.978 186.014 381.809 187.97C381.589 186.44 381.301 184.921 380.978 183.414C379.928 180.205 378.74 177.053 377.448 173.982ZM387.784 227.562C387.807 227.689 387.83 227.815 387.853 227.942C387.865 227.666 387.876 227.39 387.888 227.114C387.853 227.263 387.819 227.413 387.784 227.562ZM387.819 236.293C387.819 236.926 387.807 237.57 387.807 238.202C387.934 237.811 388.038 237.42 388.153 237.029C388.096 236.339 388.038 235.649 387.957 234.959C387.923 235.407 387.876 235.844 387.819 236.293ZM378.694 189.338C377.898 186.693 377.021 184.082 376.041 181.505C375.764 180.78 375.464 180.056 375.187 179.331C373.03 175.282 370.723 171.302 368.358 167.38C369.016 168.61 369.673 169.83 370.296 171.072C372.522 175.478 374.587 179.975 376.456 184.542C377.206 186.118 377.967 187.717 378.694 189.338ZM34.7241 36.6155C38.6577 35.7298 42.6259 35.0281 46.6173 34.476C51.07 33.7398 55.5575 33.1762 60.0679 32.7506C59.8372 32.7736 59.618 32.7851 59.3873 32.7966C51.0701 33.4753 42.8221 34.6485 34.7241 36.6155ZM273.385 71.055C280.791 74.9084 288.012 79.13 294.957 83.7311C297.506 85.3645 300.009 87.0439 302.49 88.7808C300.298 87.0899 298.083 85.422 295.81 83.8116C289.5 79.337 282.902 75.357 275.992 71.8832C269.336 67.9377 262.449 64.4178 255.343 61.3466C246.992 57.5852 238.444 54.1343 229.792 50.971C214.265 45.7373 198.496 41.1822 182.438 37.8693C176.405 36.627 170.349 35.4883 164.269 34.476C180.327 37.4667 196.212 41.3662 211.773 46.1744C232.918 52.6965 253.751 60.829 273.385 71.055ZM223.932 47.8653C228.431 49.3146 232.907 50.8675 237.348 52.5009C228.8 49.2916 220.137 46.3814 211.393 43.7473C215.603 45.0471 219.767 46.4389 223.932 47.8653ZM214.576 43.9773C235.744 50.5224 256.543 58.6434 276.188 68.8809C280.387 71.0665 284.517 73.3785 288.566 75.8056C297.206 80.7634 305.489 86.2387 313.414 92.3237C304.37 84.6743 294.68 77.9107 284.402 71.9407C259.219 57.2976 231.626 46.8415 203.664 38.8816C199.684 37.7543 195.692 36.6845 191.69 35.6723C185.426 34.1999 179.116 32.9001 172.771 31.7844C163.589 29.8979 154.337 28.4255 145.016 27.3558C132.673 26.4125 120.33 25.4693 107.987 24.5261C95.7361 24.135 83.4968 24.3075 71.269 25.0207C71.269 25.0207 71.269 25.0207 71.2805 25.0207C82.4816 24.6181 86.6229 24.342 99.589 24.8482C114.366 25.4233 129.051 26.6886 143.644 28.7016C167.684 31.7268 191.447 36.8226 214.576 43.9773ZM207.747 42.6545C207.816 42.6775 207.886 42.689 207.955 42.712C207.886 42.7005 207.816 42.6775 207.747 42.6545ZM61.556 26.079C57.8646 26.263 54.1847 26.5736 50.5163 26.9647C47.644 27.4018 44.8062 27.9769 41.9799 28.6901C48.786 27.4708 55.6728 26.7116 62.5827 26.2515C64.0362 26.148 65.5012 26.0905 66.9547 26.0099L61.556 26.079ZM11.422 35.7988C15.0442 34.1539 18.701 32.7621 22.4963 31.5543C30.1444 29.0927 38.1963 27.7814 46.1443 26.7346C47.9324 26.5046 49.7088 26.309 51.4969 26.1365C57.703 25.2968 63.9669 24.8021 70.1846 24.3995C89.0454 23.1687 108.045 23.5943 126.882 24.8942C133.054 25.3198 139.249 25.9294 145.443 26.7001C128.001 24.319 110.398 23.0307 92.7022 22.8697C80.7513 22.5936 68.8119 22.9617 56.8725 23.9969C51.5776 24.365 46.3405 25.0897 41.1494 26.171C35.9238 26.8381 30.7904 27.9654 25.7724 29.5643C24.7457 29.6333 23.7767 29.7598 22.8308 29.9094C25.011 29.1962 27.2028 28.5521 29.4177 27.9654C40.9648 24.8942 52.8581 23.6058 64.7628 22.8582C83.4967 21.6734 102.358 22.0645 121.068 23.3643C136.642 24.4456 152.145 26.7346 167.465 29.6563C174.79 31.0482 182.046 32.6586 189.267 34.4415C193.155 35.3387 197.042 36.2704 200.895 37.2712C214.565 40.8256 228.073 45.1161 241.328 50.0738C225.339 43.7473 208.878 38.5365 192.324 34.0964C180.223 30.9446 168.007 28.345 155.675 26.286C143.332 24.7906 130.977 23.2838 118.634 21.7884C99.9812 20.155 81.1205 20.27 62.4442 21.2938C53.3888 21.7884 44.3909 22.7431 35.4969 24.4916C33.7435 24.9402 31.9901 25.4118 30.2482 25.9409C23.4998 27.9424 17.1552 30.7721 11.2144 34.407C11.2375 34.545 11.2605 34.6831 11.2721 34.8211C11.8488 34.5105 12.4487 34.2229 13.037 33.9354C12.4487 34.407 11.8835 34.9131 11.3643 35.4538C11.3874 35.5688 11.399 35.6953 11.422 35.8103C11.422 35.7988 11.422 35.7988 11.422 35.7988ZM11.0298 33.2107C14.5482 31.1747 18.0781 29.2307 21.7926 27.5858C17.3167 28.1034 13.6484 29.4608 10.7991 31.6463C10.8799 32.1639 10.9606 32.6816 11.0298 33.2107ZM333.647 104.068C335.516 106.265 337.35 108.497 339.15 110.763C343.799 116.284 348.217 122.012 352.37 127.913C353.108 128.891 353.835 129.869 354.561 130.858C348.194 121.483 341.226 112.511 333.647 104.068ZM369.419 155.348C370.458 157.234 371.461 159.155 372.43 161.076C371.588 159.397 370.723 157.717 369.835 156.061C369.696 155.831 369.558 155.589 369.419 155.348ZM387.519 211.504C387.53 211.251 387.542 211.01 387.553 210.757C387.415 210.228 387.3 209.698 387.161 209.181C387.288 209.951 387.403 210.734 387.519 211.504ZM387.796 240.054C387.784 240.376 387.773 240.71 387.761 241.032C387.83 240.537 387.911 240.054 387.98 239.56C387.911 239.721 387.853 239.893 387.796 240.054ZM384.485 234.268C384.266 235.12 384.047 235.971 383.804 236.811C384 236.327 384.22 235.844 384.404 235.361C384.439 234.993 384.45 234.637 384.485 234.268ZM384.716 227.137C384.716 227.114 384.716 227.079 384.716 227.056C384.669 226.78 384.635 226.504 384.589 226.228C384.589 226.239 384.589 226.251 384.577 226.262C384.623 226.562 384.669 226.849 384.716 227.137ZM346.452 135.942C345.137 134.32 343.799 132.722 342.449 131.134C345.748 135.264 348.932 139.497 351.977 143.799C352.981 145.225 353.985 146.663 354.977 148.112C352.254 143.971 349.405 139.911 346.452 135.942ZM319.943 105.655C314.683 100.652 309.134 95.9356 303.297 91.53C294.092 85.2034 284.275 79.6361 274.285 74.6784C261.376 68.2828 248.064 62.7499 234.475 57.9533C254.513 65.3381 274.273 74.2067 292.338 85.6635C302.063 91.5645 311.337 98.1671 319.943 105.655ZM39.1307 33.5788C51.3239 31.1287 63.6555 30.3695 76.0678 29.9094C106.245 28.8051 136.399 31.0252 166.011 36.4085C156.783 34.43 147.462 32.9231 138.06 31.8764C128.751 30.6686 119.419 29.8864 110.052 29.5068C100.431 28.9777 90.8219 28.7706 81.2127 28.8856C73.8183 29.1387 66.4355 29.5298 59.0758 30.289C51.9237 31.0252 44.8639 32.1179 37.8963 33.8318C38.3116 33.7513 38.7154 33.6593 39.1307 33.5788ZM63.5516 28.1725C70.15 27.7584 76.7599 27.5283 83.3814 27.4478C85.0771 27.4133 86.7729 27.3788 88.4571 27.3558C122.626 26.8842 156.679 30.8181 189.902 38.548C178.285 35.5343 166.507 33.0152 154.752 31.1287C148.304 30.1049 141.833 29.1732 135.349 28.368C112.417 25.9064 89.2877 25.3198 66.2625 26.6426C58.3606 27.1027 50.4702 27.9079 42.6606 29.1732C36.5467 30.174 30.5597 31.6693 24.6996 33.6363C24.688 33.6363 24.6765 33.6478 24.665 33.6478L24.6534 33.6478C23.0846 34.1769 21.5273 34.7291 19.9815 35.3157C19.8777 35.3617 19.7739 35.4077 19.6585 35.4538C19.0356 35.7988 18.4472 36.1899 17.9051 36.6155C18.8048 36.2819 19.7161 35.9714 20.639 35.6723C25.2532 34.0504 23.5575 34.568 28.2871 33.2912C39.7997 30.2085 51.6699 28.9086 63.5516 28.1725ZM8.80347 36.1554L8.71118 35.6033C8.6535 35.2927 9.06876 34.6255 9.41483 34.2344C9.34561 33.8434 9.2764 33.4523 9.20718 33.0497C9.16104 33.5328 9.06876 33.9814 8.91879 34.2575C8.73422 34.614 8.56116 34.7636 8.45734 34.43C8.51501 34.8556 8.57275 35.6493 8.51508 36.305C8.60736 36.2589 8.69965 36.2129 8.80347 36.1554ZM9.461 29.7138C9.66864 29.2882 9.91086 28.9316 10.13 28.8051C10.7068 28.4715 11.2836 28.138 11.8488 27.8159C10.7876 28.2875 9.8186 28.8511 8.94189 29.5068C8.96497 29.6563 8.98804 29.8059 9.01111 29.9554C9.16107 29.8749 9.31103 29.7944 9.461 29.7138ZM386.365 202.59C386.365 202.532 386.365 202.463 386.365 202.406C386.354 202.348 386.331 202.302 386.319 202.245C386.331 202.348 386.342 202.463 386.365 202.59ZM388.995 233.981C389.226 233.061 389.445 232.14 389.641 231.197C389.468 229.219 389.238 227.252 388.926 225.285C388.949 225.756 388.984 226.239 389.007 226.711C389.111 229.15 389.099 231.565 388.995 233.981ZM274.273 78.5203C273.662 78.2212 273.039 77.9337 272.416 77.6346C277.365 80.1537 282.233 82.8108 286.997 85.6405C285.036 84.4327 283.075 83.225 281.114 82.0057C278.865 80.8094 276.581 79.6361 274.273 78.5203ZM26.949 35.4998C30.1213 34.384 33.3283 33.4408 36.5698 32.6356C36.2814 32.6931 36.0045 32.7276 35.7161 32.7851C29.2907 33.9239 23.0385 35.7068 16.9476 38.1339C16.567 38.2834 16.1978 38.456 15.8171 38.617C15.148 39.4107 14.5713 40.3079 14.0753 41.2742C14.7674 40.8716 15.448 40.469 16.1401 40.0549C19.6124 38.2144 23.2115 36.696 26.949 35.4998ZM9.461 39.9168C9.42639 39.9513 9.40332 39.9859 9.36871 40.0204C9.40332 39.9974 9.43787 39.9859 9.47247 39.9629C9.46094 39.9398 9.461 39.9283 9.461 39.9168ZM7.67291 36.7766C7.58063 36.2474 7.48837 35.7183 7.39609 35.1892C6.83084 35.9829 6.32324 36.8226 5.87335 37.7313C5.87335 37.7543 5.88492 37.7773 5.88492 37.8003C6.48477 37.4552 7.07306 37.1102 7.67291 36.7766ZM353.512 124.14C354.262 125.153 354.988 126.165 355.715 127.189C354.688 125.716 353.65 124.244 352.6 122.795C352.912 123.243 353.2 123.692 353.512 124.14ZM383.412 187.394C384.266 190.822 384.969 194.285 385.535 197.77C385.8 198.541 386.054 199.323 386.308 200.105C386.238 198.219 386.135 196.332 385.95 194.469C385.189 192.099 384.335 189.741 383.412 187.394ZM387.115 199.691C387.173 200.818 387.207 201.946 387.23 203.073C387.427 203.74 387.623 204.407 387.807 205.074C387.865 203.809 387.923 202.544 387.98 201.29C387.761 200.473 387.553 199.656 387.323 198.851C387.207 198.46 387.08 198.058 386.965 197.666C387.011 198.334 387.08 199.012 387.115 199.691ZM389.307 218.935C389.203 219.752 389.099 220.58 388.972 221.397C389.434 223.87 389.814 226.343 390.114 228.828C390.218 228.252 390.31 227.677 390.391 227.102C390.149 224.364 389.78 221.65 389.307 218.935ZM385.442 257.895C385.35 258.286 385.235 258.677 385.131 259.069C385.754 257.665 386.319 256.239 386.85 254.801C386.411 255.848 385.938 256.871 385.442 257.895ZM368.981 264.095C369.892 263.037 370.723 261.91 371.507 260.759C371.127 261.151 370.723 261.519 370.319 261.887C368.612 263.727 366.766 265.384 364.759 266.833C364.217 267.305 363.663 267.765 363.098 268.213C364.182 267.811 365.243 267.328 366.282 266.81C366.616 266.58 366.939 266.338 367.251 266.097C367.851 265.441 368.427 264.785 368.981 264.095ZM311.337 102.377C307.427 99.1218 303.389 96.0276 299.179 93.1634C297.356 92.0361 295.545 90.9203 293.722 89.7931C298.441 92.8183 303.032 96.0391 307.484 99.4554C308.788 100.41 310.068 101.388 311.337 102.377ZM9.54169 40.4C9.54169 40.3885 9.54169 40.377 9.54169 40.377C9.23022 40.561 8.91879 40.7565 8.60733 40.9406C8.60733 40.9521 8.59586 40.9521 8.59586 40.9521C8.90732 40.768 9.21869 40.584 9.54169 40.4ZM370.758 153.519C372.269 156.567 373.699 159.696 375.049 162.87C376.687 165.861 378.244 168.886 379.732 171.969C380.955 174.5 382.143 177.076 383.274 179.688C383.17 179.296 383.055 178.905 382.951 178.514C379.571 169.864 375.326 161.605 370.758 153.519ZM386.342 191.455C386.411 192.03 386.492 192.605 386.561 193.192C386.861 194.089 387.15 194.986 387.438 195.895C387.334 195.228 387.219 194.549 387.104 193.882C386.861 193.065 386.596 192.26 386.342 191.455ZM390.576 233.877C390.599 234.176 390.622 234.475 390.633 234.775C390.645 234.314 390.657 233.866 390.668 233.406C390.645 233.567 390.61 233.716 390.576 233.877ZM385.05 241.435C385.05 240.917 385.027 240.388 385.004 239.87C384.796 240.837 384.577 241.791 384.347 242.746C383.908 245.127 383.378 247.474 382.732 249.797C383.308 248.796 383.862 247.773 384.381 246.726C384.589 244.966 384.819 243.195 385.05 241.435ZM9.23029 44.587L9.17264 44.2879C9.18417 44.1729 9.24179 44.0924 9.34561 44.0464C9.54172 43.9313 9.74939 43.8048 9.9455 43.6898C9.8186 42.9651 9.69168 42.2404 9.55325 41.5042C8.74576 41.9183 7.96133 42.3669 7.16537 42.8155C7.11923 42.8731 7.08462 42.9306 7.03848 42.9996C6.90005 43.4367 6.7847 43.8853 6.66934 44.3339C6.75009 44.863 6.83087 45.3922 6.92316 45.9213C7.70758 45.4727 8.46893 45.0241 9.23029 44.587ZM390.011 210.63C389.964 211.631 389.918 212.632 389.849 213.632C390.149 215.151 390.426 216.681 390.668 218.222C390.795 219.027 390.899 219.844 391.003 220.661C391.026 219.867 391.037 219.085 391.037 218.291C390.783 215.726 390.437 213.172 390.011 210.63ZM374.899 278.244C375.706 277.105 376.479 275.932 377.194 274.758C377.275 274.62 377.356 274.482 377.437 274.333C375.81 276.219 374.045 277.991 372.096 279.555C370.896 281.016 369.615 282.396 368.243 283.673C368.197 283.731 368.162 283.788 368.116 283.834C370.734 282.396 372.984 280.533 374.899 278.244ZM379.525 254.617C380.263 253.145 380.92 251.638 381.52 250.108C381.659 249.119 381.774 248.118 381.878 247.117C381.151 248.923 380.344 250.706 379.455 252.443C378.798 254.226 378.071 255.997 377.264 257.723C377.944 256.883 378.613 256.032 379.248 255.158C379.34 254.974 379.432 254.789 379.525 254.617ZM375.049 262.082C374.403 263.244 373.734 264.383 373.007 265.51C374.068 264.061 375.06 262.565 375.995 261.035C375.683 261.381 375.372 261.737 375.049 262.082ZM374.368 260.84C374.299 260.932 374.218 261.035 374.149 261.128C374.195 261.082 374.23 261.047 374.276 261.001C374.31 260.943 374.345 260.886 374.368 260.84ZM375.637 191.478C377.091 194.48 378.475 197.528 379.755 200.623C379.64 200.174 379.525 199.725 379.409 199.277C377.76 195.136 375.937 191.075 374.045 187.164C368.739 176.179 362.51 165.631 355.6 155.578C349.059 146.065 342.126 136.84 334.42 128.224C326.772 119.677 318.386 111.602 309.376 104.482C309.261 104.39 309.134 104.298 309.019 104.206C309.307 104.448 309.607 104.678 309.884 104.919C311.891 106.61 313.852 108.347 315.79 110.119C326.403 119.447 335.978 129.915 344.618 141.084C354.527 153.887 363.778 167.644 371.104 182.103C372.43 184.714 373.688 187.36 374.899 190.029C375.141 190.5 375.406 190.983 375.637 191.478ZM30.4789 12.3101C31.2634 12.08 32.0593 11.8615 32.8553 11.6544C35.7738 10.8722 38.7269 10.2166 41.6915 9.64143C38.8768 10.113 36.0622 10.6422 33.2705 11.2748C28.3794 12.4021 23.6037 13.8975 18.9317 15.7264C22.7039 14.3461 26.5799 13.2303 30.4789 12.3101ZM361.84 290.092C362.406 289.804 362.948 289.493 363.49 289.171C363.144 289.309 362.798 289.459 362.44 289.585C362.244 289.758 362.048 289.931 361.84 290.092ZM375.672 272.308C375.81 272.09 375.949 271.871 376.087 271.653C375.776 271.975 375.464 272.297 375.141 272.619C374.945 273.01 374.772 273.401 374.576 273.781C374.957 273.297 375.314 272.803 375.672 272.308ZM378.544 267.362C379.029 266.43 379.49 265.499 379.928 264.555C381.22 261.76 382.293 258.896 383.17 255.997C383.239 255.434 383.32 254.858 383.389 254.295C383.285 254.479 383.181 254.663 383.089 254.847C381.959 257.688 380.632 260.46 379.121 263.129C378.302 265.487 377.402 267.822 376.375 270.1C377.148 269.214 377.875 268.294 378.544 267.362ZM380.413 259.287C380.367 259.356 380.321 259.414 380.286 259.483C380.263 259.552 380.251 259.621 380.228 259.678C380.286 259.552 380.355 259.414 380.413 259.287ZM379.202 261.059C379.109 261.197 379.017 261.335 378.913 261.473C378.394 262.186 377.852 262.876 377.298 263.555C375.902 266.235 374.322 268.823 372.534 271.307C372.499 271.365 372.453 271.411 372.407 271.469C374.807 268.765 376.918 265.717 378.74 262.473C378.902 262.002 379.052 261.542 379.202 261.059ZM379.801 258.85C379.94 258.309 380.078 257.769 380.205 257.217C379.848 258.114 379.467 259.011 379.063 259.897C379.317 259.552 379.559 259.195 379.801 258.85ZM380.148 255.606C379.79 256.135 379.432 256.653 379.063 257.171C377.598 260.104 375.914 262.91 373.976 265.556C373.676 265.97 373.365 266.361 373.053 266.764C374.783 265.188 376.387 263.428 377.852 261.542C378.717 259.598 379.478 257.619 380.148 255.606ZM367.816 270.709C368.635 269.743 369.408 268.754 370.112 267.765C370.723 266.89 371.323 266.005 371.888 265.096C370.561 266.235 369.154 267.259 367.677 268.167C367.424 268.386 367.158 268.593 366.905 268.811C364.84 270.813 362.579 272.584 360.133 274.045C362.902 273.286 365.451 272.147 367.816 270.709ZM356.096 274.39C355.138 274.666 354.169 274.919 353.189 275.103C353.269 275.103 353.362 275.103 353.443 275.103C353.823 275.092 354.204 275.046 354.585 275.023C355.104 274.816 355.6 274.609 356.096 274.39ZM346.763 272.653C346.775 272.653 346.786 272.653 346.786 272.642C342.484 272.607 338.192 271.733 334.143 270.353C333.428 270.111 332.736 269.847 332.032 269.571C334.178 270.755 336.393 271.779 338.665 272.63C341.376 273.01 344.11 273.079 346.763 272.653ZM100.593 42.7925C101.988 42.8386 103.396 42.8846 104.792 42.9421C103.384 42.8846 101.988 42.8386 100.593 42.7925ZM84.235 42.643C85.2386 42.6315 86.2538 42.6085 87.2574 42.6085C86.2538 42.6085 85.2502 42.6315 84.235 42.643ZM64.3015 43.3332C63.7362 43.3677 63.1595 43.4137 62.5942 43.4482C63.7708 43.3677 64.9359 43.2987 66.1126 43.2412C65.5127 43.2757 64.9013 43.2987 64.3015 43.3332ZM71.1652 42.9881C72.3072 42.9421 73.4608 42.9076 74.6028 42.8616C73.4492 42.8961 72.3072 42.9306 71.1652 42.9881ZM3.84311 29.2077C3.82004 29.2192 3.79694 29.2307 3.77386 29.2537C3.79694 29.3688 3.80853 29.4838 3.8316 29.5873C3.8316 29.4493 3.83157 29.3228 3.84311 29.2077ZM382.385 172.51C382.616 173.154 382.847 173.81 383.066 174.454C382.951 174.063 382.812 173.672 382.685 173.269C382.593 173.016 382.489 172.763 382.385 172.51ZM374.98 271.584C375.995 269.64 376.883 267.615 377.679 265.533C377.402 265.982 377.125 266.43 376.837 266.867C374.334 270.629 371.3 274.068 367.804 276.84C367.412 277.231 366.997 277.611 366.593 277.991C369.615 276.357 372.499 274.114 374.98 271.584ZM370.088 273.873C372.546 271.135 374.61 268.029 376.352 264.693C374.172 267.19 371.738 269.398 369.073 271.215C368.439 271.837 367.781 272.446 367.101 273.021C363.225 276.909 358.599 279.854 353.443 281.522C355.842 281.43 358.276 281.039 360.722 280.337C364.194 278.75 367.308 276.541 370.088 273.873ZM322.573 265.142C321.327 264.394 320.116 263.612 318.928 262.772C320.312 263.831 321.731 264.831 323.184 265.786C323.011 265.614 322.827 265.407 322.573 265.142ZM351.862 263.704C353.166 263.635 354.458 263.463 355.727 263.233C357.791 262.427 359.729 261.392 361.564 260.184C358.449 261.875 355.034 263.06 351.274 263.532C350.478 263.635 349.693 263.693 348.897 263.727C349.878 263.75 350.859 263.75 351.862 263.704ZM382.362 216.428C382.362 216.278 382.362 216.14 382.362 215.99C382.351 215.898 382.351 215.806 382.339 215.714C381.29 211.723 380.044 207.777 378.59 203.901C378.037 202.417 377.448 200.945 376.837 199.472C377.529 201.416 378.186 203.372 378.798 205.339C380.148 208.985 381.347 212.689 382.362 216.428ZM232.549 68.0987C237.694 69.9507 242.827 71.8947 247.914 73.9422C227.577 65.5106 206.398 59 185.091 53.9733C169.311 50.2579 153.311 47.4282 137.195 45.5187C156.517 47.8308 175.667 51.5002 194.458 56.4464C207.332 59.7132 220.044 63.6011 232.549 68.0987ZM109.106 43.1261C111.032 43.2297 112.97 43.3447 114.897 43.4712C112.959 43.3447 111.032 43.2297 109.106 43.1261ZM118.3 43.7013C120.918 43.8968 123.537 44.1039 126.144 44.3454C123.537 44.1039 120.918 43.8853 118.3 43.7013ZM128.474 44.5755C130.862 44.8055 133.238 45.0586 135.615 45.3347C133.227 45.0586 130.851 44.8055 128.474 44.5755ZM1.89355 30.4155C1.91663 30.542 1.93976 30.6686 1.96283 30.7836C2.38965 30.542 2.81647 30.289 3.23175 30.0474C3.20868 29.9094 3.18561 29.7599 3.16254 29.6218C2.74725 29.8979 2.32037 30.1509 1.89355 30.4155ZM378.244 155.75C374.137 146.617 369.143 137.932 363.882 129.42C356.811 117.963 348.84 107.082 340.107 96.8328C332.609 88.0331 324.557 79.8891 315.698 72.4468C302.42 61.2891 287.597 52.0178 272.001 44.449C271.055 43.9888 270.097 43.5402 269.152 43.0916C284.817 50.856 299.733 60.0468 313.125 71.308C321.535 78.3708 329.298 86.1467 336.485 94.4287C350.443 109.785 362.325 127.108 372.223 145.202C376.445 152.932 380.205 160.961 383.17 169.232C383.424 169.853 383.677 170.474 383.92 171.106C382.489 165.815 380.621 160.696 378.244 155.75ZM378.14 283.546C375.914 286.641 373.376 289.47 370.481 291.852C368.554 294.095 366.432 296.131 364.101 297.891C366.12 296.752 368.058 295.348 369.915 293.68C373.122 290.793 375.868 287.216 378.14 283.546ZM348.851 286.365C345.252 286.779 341.595 286.537 338.019 285.836C342.034 286.986 346.21 287.538 350.374 287.342C353.443 287.193 356.269 286.606 358.899 285.686C357.295 285.997 355.68 286.204 354.031 286.273C352.67 286.33 351.308 286.307 349.959 286.215C349.601 286.261 349.232 286.33 348.851 286.365ZM346.544 284.789C347.975 284.823 349.417 284.846 350.847 284.881C354.561 284.225 357.999 282.822 361.333 280.912C361.275 280.924 361.218 280.935 361.16 280.958C358.403 282.235 355.438 283.132 352.277 283.489C348.701 283.903 345.171 283.696 341.745 283.04C340.799 282.994 339.865 282.925 338.919 282.822C341.399 283.719 343.937 284.375 346.544 284.789ZM334.478 280.935C334.766 281.073 335.055 281.223 335.343 281.361C335.551 281.407 335.758 281.453 335.966 281.499C335.47 281.326 334.974 281.131 334.478 280.935ZM346.221 282.971C347.352 283.029 348.494 283.052 349.659 283.006C352.197 282.891 354.585 282.454 356.846 281.787C355.911 281.902 354.965 281.982 354.008 282.017C353.223 282.051 352.427 282.063 351.643 282.051C349.89 282.5 348.078 282.822 346.221 282.971ZM360.087 277.646C360.156 277.6 360.237 277.542 360.306 277.496C355.507 279.854 350.27 280.809 344.918 280.51C346.913 281.062 348.921 281.395 350.939 281.51C354.146 280.763 357.238 279.497 360.087 277.646ZM325.03 273.251C324.165 272.803 323.334 272.32 322.515 271.825C324.084 272.883 325.688 273.873 327.36 274.758C328.56 275.161 329.748 275.575 330.948 275.978C330.717 275.84 330.487 275.702 330.256 275.564C328.468 274.908 326.726 274.137 325.03 273.251ZM330.267 274.482C336.162 276.714 342.426 277.669 348.701 276.622C345.679 276.403 342.714 275.805 339.807 274.908C338.85 274.712 337.892 274.494 336.947 274.229C336.854 274.206 336.773 274.172 336.681 274.149C333.278 273.447 329.956 272.308 326.83 270.87C324.315 269.72 324.673 269.904 322.285 268.501C322.239 268.478 322.204 268.455 322.169 268.432C324.788 270.629 327.43 272.665 330.267 274.482ZM2.65494 60.4839C2.74722 60.0468 2.86264 59.6787 3.03567 59.5752C3.25485 59.4486 3.49704 59.2991 3.72775 59.1611C3.71622 59.0575 3.69318 58.954 3.68164 58.862C3.61243 58.4249 3.49704 55.7907 4.01614 55.4917C4.26993 55.3421 4.53525 55.1811 4.80057 55.02C4.70828 54.4104 4.616 53.7892 4.52371 53.1796C4.41989 53.2371 4.3045 53.2946 4.20068 53.3521C4.18915 53.3521 4.17767 53.3636 4.16614 53.3751C3.32404 53.8583 2.50504 54.3644 1.67447 54.882C2.009 56.7455 2.33194 58.6089 2.65494 60.4839Z" fill="#AFECDB"/>
</svg>
