<svg width="244" height="247" viewBox="0 0 244 247" fill="none" xmlns="http://www.w3.org/2000/svg">
<path d="M290.123 161.426C292.779 158.42 295.095 155.106 296.876 151.475C297.827 149.544 298.638 147.575 299.304 145.578C301.48 141.283 302.937 136.677 303.558 132.017C303.764 130.459 303.878 128.922 303.91 127.388C303.925 127.148 303.955 126.916 303.97 126.677C304.107 123.994 303.946 121.34 303.566 118.754C302.941 114.447 300.924 110.252 299.206 106.523C297.773 103.592 296.319 100.661 294.856 97.7474C293.656 95.8446 292.301 94.0758 290.784 92.4496C288.225 89.551 285.325 87.0409 281.983 85.1364C272.183 78.7525 259.41 78.6063 247.361 82.6478C241.954 84.4663 236.726 86.7693 231.611 89.6018C230.629 90.1463 229.654 90.6948 228.683 91.256C228.633 91.0059 228.583 90.7558 228.541 90.5097C228.725 90.0417 228.754 89.8656 228.709 89.3036C228.437 88.2547 228.184 87.2051 227.95 86.142C227.646 84.8637 227.372 83.5672 227.119 82.27C224.678 71.1857 221.105 59.4131 213.304 51.6316C211.347 49.6801 209.166 47.9631 206.786 46.5824C203.291 44.2181 199.409 42.7691 195.082 42.1607C189.549 41.3877 184.134 42.1348 178.47 43.4632C174.29 44.4464 169.918 46.0729 165.911 47.9976C161.796 49.9689 158.083 52.3695 154.868 55.8661C154.69 56.0563 155.536 57.1609 155.568 57.1212C157.754 54.9651 159.958 53.1669 162.488 51.5232C163.459 50.9621 164.448 50.443 165.421 49.95C163.764 50.9038 162.162 51.9751 160.587 53.229C160.446 53.3367 160.399 53.5264 160.401 53.7184C159.978 53.986 159.555 54.2536 159.151 54.5419C156.819 56.174 154.849 58.0019 153.074 60.1087C152.923 60.2338 152.767 60.3677 152.615 60.4929C150.384 62.4458 148.383 64.5951 146.761 67.1275C146.259 67.9617 145.757 68.7958 145.255 69.63C145.095 70.0202 144.943 70.4144 144.798 70.8126C144.52 71.2328 144.263 71.6523 144.029 72.0837C143.927 72.2113 143.824 72.3389 143.717 72.4752C142.322 74.3374 141.241 76.1794 140.374 78.1757C139.701 79.3834 139.116 80.6134 138.625 81.8571C138.615 81.8746 138.608 81.9047 138.606 81.9262C137.58 83.6508 136.727 85.463 136.058 87.358C135.781 87.9917 135.534 88.6414 135.308 89.2902C133.357 93.1158 132.389 97.2851 131.986 101.506C131.156 110.239 132.996 118.613 135.75 126.329C138.35 133.607 141.667 140.543 145.363 147.165C149.79 155.093 154.991 162.382 160.277 169.646C160.857 170.436 162.184 169.46 161.705 168.811C157.044 162.472 152.465 156.13 148.39 149.325L145.087 143.7C143.261 140.04 141.442 136.384 139.62 132.715C138.48 129.977 137.478 127.119 136.657 124.173C137.238 125.941 137.875 127.681 138.558 129.376C140.799 134.921 143.467 140.156 146.457 145.229C151.537 153.837 156.931 162.156 162.753 170.199C162.963 170.486 164.41 169.796 163.976 169.227L159.079 162.7C156.301 159.263 153.824 155.597 151.616 151.721C154.806 156.637 158.207 161.413 161.665 166.14C161.904 166.464 162.256 166.43 162.537 166.236C162.902 166.747 163.28 167.254 163.645 167.766C164.102 168.381 165.466 167.447 164.881 166.666C164.245 165.814 163.606 164.949 162.975 164.089C162.988 164.084 163.014 164.074 163.026 164.07C163.386 164.556 163.74 165.051 164.107 165.541C164.477 166.044 165.123 165.722 165.421 165.211C165.871 165.822 166.313 166.429 166.768 167.031C167.335 167.792 168.614 166.971 168.073 166.236C166.882 164.64 165.703 163.04 164.528 161.431C164.581 161.39 164.627 161.346 164.669 161.289C165.122 161.913 165.582 162.54 166.035 163.164C166.607 163.95 168.083 162.96 167.524 162.204C167.168 161.73 166.816 161.248 166.473 160.77C167.005 160.771 167.624 160.424 167.239 159.913C161.927 152.748 156.761 145.522 152.23 137.743C150.591 135.033 149.071 132.237 147.67 129.355C145.993 126.142 144.586 122.774 143.462 119.259C141.876 114.923 140.43 110.412 139.758 105.689C139.684 102.989 139.848 100.241 140.388 97.5056C140.656 100.45 141.132 103.366 141.703 106.309C141.733 106.47 141.893 106.686 142.059 106.872C142.507 109.178 143.072 111.455 143.716 113.681C148.762 131.091 158.923 145.758 169.149 159.74C169.338 159.993 170.789 160.328 170.374 159.78C164.362 151.753 158.49 143.639 153.515 134.792C151.555 131.333 149.751 127.775 148.118 124.112C146.373 120.449 145.097 116.563 144.263 112.465C141.572 105.455 141.221 97.8846 143.136 89.7605C143.23 90.0217 143.324 90.283 143.289 90.5234C143.345 89.8894 143.443 89.2538 143.548 88.6222C143.998 87.7729 144.472 86.9696 144.988 86.199C144.945 86.6489 144.916 87.1283 145.022 86.834C145.215 86.3144 145.416 85.7989 145.622 85.2746C146.955 83.4147 148.48 81.6972 150.186 79.9261C150.672 79.4213 149.302 80.0826 149.191 80.1721C148.684 80.588 148.19 80.9991 147.703 81.4143C147.677 81.3896 147.656 81.3562 147.632 81.3443C147.601 81.3284 147.555 81.3386 147.519 81.3314C149.59 79.3418 151.867 77.558 154.269 75.8379C154.256 75.8427 154.24 75.8347 154.227 75.8394C153.154 76.0116 152.42 76.0985 151.79 76.2158C153.77 74.7077 155.831 73.3419 157.839 72.0506C158.267 71.7743 157.692 71.5265 157.493 71.5595C157.459 71.565 157.426 71.5706 157.393 71.5761C159.115 70.4533 160.887 69.4013 162.695 68.4121C162.824 68.3432 163.274 67.9209 162.844 68.0052C162.004 68.1729 161.128 68.3334 160.248 68.5027C160.904 68.1069 161.551 67.7285 162.216 67.3708C162.779 67.1408 163.345 66.9234 163.922 66.7227C164.148 66.6246 163.988 66.5879 163.717 66.5851C165.873 65.5146 168.086 64.5744 170.378 63.6526C170.519 63.6004 170.761 63.4207 170.991 63.2456C171.644 63.0165 172.292 62.7961 172.948 62.5796C173.114 62.518 173.546 62.1091 173.134 62.1799C171.927 62.374 170.71 62.5856 169.499 62.8226C169.145 62.8784 168.784 62.9302 168.43 62.986C168.501 62.8425 168.473 62.7496 168.243 62.8349C167.858 62.9645 167.478 63.0853 167.085 63.2109C166.439 63.3202 165.796 63.4422 165.153 63.5642C166.82 62.8065 168.517 62.1203 170.226 61.519C174.593 59.9909 178.885 59.2 183.336 58.7705C183.593 58.7439 184.64 58.2439 184.591 58.2415C182.865 58.0364 181.134 57.9638 179.376 58.0118C184.025 57.0882 188.557 57.1381 192.967 58.1705C193.393 58.2529 194.048 57.665 194.452 57.7696C192.908 57.3656 191.351 57.0219 189.775 56.7472C189.041 56.5309 188.319 56.3314 187.607 56.1485C189.163 56.1208 190.705 56.1875 192.236 56.3828C192.651 56.4144 193.283 55.5455 193.608 55.5762C190.876 55.2632 188.165 54.9835 185.358 55.1045C188.028 54.7793 190.695 54.7105 193.325 54.9376C196.487 56.6268 199.654 58.3072 202.817 59.9963C204.766 61.7304 206.419 63.7743 207.895 65.9529C212.521 72.746 215.087 80.9733 216.76 89.3404C217.393 92.4938 218.155 95.9713 218.013 99.3029C217.99 100.145 217.939 100.984 217.854 101.828C217.867 101.858 217.86 101.888 217.861 101.922C217.718 102.051 217.574 102.18 217.42 102.293C217.264 102.64 217.226 102.991 217.294 103.352C217.291 103.519 217.358 103.631 217.46 103.717C217.358 103.845 217.256 103.972 217.114 104.08C217.054 104.151 216.999 104.213 216.952 104.278C216.811 102.746 216.599 101.234 216.315 99.7415C216.256 99.4192 215.125 99.2476 215.113 99.073C215.388 101.685 216.083 104.746 215.294 107.478C214.529 107.976 214.55 107.975 214.055 109.117C213.961 109.338 214.012 109.533 214.163 109.711C214.125 109.849 214.079 109.983 214.037 110.129C213.475 110.394 213.302 110.609 212.912 111.388C212.633 111.954 213.167 112.54 213.869 112.954C213.649 113.111 213.432 113.282 213.22 113.443C213.047 113.411 212.879 113.371 212.713 113.343C212.454 113.356 212.241 113.484 212.072 113.712C211.975 113.865 211.874 114.027 211.777 114.18C211.574 114.503 211.662 114.953 211.897 115.41C211.579 115.652 211.244 115.852 210.872 115.977C211.002 116.156 211.133 116.335 211.255 116.509C211.151 116.569 211.063 116.636 210.944 116.722C210.954 117.131 210.978 117.48 211.02 117.816C210.681 118.059 210.348 118.238 210.052 118.3C210.065 118.33 210.079 118.359 210.097 118.38C209.962 118.423 209.825 118.522 209.689 118.711C209.34 119.185 209.474 120.568 209.759 121.151C209.138 121.52 208.527 121.905 207.932 122.299C207.097 122.851 207.426 123.906 207.558 124.67C207.637 125.171 207.699 125.898 208.017 126.297C207.94 126.291 208.03 126.382 208.289 126.581C208.38 126.582 208.475 126.574 208.565 126.575C208.593 126.578 208.616 126.59 208.65 126.585C208.642 126.581 208.634 126.577 208.626 126.573C208.791 126.567 208.958 126.573 209.115 126.563C209.255 126.511 209.42 126.415 209.595 126.302C209.741 126.613 209.948 126.853 210.185 126.861C211.058 126.901 211.615 126.432 212.347 125.85C215.35 123.493 218.338 121.217 221.489 119.081C221.638 118.977 221.667 118.677 221.486 118.641C221.325 118.605 221.143 118.624 220.954 118.674C221.95 117.945 222.95 117.208 223.96 116.509C224.122 116.4 224.108 116.371 223.943 116.467C222.938 117.033 221.949 117.608 220.955 118.191C223.321 116.588 225.728 115.073 228.158 113.569C228.577 113.31 228.02 113.083 227.828 113.12C227.017 113.291 226.42 113.403 225.893 113.516C228.904 111.68 231.973 109.974 235.107 108.401C235.292 108.305 235.261 108.075 235.056 108.117C234.344 108.238 233.644 108.353 232.94 108.477C235.312 107.237 237.707 106.063 240.143 105.012C240.169 105.003 241.234 104.366 240.624 104.482C239.61 104.673 238.604 104.869 237.6 105.077C238.313 104.777 239.029 104.49 239.748 104.216C240.174 104.051 239.694 103.795 239.512 103.815C239.404 103.827 239.296 103.84 239.193 103.843C241.482 102.841 243.811 101.926 246.189 101.138C246.24 101.119 246.332 101.064 246.441 100.996C246.584 100.957 246.732 100.908 246.88 100.86C247.437 100.694 247.92 99.9634 247.089 100.045C246.906 100.065 246.719 100.093 246.537 100.113C247.16 99.9019 247.782 99.6909 248.416 99.4967C248.863 99.3649 249.247 98.5607 249.653 98.4645C246.937 99.1031 244.149 99.7614 241.398 100.585C241.9 100.391 242.407 100.189 242.912 100.008C248.294 98.1092 253.454 97.2093 258.938 97.0703C259.275 97.0621 260.262 96.6327 260.34 96.6384C258.409 96.3853 256.521 96.199 254.621 96.1413C254.729 96.1287 254.834 96.1035 254.941 96.091C259.771 95.4724 263.31 95.6573 268.082 96.672C268.424 96.7447 269.366 96.27 269.486 96.3083C267.376 95.6946 265.259 95.1667 263.099 94.7855C262.64 94.653 262.189 94.5246 261.733 94.4048C263.694 94.392 265.639 94.5292 267.546 94.86C272.437 95.6994 276.788 97.6904 280.566 100.48C281.173 101.081 281.749 101.7 282.303 102.341C285.455 106.025 288.094 110.189 290.127 114.729C292.937 121.013 295.075 127.809 293.723 135.489C293.264 138.098 292.519 140.628 291.53 143.09C291.064 144.055 290.55 144.984 290.019 145.904C290.011 145.687 289.999 145.512 290.001 145.491C289.857 145.923 289.682 146.34 289.51 146.769C288.808 147.905 288.05 149.013 287.248 150.076C285.879 151.447 284.447 152.751 282.954 153.967C279.11 157.099 274.968 159.494 270.694 161.8C271.057 161.603 271.745 161.65 272.146 161.528C273.454 161.138 274.761 160.714 276.064 160.243C275.342 160.718 274.602 161.173 273.862 161.627C271.823 162.723 269.743 163.731 267.641 164.671C267.391 164.723 267.155 164.783 266.905 164.835C266.646 165.007 266.385 165.166 266.122 165.347C264.806 165.912 263.482 166.474 262.152 167.01C261.918 167.104 261.973 167.469 262.054 167.611C260.699 168.191 259.342 168.758 257.991 169.294C257.548 169.473 257.54 169.772 258.056 169.642C258.246 169.592 258.43 169.551 258.619 169.502C254.879 171.203 251.052 172.434 247.126 173.164C243.768 173.959 240.392 174.588 237.015 175.058C236.79 175.101 236.554 175.127 236.622 175.398C236.674 175.626 237.512 175.48 237.661 175.466C239.227 175.331 240.831 175.182 242.448 175.028C239.16 175.735 235.861 176.335 232.585 176.858C232.478 176.87 232.342 176.914 232.202 176.966C219.523 178.541 206.872 178.625 194.296 178.186C193.9 178.175 193.112 178.358 192.88 178.341C207.131 179.184 221.52 179.603 236.014 178.29C217.24 181.423 198.554 180.893 180.182 179.469C177.852 179.282 175.519 179.082 173.19 178.873C173.121 178.872 173.059 178.874 173.002 178.868C172.234 178.802 171.466 178.737 170.71 178.666C169.836 178.592 169.185 179.833 170.136 179.913C170.778 179.97 171.42 180.028 172.067 180.076C172.1 180.374 172.213 180.656 172.465 180.672C177.037 181.079 181.598 181.47 186.17 181.822C180.286 181.476 174.418 180.993 168.575 180.466C167.34 180.354 167.443 182.451 168.345 182.529C169.044 182.592 169.743 182.656 170.447 182.711C170.401 182.845 170.376 182.979 170.354 183.125C169.874 183.083 169.408 183.036 168.928 182.994C168.335 182.939 168.097 183.413 168.065 184.004C167.379 183.935 166.696 183.879 166.01 183.811C165.587 183.775 165.4 184.017 165.357 184.377C164.496 184.298 163.635 184.219 162.781 184.144C162.408 184.111 161.248 185.306 161.792 185.359C163.084 185.478 164.368 185.592 165.653 185.707C165.655 185.72 165.658 185.732 165.666 185.736C165.086 185.677 164.501 185.626 163.915 185.575C162.933 185.479 162.898 186.27 163.204 187.01C162.42 186.937 161.644 186.867 160.86 186.794C160.528 186.759 160.025 187.47 160.033 187.777C160.043 188.186 160.6 188.537 160.94 188.576C161.809 188.659 162.691 188.737 163.56 188.82C163.577 188.862 163.593 188.905 163.615 188.938C162.823 188.861 162.039 188.787 161.247 188.71C160.703 188.657 160.322 189.261 160.485 189.737C160.527 189.859 160.612 189.993 160.726 190.129C160.182 190.077 159.638 190.025 159.094 189.972C158.57 189.919 158.353 190.73 158.447 191.081C158.594 191.605 159.67 191.962 160.2 192.041C160.358 192.312 160.694 192.573 161.098 192.802C160.067 192.703 159.043 192.609 158.011 192.51C157.496 192.461 156.788 192.573 156.858 193.339C156.897 193.751 157.397 194.006 157.915 194.158C157.846 194.28 157.819 194.435 157.853 194.643C157.877 194.812 158.007 194.957 158.185 195.07C158.128 195.064 158.079 195.061 158.022 195.055C157.527 195.005 156.117 194.668 155.902 195.582C155.708 196.37 156.826 196.512 157.435 196.575C157.297 196.64 157.191 196.721 157.111 196.826C156.543 197.672 157.513 197.896 158.094 197.956C175.168 199.664 192.252 200.837 209.765 199.792C220.023 199.186 230.364 197.936 240.613 195.404C236.06 196.995 231.453 198.109 226.787 198.743C218.208 200.081 209.717 200.767 201.278 200.986C200.79 200.995 200.301 201.005 199.812 201.014C199.303 201.024 198.794 201.035 198.29 201.036C185.641 201.099 173.156 200.178 160.691 198.953C160.248 198.952 159.815 198.989 159.371 199.044C159.144 199.018 158.912 199.001 158.685 198.976C157.694 198.876 155.597 198.953 154.671 199.594C154.145 199.955 153.87 200.725 154.69 200.806C162.967 201.64 171.285 202.382 179.665 202.785C192.76 203.5 205.988 203.463 219.315 201.791C229.78 200.481 240.187 198.49 250.471 194.92C261.373 191.126 273.008 185.468 280.817 175.875C281.997 174.802 283.14 173.688 284.215 172.517C286.939 169.534 288.872 166.025 290.46 162.396C290.597 162.084 290.401 161.647 290.123 161.426ZM253.038 93.0657C252.76 93.0589 252.49 93.0561 252.207 93.058C253.579 92.7681 254.957 92.5377 256.332 92.3843C255.32 92.5542 254.309 92.7582 253.306 93.0002C253.219 93.012 253.13 93.0452 253.038 93.0657ZM195.874 53.1352C194.405 52.7242 192.929 52.433 191.436 52.2235C190.981 52.1037 190.52 51.9927 190.049 51.8991C192.547 51.9689 194.976 52.3187 197.306 52.9883C199.342 53.8907 201.257 55.0453 203.011 56.4108C202.996 56.4029 202.972 56.3909 202.957 56.383C200.808 54.9851 198.472 53.8631 195.874 53.1352ZM255.227 83.4411C256.252 83.48 257.282 83.5102 258.315 83.5531C257.159 83.7283 256.012 83.9416 254.873 84.193C253.709 84.3642 252.549 84.5822 251.377 84.8391L255.227 83.4411ZM295.702 118.366C295.005 116.09 294.126 113.889 293.139 111.77L293.879 112.776C294.137 113.21 294.385 113.662 294.633 114.114C295.417 115.861 296.12 117.59 296.694 119.354C296.83 119.985 296.972 120.608 297.062 121.249C297.026 121.455 296.998 121.666 296.966 121.863C296.58 120.678 296.162 119.51 295.702 118.366ZM264.885 90.3255C264.292 90.1809 263.685 90.0625 263.085 89.9481C265.016 89.9876 266.937 90.1684 268.816 90.5301C270.313 90.8205 271.738 91.2204 273.106 91.7035C273.501 91.8597 273.903 92.0199 274.298 92.1761C274.519 92.2661 274.732 92.3521 274.953 92.4422C275.928 93.0509 276.91 93.6635 277.885 94.2722C278.523 94.7097 279.134 95.1782 279.723 95.6688C279.084 95.3209 278.435 94.9906 277.759 94.6911C277.46 94.5612 277.156 94.4401 276.857 94.3103C273.189 92.2854 269.138 90.9409 264.885 90.3255ZM295.762 111.813C295.244 110.628 294.696 109.462 294.125 108.317C294.3 108.631 294.488 108.94 294.658 109.262C294.787 109.497 294.9 109.723 295.03 109.957C295.279 110.567 295.523 111.186 295.762 111.813ZM224.292 89.9411C224.288 89.8943 224.285 89.8474 224.273 89.7966C224.212 89.406 224.13 89.0162 224.064 88.6344C224.129 88.948 224.201 89.2655 224.257 89.5752C224.314 89.8848 224.358 90.1992 224.409 90.5175C224.374 90.3309 224.335 90.1317 224.292 89.9411ZM220.967 100.167C220.923 100.246 220.871 100.32 220.819 100.395C220.804 100.331 220.802 100.263 220.788 100.199L220.796 100.203C220.862 100.192 220.913 100.173 220.967 100.167ZM291.254 97.4409C292.101 98.6137 292.948 99.7865 293.795 100.959C294.5 102.026 295.16 103.138 295.803 104.263C296.07 104.859 296.335 105.477 296.587 106.099C297.292 107.807 297.954 109.503 298.522 111.242C297.102 107.912 295.382 104.722 293.482 101.833C292.212 99.8949 290.799 98.0854 289.273 96.4211C289.938 96.7595 290.597 97.1065 291.254 97.4409ZM214.185 57.0347C214.818 57.8738 215.459 58.7169 216.087 59.5648C216.343 59.9311 216.573 60.3068 216.824 60.6818C218.183 63.1935 219.376 65.801 220.474 68.4719C221.519 71.0037 222.292 73.5884 223.073 76.2325C220.954 69.3679 217.984 62.744 213.468 57.5011C211.657 55.399 209.652 53.6029 207.447 52.1089C207.234 51.9332 207.018 51.7448 206.793 51.5738C209.796 52.6539 212.267 54.4626 214.185 57.0347ZM213.971 67.8116C214.116 68.0198 214.26 68.228 214.399 68.4449C215.056 69.4539 215.653 70.4993 216.232 71.5582C216.822 72.8472 217.372 74.1719 217.876 75.5069C218.109 76.1985 218.342 76.8902 218.555 77.5826C219.578 80.9009 220.43 84.2897 221.117 87.74C220.829 86.6832 220.528 85.6311 220.201 84.5885C219.75 82.8759 219.281 81.1767 218.723 79.5107C217.942 77.1356 217.019 74.7785 215.947 72.4911C215.365 70.9028 214.703 69.3303 213.971 67.8116ZM221.124 98.3935C220.965 98.6044 220.801 98.8239 220.618 99.0229C220.682 98.3928 220.805 97.7477 220.89 97.1169C220.934 96.8249 220.961 96.5805 220.998 96.3742C221.073 97.0418 221.108 97.7109 221.124 98.3935ZM283.348 88.1346C281.119 86.7525 278.753 85.6146 276.205 84.7439C275.47 84.4936 274.716 84.2781 273.96 84.084C274.463 84.1039 274.978 84.119 275.48 84.1388C277.7 84.8765 279.888 85.8672 281.873 87.0577C282.381 87.4061 282.871 87.768 283.348 88.1346ZM207.036 48.8106C200.907 45.3183 193.589 44.2314 186.028 45.3013C184.769 45.4803 183.509 45.7148 182.245 45.9922C179.407 46.4005 176.547 47.0785 173.729 47.9686C184.181 44.1698 196.226 42.8784 205.124 47.6346C205.619 47.898 206.1 48.1877 206.573 48.4734C206.73 48.5871 206.879 48.6969 207.036 48.8106ZM179.957 54.9714C179.422 54.9571 178.881 54.9515 178.339 54.9673C180.777 54.4116 183.225 54.0519 185.638 53.9327C183.745 54.148 181.85 54.5085 179.957 54.9714ZM219.342 103.665C219.341 103.72 219.353 103.771 219.351 103.827C219.308 103.85 219.268 103.885 219.225 103.908C219.223 103.84 219.226 103.763 219.237 103.69C219.271 103.684 219.309 103.67 219.342 103.665ZM217.007 106.834C217.064 106.84 217.12 106.847 217.185 106.857C217.187 106.926 217.176 106.999 217.17 107.063C217.109 107.099 217.056 107.14 216.998 107.189C217.005 107.069 217 106.954 217.007 106.834ZM280.46 98.8526C280.088 98.4948 279.712 98.1458 279.33 97.8055C279.403 97.8541 279.482 97.8939 279.55 97.9511C281.293 99.1761 282.917 100.632 284.402 102.242C283.332 101.214 282.198 100.266 281.001 99.409C280.829 99.2317 280.647 99.0378 280.46 98.8526ZM283.747 169.571C283.751 169.314 283.598 168.944 283.394 168.717C284.795 167.431 286.138 166.07 287.402 164.636C286.266 166.36 285.056 168.002 283.747 169.571ZM233.154 90.3987C233.888 90.0086 234.63 89.6224 235.364 89.2323C236.72 88.5074 238.099 87.8842 239.492 87.3244C236.586 88.7088 233.724 90.2623 230.933 91.9413C230.738 92.0552 230.832 92.5641 231.006 92.9335C229.982 93.5351 228.96 94.1493 227.944 94.789C228.028 94.5511 228.12 94.3171 228.24 94.0863C228.391 93.7135 228.516 93.3502 228.617 92.975C230.118 92.0654 231.633 91.2193 233.154 90.3987ZM214.854 77.5403C212.386 70.5989 208.868 63.9654 203.731 59.0914C205.809 60.6328 207.681 62.485 209.325 64.5805C210.874 66.5599 212.22 68.6835 213.4 70.9243C213.205 70.9486 213.053 70.95 213.015 70.8745C213.785 72.2551 214.483 73.6555 215.146 75.0827C215.613 76.4105 216.05 77.7564 216.454 79.1079C217.762 83.5601 218.963 88.2383 219.303 93.0508C219.291 93 219.28 92.9492 219.271 92.9111C219.242 92.784 219.027 92.7194 218.777 92.6817C217.946 87.4731 216.576 82.3828 214.854 77.5403ZM265.284 93.4834C263.522 93.2711 261.75 93.2 259.968 93.2361C263.28 92.9342 266.58 93.0084 269.84 93.5453C271.632 94.2219 273.345 95.0722 274.963 96.0756C271.923 94.7748 268.68 93.8871 265.284 93.4834ZM293.448 121.285C291.646 115.694 289.135 110.146 285.834 105.319C286.992 106.617 288.081 108.003 289.082 109.456C290.013 110.818 290.915 112.232 291.767 113.699C292.451 115.25 293.139 116.791 293.823 118.341C294.333 120.983 294.838 123.633 295.348 126.274C295.39 126.913 295.393 127.566 295.373 128.208C295.334 128.008 295.296 127.809 295.245 127.615C295.208 127.449 294.973 127.24 294.748 127.069C294.462 125.082 294.042 123.137 293.448 121.285Z" fill="#FFDDA5"/>
<path d="M110.064 31.095C109.525 29.0824 108.743 27.1088 107.652 25.2497C107.073 24.2596 106.434 23.3138 105.737 22.4169C104.468 20.19 102.837 18.1539 100.923 16.4353C100.283 15.8615 99.6231 15.3311 98.9397 14.8346C98.836 14.7531 98.7406 14.6679 98.6369 14.5864C97.4672 13.6855 96.2182 12.9129 94.9322 12.2497C92.793 11.1424 90.2744 10.6282 88.0593 10.1412C86.2921 9.79125 84.5188 9.44979 82.7504 9.11777C81.5203 8.9986 80.3024 8.98428 79.0992 9.07953C76.9992 9.19146 74.9697 9.5623 73.077 10.3017C67.1663 12.2173 63.1564 17.2915 61.262 23.3963C60.4141 26.1374 59.8405 28.9594 59.5411 31.9029C59.4839 32.4684 59.4308 33.032 59.3844 33.5984C59.256 33.5396 59.1276 33.4807 59.0034 33.42C58.8487 33.1986 58.7781 33.1314 58.5104 32.9721C57.9522 32.7507 57.4 32.5208 56.8472 32.2796C56.1757 31.9985 55.5053 31.6994 54.841 31.3918C49.0785 28.8753 42.6558 26.5951 36.7306 27.269C35.2445 27.4381 33.7954 27.7707 32.4365 28.2896C30.2888 28.9453 28.4354 30.0446 26.8244 31.5874C24.7668 33.5615 23.4322 35.968 22.2837 38.6574C21.4373 40.643 20.8222 42.9087 20.4545 45.1221C20.0749 47.3931 20.0132 49.6385 20.6005 52.0299C20.6315 52.1612 21.3916 52.1707 21.3837 52.1451C21.0842 50.5892 20.9523 49.1384 20.9908 47.606C21.0372 47.0395 21.1077 46.4797 21.1855 45.9341C21.105 46.899 21.0943 47.8791 21.1747 48.9057C21.1797 48.9964 21.251 49.075 21.3384 49.1347C21.3287 49.3886 21.319 49.6426 21.3243 49.8957C21.3417 51.3452 21.5595 52.7112 21.9635 54.0871C21.9733 54.1872 21.9856 54.292 21.9954 54.3921C22.1888 55.9025 22.5424 57.3821 23.1856 58.8313C23.4076 59.2955 23.6296 59.7597 23.8515 60.2239C23.9784 60.4111 24.1095 60.5965 24.2448 60.7801C24.3489 61.0239 24.459 61.2593 24.5817 61.4891C24.6078 61.5704 24.6338 61.6516 24.6623 61.7376C25.073 62.8841 25.5714 63.8985 26.2058 64.8755C26.5438 65.526 26.9191 66.1483 27.3292 66.7376C27.3341 66.747 27.3456 66.7593 27.3546 66.7669C27.8173 67.7218 28.3727 68.6353 29.0225 69.5009C29.2231 69.8121 29.4406 70.1157 29.664 70.4109C30.7901 72.3995 32.3753 74.1021 34.1581 75.5947C37.848 78.6812 42.1999 80.5842 46.5373 81.9131C50.6288 83.1658 54.787 84.0231 58.9206 84.63C63.8699 85.3551 68.7694 85.5683 73.6839 85.7399C74.22 85.7564 74.1888 84.9168 73.7479 84.9044C69.4442 84.7739 65.1646 84.6095 60.8312 84.0974L57.2695 83.6477C55.0516 83.2258 52.8379 82.802 50.6176 82.3754C49.0285 81.9693 47.4278 81.4696 45.8431 80.8698C46.8213 81.1942 47.8043 81.4875 48.7811 81.7486C51.9786 82.5988 55.1678 83.1798 58.3836 83.5805C63.8418 84.2587 69.2664 84.7196 74.6983 84.9218C74.8929 84.928 75.028 84.1304 74.6371 84.1247L70.1757 84.0297C67.7648 84.0597 65.3432 83.897 62.9098 83.5595C66.1164 83.8309 69.3245 83.9738 72.5283 84.078C72.7488 84.0842 72.8418 83.9324 72.8409 83.7586C73.1848 83.7737 73.5306 83.7821 73.8745 83.7971C74.2937 83.8075 74.2926 82.9662 73.7589 82.9545C73.1777 82.9408 72.5898 82.9242 72.0062 82.9058C72.008 82.8992 72.0115 82.886 72.0133 82.8794C72.344 82.8887 72.6771 82.9027 73.012 82.9102C73.3535 82.9204 73.407 82.5599 73.2685 82.2791C73.6835 82.2914 74.0943 82.3056 74.5069 82.3133C75.0255 82.3259 75.0498 81.5545 74.5505 81.5391C73.4615 81.5137 72.3743 81.4818 71.2846 81.4451C71.2828 81.4111 71.2767 81.379 71.264 81.344C71.6856 81.3592 72.1114 81.3725 72.5331 81.3877C73.0649 81.406 73.0733 80.5024 72.559 80.4879C72.2349 80.4814 71.9084 80.4703 71.5862 80.4572C71.7514 80.2442 71.7856 79.8864 71.4356 79.8799C66.558 79.7498 61.6976 79.5424 56.7834 78.9062C55.0526 78.7083 53.3199 78.4359 51.5852 78.0889C49.6156 77.7479 47.6589 77.2502 45.7236 76.592C43.275 75.8607 40.79 75.018 38.4482 73.7979C37.2052 72.9761 36.0143 72.044 34.9449 70.9649C36.3583 71.7862 37.8228 72.515 39.3287 73.2137C39.4107 73.2526 39.5577 73.2567 39.6932 73.2485C40.8736 73.7963 42.0768 74.2874 43.2817 74.7314C52.7069 78.1983 62.4718 78.7502 71.9471 79.0596C72.12 79.0638 72.7195 78.5875 72.3437 78.5809C66.8601 78.4598 61.3806 78.2555 55.8469 77.4601C53.6786 77.1554 51.5138 76.7563 49.3541 76.2562C47.1602 75.8004 45.0104 75.0869 42.901 74.1289C38.9025 72.9973 35.3733 70.7507 32.2936 67.4211C32.4406 67.4659 32.5877 67.5106 32.6854 67.6006C32.4163 67.378 32.1593 67.1385 31.9064 66.8971C31.6616 66.4489 31.445 66.0055 31.2562 65.5555C31.4462 65.7146 31.6538 65.8776 31.5535 65.7423C31.3784 65.5011 31.2074 65.258 31.034 65.0101C30.6053 63.8892 30.3 62.7364 30.0265 61.494C29.9486 61.1397 29.8243 61.8976 29.8305 61.9704C29.8619 62.3047 29.8951 62.6325 29.9325 62.9583C29.9132 62.9611 29.8915 62.9592 29.8789 62.9648C29.862 62.9723 29.8524 62.994 29.838 63.0063C29.5785 61.5486 29.4755 60.0734 29.4399 58.5681C29.4381 58.5747 29.4297 58.5785 29.4279 58.5851C29.1741 59.0698 28.9868 59.3913 28.8453 59.6809C28.7752 58.4116 28.7943 57.1548 28.831 55.9425C28.8383 55.6837 28.5489 55.836 28.5021 55.9265C28.4943 55.9416 28.4865 55.9567 28.4787 55.9718C28.5031 54.9275 28.575 53.8852 28.6862 52.8486C28.695 52.775 28.6432 52.4614 28.5485 52.6604C28.3649 53.0499 28.167 53.4517 27.9715 53.8582C27.9954 53.4702 28.0241 53.0916 28.0679 52.7121C28.1378 52.4139 28.2143 52.1185 28.3016 51.8241C28.3273 51.7023 28.2611 51.7551 28.1764 51.8625C28.3583 50.6609 28.6166 49.4774 28.9081 48.2675C28.9278 48.1949 28.9215 48.0409 28.9133 47.8936C29.0114 47.5596 29.112 47.2303 29.2167 46.8991C29.24 46.8132 29.1888 46.5109 29.0934 46.6986C28.8084 47.2437 28.5283 47.7982 28.2614 48.3585C28.1774 48.5179 28.0892 48.6791 28.0052 48.8385C27.9623 48.7647 27.9117 48.7467 27.8794 48.8656C27.819 49.0609 27.7561 49.2515 27.6915 49.4487C27.5415 49.742 27.3981 50.0381 27.2548 50.3343C27.427 49.4272 27.6408 48.5307 27.8968 47.656C28.5548 45.4234 29.5228 43.4532 30.703 41.5336C30.7703 41.4223 30.8679 40.8446 30.8516 40.8635C30.2259 41.4908 29.6587 42.1618 29.1374 42.8819C30.1557 40.7267 31.5777 38.9257 33.4057 37.4836C33.5746 37.3386 33.5111 36.8908 33.6831 36.7619C33.024 37.2532 32.3878 37.7691 31.777 38.3143C31.4528 38.5401 31.1395 38.7669 30.837 38.9947C31.3049 38.3622 31.8114 37.7648 32.3722 37.2128C32.5146 37.0564 32.3172 36.5291 32.4314 36.4085C31.4463 37.4051 30.4828 38.4037 29.6709 39.5669C30.3485 38.3939 31.1407 37.3033 32.0554 36.3207C33.7951 35.5856 35.5324 34.8457 37.2722 34.1107C38.6576 33.8761 40.0916 33.8579 41.5319 33.953C46.0298 34.2408 50.54 35.8061 54.8371 37.7742C56.4576 38.5147 58.2643 39.3057 59.7259 40.4132C60.0993 40.688 60.4625 40.9731 60.8178 41.2733C60.8353 41.2771 60.8468 41.2894 60.8625 41.2998C60.8765 41.3981 60.8906 41.4963 60.8938 41.5936C61.0026 41.7657 61.1498 41.8917 61.3336 41.978C61.4078 42.0321 61.4795 42.0407 61.55 42.0267C61.576 42.108 61.6021 42.1893 61.6071 42.2799C61.6204 42.3262 61.6314 42.3678 61.6465 42.4075C60.9108 41.9808 60.162 41.589 59.4 41.232C59.236 41.1542 58.8092 41.5535 58.7265 41.5033C59.9916 42.2165 61.5897 42.9031 62.5805 44.0812C62.5694 44.5448 62.5754 44.5363 62.9385 45.0943C63.0092 45.2022 63.1129 45.243 63.2399 45.2386C63.2907 45.2973 63.3372 45.3578 63.3903 45.4212C63.3361 45.7299 63.3804 45.8669 63.6119 46.2688C63.7811 46.5591 64.2111 46.5299 64.6149 46.3789C64.6182 46.5168 64.6281 46.6575 64.6356 46.7935C64.5677 46.8528 64.4973 46.9074 64.4336 46.9649C64.3597 47.0733 64.3516 47.1988 64.4024 47.3387C64.4418 47.4257 64.4835 47.5174 64.5228 47.6044C64.6063 47.7877 64.8366 47.8941 65.1156 47.9439C65.1269 48.1479 65.114 48.3452 65.0554 48.5339C65.1764 48.538 65.2975 48.542 65.4144 48.548C65.4091 48.6084 65.4122 48.6651 65.4141 48.7397C65.6023 48.8648 65.7676 48.9653 65.9322 49.0545C65.9374 49.2669 65.9155 49.4567 65.852 49.5953C65.8694 49.5991 65.8869 49.603 65.902 49.6021C65.8798 49.67 65.8824 49.7559 65.9254 49.8703C66.032 50.1595 66.6983 50.5417 67.0496 50.6115C67.0244 50.9769 67.0101 51.3432 67.0042 51.7058C66.9956 52.2147 67.5743 52.4154 67.9601 52.6033C68.2109 52.7295 68.5589 52.9344 68.8371 52.9322C68.8107 52.9614 68.8793 52.954 69.0497 52.9129C69.0779 52.8771 69.1037 52.8365 69.132 52.8007C69.1422 52.7904 69.1548 52.7847 69.1626 52.7696C69.1584 52.7715 69.1542 52.7734 69.15 52.7753C69.198 52.7074 69.2527 52.6424 69.2965 52.5764C69.3163 52.5037 69.3239 52.4074 69.3267 52.3017C69.5123 52.3409 69.6845 52.3337 69.7614 52.2414C70.0492 51.904 70.0093 51.5328 69.9722 51.0559C69.8345 49.1084 69.7288 47.1932 69.7363 45.2565C69.7355 45.1639 69.6088 45.0579 69.5367 45.1191C69.4705 45.1718 69.4231 45.251 69.3872 45.3425C69.3654 44.7135 69.3412 44.0799 69.3369 43.4547C69.3379 43.3556 69.3205 43.3518 69.3128 43.4481C69.2586 44.0296 69.2128 44.6074 69.1694 45.1899C69.1755 43.7357 69.234 42.293 69.3051 40.8447C69.3173 40.5954 69.0429 40.7468 69.0003 40.8354C68.827 41.2146 68.6933 41.4891 68.5818 41.7362C68.6817 39.9498 68.8582 38.1816 69.1154 36.4297C69.1291 36.3249 69.0157 36.2651 68.9713 36.3604C68.8057 36.6839 68.642 37.0008 68.4806 37.3224C68.6525 35.98 68.8618 34.65 69.1392 33.3419C69.1428 33.3287 69.1837 32.7009 69.0481 32.982C68.8214 33.4488 68.5989 33.9138 68.3831 34.3816C68.4678 34.0013 68.5592 33.6238 68.6572 33.2492C68.714 33.0265 68.4504 33.1382 68.403 33.2174C68.3754 33.2645 68.3477 33.3117 68.3177 33.3541C68.5712 32.1205 68.8771 30.8985 69.2552 29.6964C69.2624 29.6699 69.2659 29.6161 69.2688 29.551C69.2952 29.4812 69.3191 29.4066 69.343 29.3321C69.4401 29.0566 69.2591 28.6322 69.0394 28.9914C68.992 29.0706 68.947 29.1545 68.8996 29.2337C68.9965 28.9176 69.0934 28.6016 69.2012 28.2864C69.2796 28.0657 69.0349 27.6581 69.117 27.4647C68.5667 28.7551 68.0033 30.0804 67.526 31.4428C67.5935 31.1805 67.6586 30.9134 67.7328 30.6539C68.5367 27.8976 69.7232 25.5455 71.3538 23.3031C71.4541 23.1655 71.5651 22.6341 71.5915 22.6049C70.881 23.2991 70.2139 23.9972 69.6011 24.7407C69.6287 24.6935 69.6497 24.6435 69.6773 24.5964C70.889 22.4653 72.0655 21.1047 73.9974 19.5117C74.1357 19.3978 74.2123 18.8701 74.2664 18.8343C73.3378 19.4865 72.4454 20.1689 71.6061 20.9147C71.4047 21.0568 71.2074 21.197 71.0126 21.3419C71.612 20.5521 72.2749 19.8153 73.0131 19.1552C74.9027 17.4591 77.1458 16.3429 79.5729 15.7077C80.0317 15.654 80.4894 15.6183 80.9501 15.5987C83.588 15.4966 86.2844 15.7515 88.964 16.3681C92.6711 17.2233 96.4019 18.5091 99.455 21.4732C100.492 22.4795 101.405 23.5762 102.212 24.7491C102.505 25.2399 102.765 25.7391 103.018 26.2421C102.917 26.1767 102.834 26.1264 102.825 26.1188C102.976 26.3128 103.11 26.5142 103.251 26.7186C103.548 27.3586 103.815 28.0117 104.047 28.6686C104.244 29.6492 104.391 30.6345 104.48 31.6167C104.708 34.1451 104.511 36.5611 104.233 39.0013C104.256 38.7937 104.49 38.5327 104.559 38.3336C104.786 37.6864 104.998 37.0287 105.188 36.3578C105.18 36.7969 105.157 37.2369 105.133 37.6768C104.999 38.8399 104.812 39.9914 104.588 41.1306C104.534 41.2476 104.489 41.3608 104.435 41.4777C104.433 41.6354 104.424 41.7903 104.424 41.9527C104.273 42.6586 104.118 43.3665 103.95 44.0686C103.92 44.1922 104.102 44.2852 104.191 44.2977C104.035 45.0235 103.872 45.7464 103.697 46.457C103.641 46.6911 103.774 46.7886 103.875 46.5405C103.911 46.449 103.949 46.3623 103.985 46.2708C103.599 48.3066 102.973 50.2286 102.091 52.0328C101.413 53.6298 100.655 55.1813 99.825 56.6835C99.7746 56.7872 99.7134 56.89 99.8569 56.948C99.9762 56.9993 100.169 56.6173 100.208 56.5532C100.631 55.8828 101.059 55.1927 101.489 54.4959C100.793 56.0372 100.045 57.549 99.2703 59.0268C99.2427 59.0739 99.2205 59.1419 99.2008 59.2145C95.9977 64.794 92.1294 69.8921 88.0474 74.7951C87.92 74.9506 87.7594 75.3242 87.68 75.4118C92.4614 69.9647 97.0942 64.3283 100.976 58.1037C96.5947 66.6179 90.5855 73.9421 84.2689 80.8576C83.4648 81.7328 82.6541 82.6052 81.841 83.4729C81.8188 83.5003 81.8007 83.5257 81.7803 83.5464C81.5135 83.8338 81.2466 84.1211 80.9816 84.4019C80.6781 84.7288 81.0378 85.3812 81.3677 85.0251C81.5919 84.7858 81.8161 84.5465 82.0378 84.3025C82.1825 84.3831 82.3447 84.4269 82.43 84.3308C84.0256 82.6266 85.6104 80.9213 87.1812 79.199C85.2079 81.4491 83.1778 83.649 81.1357 85.8253C80.7036 86.285 81.683 86.905 81.9967 86.5677C82.2413 86.3077 82.4859 86.0477 82.7281 85.7829C82.7746 85.8435 82.8271 85.8955 82.8862 85.9505C82.7191 86.1295 82.5539 86.3019 82.3868 86.4809C82.1788 86.7013 82.3197 86.9462 82.5767 87.1451C82.3339 87.3986 82.0977 87.6548 81.8549 87.9082C81.7082 88.0665 81.7597 88.2177 81.9094 88.3484C81.6077 88.6687 81.306 88.989 81.0085 89.3075C80.8781 89.4469 81.0605 90.2887 81.2522 90.0871C81.7048 89.6066 82.1531 89.128 82.6014 88.6494C82.608 88.6523 82.6147 88.6552 82.6189 88.6533C82.4127 88.8671 82.209 89.0857 82.0053 89.3043C81.6585 89.6679 82.0054 89.9313 82.4344 90.0419C82.1592 90.333 81.8881 90.6222 81.6129 90.9133C81.4945 91.0358 81.6604 91.4611 81.8015 91.5549C81.9897 91.68 82.3201 91.5675 82.4427 91.4432C82.7486 91.121 83.0563 90.7922 83.3622 90.47C83.3863 90.4767 83.4104 90.4833 83.4321 90.4853C83.1527 90.7783 82.8774 91.0694 82.5979 91.3624C82.4062 91.564 82.5611 91.9071 82.8269 91.9918C82.895 92.0137 82.9817 92.0215 83.0787 92.0189C82.887 92.2205 82.6953 92.4221 82.5035 92.6237C82.3178 92.8168 82.6173 93.1594 82.8047 93.2325C83.0868 93.339 83.5806 93.0201 83.7796 92.8327C83.9513 92.8548 84.1729 92.8025 84.4009 92.7124C84.0379 93.0949 83.6791 93.4755 83.3161 93.858C83.1346 94.0492 82.9666 94.368 83.3345 94.5813C83.5329 94.6961 83.8024 94.5759 84.031 94.4159C84.0649 94.4821 84.1264 94.5417 84.2307 94.5939C84.3151 94.6376 84.4205 94.6312 84.5264 94.5956C84.506 94.6163 84.4898 94.6352 84.4694 94.6559C84.2939 94.8386 83.7064 95.298 84.0528 95.6719C84.3492 95.9984 84.7586 95.5952 84.9749 95.371C84.9618 95.4465 84.9656 95.5145 84.9886 95.5797C85.195 96.0741 85.5961 95.7559 85.8022 95.5421C91.846 89.2359 97.6516 82.7573 102.587 75.4069C105.481 71.1033 108.109 66.564 110.13 61.6569C109.442 63.9838 108.523 66.1817 107.369 68.2525C105.325 72.1133 103.013 75.7337 100.506 79.1855C100.359 79.3844 100.213 79.5833 100.066 79.7821C99.9136 79.9895 99.761 80.1969 99.606 80.3995C95.7286 85.49 91.4571 90.2047 87.0547 94.8152C86.9178 94.9924 86.8007 95.1781 86.6885 95.3733C86.6067 95.4562 86.5274 95.5439 86.4457 95.6267C86.0947 95.9923 85.4821 96.8576 85.4857 97.4308C85.4863 97.7556 85.7497 98.1085 86.0393 97.8051C88.9717 94.7501 91.8757 91.6496 94.645 88.4175C99.0117 83.3933 103.08 78.0785 106.439 72.2086C109.079 67.6004 111.393 62.8007 112.954 57.5524C114.607 51.9852 115.643 45.5374 113.719 39.3816C113.599 38.5702 113.448 37.7605 113.251 36.9603C112.744 34.9279 111.755 33.0463 110.606 31.2654C110.507 31.1122 110.249 31.053 110.064 31.095ZM67.7224 24.4056C67.6335 24.5149 67.5488 24.6223 67.4623 24.7364C67.7549 24.095 68.0765 23.4697 68.4318 22.87C68.1961 23.3293 67.976 23.799 67.7758 24.2773C67.7542 24.3159 67.7416 24.3622 67.7224 24.4056ZM32.028 34.7304C31.3887 35.1897 30.8013 35.6896 30.2459 36.2218C30.051 36.3667 29.8586 36.5164 29.671 36.6755C30.4737 35.6964 31.382 34.8327 32.4038 34.11C33.4405 33.5781 34.5533 33.1748 35.7122 32.9019C35.7037 32.9057 35.6911 32.9113 35.6827 32.9151C34.3874 33.3359 33.1593 33.9183 32.028 34.7304ZM64.0495 20.4929C64.3836 20.0943 64.7152 19.6909 65.0535 19.2905C64.7757 19.8091 64.5178 20.3363 64.2797 20.8721C63.9977 21.3927 63.738 21.9265 63.4922 22.4773L64.0495 20.4929ZM92.3286 15.2801C91.0852 14.8417 89.8191 14.5005 88.5567 14.2274L89.2398 14.2479C89.5157 14.2817 89.7964 14.3249 90.0772 14.368C91.1088 14.6048 92.1074 14.8678 93.0813 15.1941C93.4087 15.3384 93.7336 15.4781 94.0513 15.6441C94.1334 15.7236 94.2197 15.8013 94.2994 15.876C93.6442 15.6572 92.9879 15.4564 92.3286 15.2801ZM70.1424 18.7921C69.8941 18.9841 69.653 19.1903 69.4161 19.3947C70.0301 18.6332 70.705 17.92 71.4487 17.2807C72.0422 16.7722 72.6628 16.3271 73.3035 15.9312C73.496 15.8221 73.6927 15.7111 73.8852 15.6021C73.9941 15.5419 74.0988 15.4836 74.2077 15.4235C74.7837 15.2247 75.3639 15.024 75.9399 14.8253C76.3347 14.7073 76.7351 14.61 77.1384 14.5289C76.784 14.6753 76.4344 14.8312 76.0902 15.0079C75.9392 15.0868 75.7906 15.1705 75.6396 15.2495C73.5923 16.0811 71.7336 17.2814 70.1424 18.7921ZM89.3864 13.1898C88.691 13.0238 87.9944 12.8757 87.3009 12.7437C87.4967 12.7725 87.6943 12.7947 87.8925 12.8282C88.0384 12.8503 88.1757 12.8761 88.3215 12.8982C88.6741 12.9907 89.029 13.0879 89.3864 13.1898ZM57.4345 34.944C57.4122 34.9307 57.3899 34.9174 57.3633 34.906C57.168 34.8073 56.9666 34.7171 56.7737 34.6232C56.9353 34.6963 57.1011 34.7675 57.2584 34.8425C57.4158 34.9175 57.5713 34.9991 57.7311 35.0788C57.6358 35.0342 57.5339 34.9867 57.4345 34.944ZM61.0286 39.5014C61.0504 39.5439 61.068 39.5884 61.0855 39.6328C61.0524 39.6185 61.021 39.5977 60.9879 39.5834L60.9921 39.5816C61.0077 39.5514 61.0148 39.525 61.0286 39.5014ZM81.4998 10.465C82.2913 10.4953 83.0827 10.5256 83.8742 10.5558C84.5742 10.6095 85.2803 10.6953 85.9869 10.7924C86.3389 10.8735 86.6998 10.9622 87.059 11.0575C88.0485 11.313 89.0193 11.5826 89.98 11.9032C88.0372 11.4225 86.0647 11.1061 84.1726 10.957C82.9045 10.8547 81.6505 10.8507 80.4275 10.9374C80.7855 10.7777 81.146 10.6228 81.4998 10.465ZM39.4443 28.6193C40.0189 28.6302 40.5977 28.6392 41.1747 28.6547C41.4193 28.6676 41.6603 28.6937 41.9072 28.7113C43.4617 28.9588 45.0085 29.3025 46.5542 29.7048C48.0209 30.0842 49.4277 30.5891 50.8634 31.1101C47.1073 29.7949 43.1971 28.8967 39.4337 29.0537C37.9245 29.117 36.4939 29.3543 35.1378 29.7674C34.9927 29.7972 34.841 29.8243 34.6941 29.8607C36.1095 28.9973 37.6897 28.5772 39.4443 28.6193ZM44.2481 32.1033C44.3866 32.1112 44.5251 32.119 44.6661 32.1317C45.3251 32.1862 45.9818 32.2765 46.6391 32.3783C47.4038 32.5482 48.1721 32.7456 48.9309 32.9646C49.3154 33.0893 49.6999 33.2139 50.0784 33.347C51.8938 33.9832 53.6883 34.71 55.4595 35.5227C54.8929 35.305 54.3245 35.094 53.7526 34.8962C52.8393 34.537 51.9268 34.1892 51.0016 33.8876C49.6871 33.4518 48.3372 33.0784 46.9724 32.787C46.0751 32.5195 45.1603 32.2887 44.2481 32.1033ZM60.2757 38.8791C60.3218 39.0096 60.3702 39.1447 60.4036 39.2808C60.1388 39.0563 59.8853 38.8036 59.6264 38.5707C59.5081 38.4608 59.4062 38.3728 59.3241 38.2932C59.6491 38.4735 59.9621 38.6706 60.2757 38.8791ZM74.8533 10.6999C73.5407 11.1574 72.2957 11.7474 71.1155 12.4943C70.7757 12.7097 70.4455 12.944 70.1244 13.1859C70.2884 12.9908 70.4542 12.7891 70.6183 12.5941C71.6372 11.9365 72.7605 11.3718 73.9113 10.9516C74.2255 10.8579 74.5403 10.7756 74.8533 10.6999ZM33.5207 28.8918C30.05 30.2478 27.2992 32.8387 25.448 36.2072C25.1401 36.7683 24.857 37.3474 24.592 37.9416C23.9002 39.2081 23.3235 40.5683 22.8554 41.9789C24.3664 36.5907 27.5021 31.3548 32.3988 29.2876C32.6708 29.1721 32.95 29.0708 33.2251 28.9714C33.325 28.9442 33.4207 28.919 33.5207 28.8918ZM27.943 41.6901C27.7712 41.9003 27.6018 42.1152 27.4414 42.3376C27.9432 41.1849 28.5366 40.0901 29.2278 39.0852C28.7405 39.9121 28.3182 40.7855 27.943 41.6901ZM62.1073 41.2557C62.1321 41.2737 62.1586 41.2851 62.1833 41.3031C62.1804 41.3276 62.184 41.355 62.1811 41.3796C62.1497 41.3587 62.1159 41.3331 62.0863 41.3057C62.0941 41.2906 62.0995 41.2708 62.1073 41.2557ZM62.8184 43.1913C62.8388 43.1706 62.8592 43.1499 62.8839 43.1273C62.9153 43.1481 62.9448 43.1756 62.972 43.1983C62.9696 43.2342 62.9715 43.2682 62.9758 43.3069C62.9239 43.2662 62.8703 43.232 62.8184 43.1913ZM78.8046 15.2374C78.5282 15.2736 78.2543 15.3144 77.9827 15.36C78.0273 15.346 78.0694 15.3272 78.1164 15.3179C79.2083 15.0052 80.3673 14.8135 81.5537 14.7257C80.7588 14.8305 79.9798 14.9863 79.2231 15.1959C79.0901 15.2088 78.9461 15.2208 78.8046 15.2374ZM111.775 36.2191C111.66 36.1367 111.446 36.0814 111.28 36.0914C111.132 35.1241 110.932 34.1567 110.674 33.1976C111.102 34.1967 111.47 35.1995 111.775 36.2191ZM60.3776 31.5357C60.4279 31.1185 60.4825 30.6994 60.5328 30.2821C60.624 29.5099 60.7682 28.7605 60.9456 28.0253C60.6736 29.6271 60.492 31.2641 60.3888 32.9125C60.38 33.0268 60.6392 33.1492 60.8598 33.196C60.8152 33.7965 60.7773 34.3998 60.7527 35.0088C60.6711 34.9 60.5938 34.7893 60.5267 34.6683C60.4047 34.4904 60.2791 34.3258 60.1408 34.1669C60.1932 33.2784 60.2788 32.4042 60.3776 31.5357ZM48.9166 34.8173C45.0179 33.6179 40.9341 32.9365 37.1456 33.4588C38.4837 33.1117 39.8988 32.9453 41.3533 32.9469C42.726 32.9503 44.1013 33.0802 45.478 33.314C45.4288 33.3998 45.3825 33.4611 45.3367 33.4525C46.1983 33.5792 47.0467 33.7409 47.8963 33.9252C48.6406 34.1565 49.3837 34.4058 50.1191 34.6701C52.5348 35.5495 55.0195 36.5433 57.299 37.9247C57.2725 37.9133 57.246 37.9019 57.2261 37.8934C57.1598 37.8649 57.0641 37.9308 56.9698 38.0193C54.3598 36.7098 51.6364 35.654 48.9166 34.8173ZM71.6927 19.6278C71.0525 20.2674 70.4733 20.9553 69.9394 21.6811C70.8254 20.2584 71.878 18.9588 73.1272 17.8212C73.9863 17.3162 74.8997 16.8973 75.8525 16.5654C74.3261 17.3737 72.9236 18.3938 71.6927 19.6278ZM92.9515 17.1041C89.8687 16.0635 86.5864 15.3207 83.386 15.1221C84.3303 15.0668 85.2928 15.0673 86.2584 15.1245C87.1613 15.1805 88.0788 15.2649 89.0048 15.3862C89.9165 15.6009 90.8258 15.8109 91.7375 16.0256C93.0885 16.654 94.442 17.2872 95.793 17.9156C96.0945 18.1005 96.3907 18.3052 96.6742 18.5155C96.5723 18.468 96.4704 18.4206 96.3667 18.3797C96.2805 18.3427 96.1138 18.3706 95.9669 18.407C94.9805 17.8947 93.9719 17.4503 92.9515 17.1041Z" fill="#FFDDA5"/>
</svg>
