<svg width="20" height="20" viewBox="0 0 20 20" fill="none" xmlns="http://www.w3.org/2000/svg">
<path d="M6.27876 18.523C6.12407 18.8773 6.28525 19.2925 6.6495 19.422C8.47589 20.0715 10.4571 20.1778 12.351 19.7197C14.4723 19.2066 16.3675 18.0136 17.7474 16.3227C19.1274 14.6319 19.9162 12.536 19.9937 10.3549C20.0712 8.1738 19.4329 6.02725 18.1764 4.24276C16.9199 2.45827 15.1141 1.13384 13.0346 0.471553C10.955 -0.190737 8.71589 -0.154519 6.65884 0.57468C4.60179 1.30388 2.83977 2.68602 1.64164 4.51021C0.571956 6.13883 0.00417385 8.03996 1.50715e-05 9.9784C-0.000814345 10.365 0.335685 10.6567 0.721395 10.6305C1.10711 10.6043 1.39555 10.27 1.40078 9.88346C1.42289 8.25037 1.90991 6.65195 2.81181 5.27878C3.8422 3.70998 5.35754 2.52134 7.1266 1.89422C8.89567 1.26711 10.8213 1.23597 12.6097 1.80554C14.3982 2.3751 15.9511 3.51412 17.0317 5.04877C18.1123 6.58343 18.6612 8.42947 18.5946 10.3052C18.528 12.181 17.8495 13.9834 16.6628 15.4376C15.4761 16.8917 13.8462 17.9177 12.0219 18.3589C10.4251 18.7452 8.75602 18.6649 7.21106 18.1352C6.84536 18.0099 6.43345 18.1687 6.27876 18.523Z" fill="url(#paint0_linear_8102_318766)"/>
<path d="M6.27876 18.523C6.12407 18.8773 6.28525 19.2925 6.6495 19.422C8.47589 20.0715 10.4571 20.1778 12.351 19.7197C14.4723 19.2066 16.3675 18.0136 17.7474 16.3227C19.1274 14.6319 19.9162 12.536 19.9937 10.3549C20.0712 8.1738 19.4329 6.02725 18.1764 4.24276C16.9199 2.45827 15.1141 1.13384 13.0346 0.471553C10.955 -0.190737 8.71589 -0.154519 6.65884 0.57468C4.60179 1.30388 2.83977 2.68602 1.64164 4.51021C0.571956 6.13883 0.00417385 8.03996 1.50715e-05 9.9784C-0.000814345 10.365 0.335685 10.6567 0.721395 10.6305C1.10711 10.6043 1.39555 10.27 1.40078 9.88346C1.42289 8.25037 1.90991 6.65195 2.81181 5.27878C3.8422 3.70998 5.35754 2.52134 7.1266 1.89422C8.89567 1.26711 10.8213 1.23597 12.6097 1.80554C14.3982 2.3751 15.9511 3.51412 17.0317 5.04877C18.1123 6.58343 18.6612 8.42947 18.5946 10.3052C18.528 12.181 17.8495 13.9834 16.6628 15.4376C15.4761 16.8917 13.8462 17.9177 12.0219 18.3589C10.4251 18.7452 8.75602 18.6649 7.21106 18.1352C6.84536 18.0099 6.43345 18.1687 6.27876 18.523Z" fill="url(#paint1_linear_8102_318766)"/>
<defs>
<linearGradient id="paint0_linear_8102_318766" x1="7" y1="8" x2="10" y2="14.5" gradientUnits="userSpaceOnUse">
<stop stop-color="white"/>
<stop offset="1" stop-color="white" stop-opacity="0"/>
</linearGradient>
<linearGradient id="paint1_linear_8102_318766" x1="20" y1="19" x2="8.5" y2="17.5" gradientUnits="userSpaceOnUse">
<stop stop-color="white"/>
<stop offset="1" stop-color="white" stop-opacity="0"/>
</linearGradient>
</defs>
</svg>
